<svg xmlns="http://www.w3.org/2000/svg" viewBox="0 0 26.37 26.1"><defs><style>.cls-1{isolation:isolate;}.cls-2{opacity:0.6;}.cls-3{fill:#0b90b7;opacity:0.1;mix-blend-mode:multiply;}</style></defs><g class="cls-1"><g id="Layer_2" data-name="Layer 2"><g id="Layer_1-2" data-name="Layer 1"><g class="cls-2"><path class="cls-3" d="M19.05,0c-.21.33-.41.67-.62,1-2.2,3.7-4.74,8.23-7.71,5C8,3,5.32,2.54,3,5.28a17.73,17.73,0,0,0-3,6.78v.33a18,18,0,0,1,3.06-7c2.27-2.71,4.9-2.31,7.64.7C11.86,7.37,13,7.46,14,6.87c1.62-.91,3.1-3.5,4.45-5.77.22-.38.44-.75.66-1.1Z"/><path class="cls-3" d="M25.07,0c-.39.92-.82,1.29-1.37,0h0c.58,1.38,1,1,1.42,0Z"/><path class="cls-3" d="M19.1,0c-.19.31-.39.64-.58,1-2.18,3.67-4.71,8.17-7.65,4.88-2.51-2.81-5-3.35-7.15-1.18-2,2-3.09,5.42-3.72,7.93v.33c.61-2.5,1.73-6.13,3.74-8.14C5.9,2.64,8.34,3.17,10.84,6c1.16,1.29,2.25,1.39,3.28.81,1.61-.9,3.07-3.47,4.4-5.72l.63-1Z"/><path class="cls-3" d="M25.1,0c-.38.9-.81,1.25-1.35,0h0c.56,1.34,1,1,1.39,0Z"/><path class="cls-3" d="M25.13,0c-.37.88-.79,1.21-1.32,0h0c.56,1.3,1,.93,1.37,0Z"/><path class="cls-3" d="M19.16,0,18.6.93C16.44,4.58,13.94,9.05,11,5.74,8.62,3,6.27,2.45,4.15,4.38S.69,10.48,0,13.11v.32C.67,10.83,1.89,6.6,4.17,4.5,6.27,2.58,8.61,3.15,11,5.84c1.15,1.3,2.23,1.4,3.25.83,1.59-.89,3-3.43,4.37-5.68q.3-.51.6-1Z"/><path class="cls-3" d="M19.21,0l-.52.88c-2.15,3.62-4.63,8.06-7.53,4.74C8.86,3,6.6,2.38,4.54,4.14,2.07,6.25.75,10.89,0,13.54v.29c0-.08,0-.15.07-.24.74-2.61,2-7.24,4.48-9.34,2-1.75,4.3-1.14,6.58,1.47,1.15,1.3,2.22,1.42,3.23.85,1.58-.87,3-3.4,4.34-5.63L19.26,0Z"/><path class="cls-3" d="M25.16,0c-.37.85-.78,1.17-1.3,0h0c.54,1.27,1,.91,1.34,0Z"/><path class="cls-3" d="M25.19,0c-.36.83-.76,1.14-1.27,0h0c.53,1.23.95.89,1.32,0Z"/><path class="cls-3" d="M19.27,0c-.16.27-.33.54-.49.83-2.13,3.6-4.6,8-7.48,4.68C9.09,3,6.9,2.3,4.9,3.92c-2.43,2-3.79,6.38-4.65,9.17-.09.28-.17.55-.25.79v.26c.1-.3.2-.64.32-1C1.17,10.36,2.52,6,4.91,4c2-1.61,4.17-1,6.37,1.56,1.13,1.31,2.2,1.43,3.2.88,1.57-.87,3-3.37,4.31-5.59.17-.3.35-.6.53-.89Z"/><path class="cls-3" d="M19.32,0l-.46.78c-2.11,3.58-4.56,8-7.42,4.61C9.07,2.61,6.72,2.11,4.59,4.3S1.36,10.07.51,12.66c-.19.58-.36,1.08-.51,1.48v.22c.16-.42.35-1,.57-1.65.85-2.57,2.06-6.25,4-8.3s4.45-1.68,6.81,1.08c1.13,1.31,2.18,1.44,3.18.89,1.56-.85,3-3.34,4.27-5.54l.5-.84Z"/><path class="cls-3" d="M25.22,0c-.35.81-.75,1.1-1.25,0h0c.53,1.19.94.86,1.3,0Z"/><path class="cls-3" d="M19.38,0c-.14.24-.29.48-.43.73-2.1,3.56-4.53,7.9-7.37,4.55C9.29,2.56,7,2,4.91,4.1S1.66,9.72.77,12.28c-.3.85-.55,1.56-.77,2.05v.19c.24-.51.51-1.27.83-2.19C1.71,9.79,3,6.15,4.93,4.21s4.34-1.54,6.63,1.16c1.12,1.32,2.17,1.45,3.16.92,1.54-.84,3-3.31,4.24-5.5.15-.27.31-.53.47-.79Z"/><path class="cls-3" d="M25.25,0C24.9.78,24.51,1.06,24,0h0c.51,1.16.91.84,1.27,0Z"/><path class="cls-3" d="M0,14.44v.18A18.79,18.79,0,0,0,1.08,12c.87-2.35,2-5.44,3.51-7.39C3,6.57,1.85,9.67,1,11.93A20.92,20.92,0,0,1,0,14.44Z"/><path class="cls-3" d="M4.59,4.59c.2-.24.41-.47.62-.68A3.74,3.74,0,0,1,7.7,2.74,4,4,0,0,0,4.59,4.59Z"/><path class="cls-3" d="M19.43,0,19,.68C17,4.22,14.54,8.53,11.72,5.16,10.37,3.54,9,2.7,7.7,2.74c1.16,0,2.49.73,4,2.52,1.11,1.32,2.15,1.46,3.14.93,1.53-.82,2.92-3.27,4.2-5.44.15-.26.29-.51.44-.75Z"/><path class="cls-3" d="M25.28,0c-.34.76-.72,1-1.2,0h0c.5,1.12.9.82,1.25,0Z"/><path class="cls-3" d="M19.49,0c-.12.21-.25.42-.38.63C17,4.15,14.66,8.43,11.86,5.05,6.25-1.65,3.18,6.64,1.28,11.6A16.17,16.17,0,0,1,0,14.52v.15a14.9,14.9,0,0,0,1.34-3c1-2.63,2.28-6,4.17-7.81s4.16-1.31,6.33,1.29c1,1.25,2,1.53,3.1,1a4.55,4.55,0,0,0,1-.78A23.46,23.46,0,0,0,19.12.7l.42-.7Z"/><path class="cls-3" d="M25.31,0c-.34.74-.71,1-1.18,0h0c.49,1.08.88.8,1.22,0Z"/><path class="cls-3" d="M19.54,0,19.2.59C17.14,4.08,14.77,8.34,12,4.94,9.88,2.35,7.76,1.78,5.78,3.58S2.56,8.68,1.54,11.3A13.75,13.75,0,0,1,0,14.55v.14a12.88,12.88,0,0,0,1.59-3.33c1-2.6,2.33-6,4.2-7.67S9.87,2.47,12,5c1,1.25,2,1.54,3.09,1a4.41,4.41,0,0,0,1-.77A23.16,23.16,0,0,0,19.2.65L19.59,0Z"/><path class="cls-3" d="M25.34,0c-.33.72-.7,1-1.15,0h0c.48,1.05.86.77,1.2,0Z"/><path class="cls-3" d="M19.6,0c-.11.18-.22.36-.32.54-2,3.47-4.39,7.7-7.15,4.29C6.84-1.63,3.86,5.94,1.79,11,1.08,12.77.52,14.14,0,14.55v.15c.56-.45,1.14-1.88,1.84-3.63,2.05-5,5-12.55,10.27-6.15,1,1.26,2,1.55,3.06,1a4.34,4.34,0,0,0,1-.76A23,23,0,0,0,19.29.6c.12-.2.24-.4.35-.6Z"/><path class="cls-3" d="M25.37,0c-.33.69-.69.93-1.13,0h0c.47,1,.85.75,1.18,0Z"/><path class="cls-3" d="M25.39,0c-.31.67-.66.89-1.1,0h0c.46,1,.83.73,1.16,0Z"/><path class="cls-3" d="M19.65,0c-.1.16-.19.33-.29.5C17.33,4,15,8.14,12.26,4.73c-2-2.56-4-3.14-6-1.44S3.1,8.19,2,10.74c-.81,1.95-1.43,3.46-2,3.8v.14c.64-.38,1.3-1.95,2.09-3.87C3.14,8.27,4.49,5,6.31,3.4s3.89-1.12,5.93,1.42c1,1.26,2,1.55,3,1a4.2,4.2,0,0,0,1-.75A23.32,23.32,0,0,0,19.37.56L19.7,0Z"/><path class="cls-3" d="M19.71,0l-.27.45c-2,3.43-4.33,7.6-7,4.17-2-2.52-3.93-3.11-5.84-1.47S3.42,7.82,2.29,10.49c-.87,2-1.58,3.73-2.29,4v.16c.73-.3,1.46-2,2.34-4.09C3.46,7.9,4.77,4.81,6.56,3.26s3.82-1.06,5.81,1.45c1,1.26,2,1.57,3,1a4,4,0,0,0,1-.73A22.38,22.38,0,0,0,19.45.51l.3-.51Z"/><path class="cls-3" d="M25.42,0c-.31.65-.65.86-1.08,0h0c.45,1,.8.71,1.13,0Z"/><path class="cls-3" d="M19.76,0l-.24.41c-2,3.41-4.3,7.55-7,4.11C10.57,2,8.67,1.42,6.79,3S3.68,7.61,2.54,10.25c-1,2.21-1.74,4-2.54,4.2v.15c.82-.2,1.62-2,2.58-4.28C4.78,5.26,7.64-1.53,12.5,4.6c1,1.27,2,1.58,3,1.06a4.32,4.32,0,0,0,1-.73A22.69,22.69,0,0,0,19.53.47L19.8,0Z"/><path class="cls-3" d="M25.45,0c-.3.63-.64.83-1.05,0h0c.44.91.79.68,1.11,0Z"/><path class="cls-3" d="M19.81,0,19.6.36c-2,3.39-4.27,7.5-7,4.05C7.88-1.7,5,5,2.78,10,1.74,12.39.89,14.31,0,14.39v.15c.92-.11,1.77-2,2.83-4.45C5,5.11,7.88-1.55,12.63,4.5c1,1.26,2,1.57,3,1a4,4,0,0,0,.94-.7,22,22,0,0,0,3-4.42c.08-.15.16-.29.25-.43Z"/><path class="cls-3" d="M25.48,0c-.3.61-.63.8-1,0h0c.43.88.78.66,1.08,0Z"/><path class="cls-3" d="M25.51,0c-.29.59-.62.77-1,0h0c.42.85.76.64,1.06,0Z"/><path class="cls-3" d="M19.87,0l-.19.32c-2,3.37-4.24,7.45-6.9,4C8.11-1.72,5.24,4.87,3,9.8c-1.12,2.51-2,4.54-3,4.53v.14c1,0,2-2.16,3.07-4.6C5.26,5,8.12-1.58,12.76,4.4c1,1.27,2,1.58,3,1.07a4,4,0,0,0,.93-.69,22.09,22.09,0,0,0,3-4.4L19.91,0Z"/><path class="cls-3" d="M19.92,0a2.54,2.54,0,0,0-.16.28c-2,3.35-4.21,7.41-6.85,3.93-1.53-2-3-2.76-4.51-2.13,1.28-.54,2.75,0,4.49,2.22,1,1.27,1.95,1.59,3,1.08a4,4,0,0,0,.92-.67,21.77,21.77,0,0,0,3-4.37L20,0Z"/><path class="cls-3" d="M25.54,0c-.29.57-.6.74-1,0h0c.41.82.74.62,1,0Z"/><path class="cls-3" d="M3.26,9.59C2.06,12.24,1.09,14.38,0,14.26v.14c1.12.07,2.14-2.17,3.3-4.74C4.56,6.88,6,3.78,7.68,2.5a1,1,0,0,0-.2.15C5.76,4.05,4.42,7,3.26,9.59Z"/><path class="cls-3" d="M20,0l-.14.24C17.89,3.57,15.66,7.6,13,4.11c-1.8-2.4-3.56-3-5.34-1.58s-3,4.32-4.2,6.86c-1.27,2.78-2.3,5-3.49,4.8v.14c1.22.18,2.3-2.17,3.54-4.87,2.31-5,5-11.11,9.47-5.26,1,1.27,2,1.6,3,1.1a3.53,3.53,0,0,0,.91-.67,20.74,20.74,0,0,0,3-4.33C19.9.2,20,.1,20,0Z"/><path class="cls-3" d="M25.56,0c-.27.55-.58.71-1,0h0c.4.79.73.6,1,0Z"/><path class="cls-3" d="M20,0l-.11.19C18,3.51,15.77,7.51,13.16,4c-4.38-5.83-7.11.18-9.44,5.18C2.38,12.1,1.29,14.45,0,14.11v.14c1.33.29,2.46-2.17,3.77-5,2.3-5,5-10.95,9.37-5.16,1,1.28,1.93,1.61,2.93,1.12a3.69,3.69,0,0,0,.9-.66,21.55,21.55,0,0,0,3-4.31L20.07,0Z"/><path class="cls-3" d="M25.59,0c-.27.52-.57.67-.94,0h0c.39.76.71.58,1,0Z"/><path class="cls-3" d="M20.08,0,20,.15c-1.92,3.3-4.12,7.27-6.71,3.77C9-1.86,6.27,4.07,4,9,2.59,11.91,1.41,14.45,0,14v.15c1.43.4,2.63-2.16,4-5.09C6.29,4.17,9-1.73,13.26,4c1,1.29,1.92,1.63,2.91,1.14a3.39,3.39,0,0,0,.9-.65A20.83,20.83,0,0,0,20,.21,2.39,2.39,0,0,0,20.12,0Z"/><path class="cls-3" d="M25.62,0c-.27.5-.56.64-.91,0h0c.37.73.69.56,1,0Z"/><path class="cls-3" d="M25.64,0c-.25.48-.54.61-.88,0h0c.37.7.67.54.94,0Z"/><path class="cls-3" d="M20.13,0l-.07.11C18.16,3.39,16,7.34,13.4,3.82,9.2-1.9,6.49,4,4.18,8.82c-1.42,3-2.67,5.66-4.18,5.12v.15c1.53.51,2.79-2.16,4.22-5.2,2.29-4.84,5-10.66,9.17-5,.94,1.29,1.9,1.64,2.89,1.16a3.5,3.5,0,0,0,.88-.64A20.56,20.56,0,0,0,20.07.17l.1-.17Z"/><path class="cls-3" d="M20.18,0a.25.25,0,0,0,0,.07c-1.89,3.26-4.06,7.19-6.61,3.66-1.68-2.32-3.33-2.95-5-1.64s-2.89,4-4.12,6.56c-1.48,3.12-2.78,5.86-4.4,5.2V14c1.64.62,3-2.15,4.44-5.29,2.28-4.79,5-10.53,9.07-4.91C14.45,5.1,15.4,5.46,16.38,5a3.62,3.62,0,0,0,.88-.63A20,20,0,0,0,20.14.13L20.22,0Z"/><path class="cls-3" d="M25.67,0c-.25.46-.53.59-.86,0h0c.36.66.65.52.92,0Z"/><path class="cls-3" d="M20.23,0l0,0c-1.88,3.23-4,7.13-6.56,3.59C12,1.33,10.37.7,8.72,2S5.85,5.92,4.62,8.48C3.08,11.7,1.72,14.54,0,13.76v.16c1.74.74,3.11-2.13,4.66-5.37,2.27-4.74,4.94-10.41,9-4.84.93,1.3,1.88,1.66,2.85,1.2a3.4,3.4,0,0,0,.87-.63A20.1,20.1,0,0,0,20.22.09L20.27,0Z"/><path class="cls-3" d="M25.7,0c-.25.44-.52.56-.84,0h0c.35.64.63.5.89,0Z"/><path class="cls-3" d="M20.28,0c-1.86,3.22-4,7.09-6.52,3.54C12.14,1.25,10.54.63,8.91,1.89S6.06,5.77,4.84,8.31c-1.6,3.32-3,6.26-4.84,5.36v.16c1.85.86,3.27-2.1,4.88-5.45C7.25,3.45,9.79-1.9,13.75,3.62c.93,1.31,1.87,1.67,2.83,1.21a3.29,3.29,0,0,0,.87-.61A19.88,19.88,0,0,0,20.29.05l0,0Z"/><path class="cls-3" d="M25.72,0c-.23.42-.5.53-.81,0h0c.25.44.47.52.7.27A1.26,1.26,0,0,0,25.75,0Z"/><path class="cls-3" d="M20.33,0c-1.84,3.19-3.95,7-6.45,3.45C12.29,1.18,10.71.55,9.1,1.79s-2.83,3.84-4,6.36C3.4,11.57,1.94,14.6,0,13.58v.16c2,1,3.43-2.08,5.09-5.52C7.46,3.34,10-1.95,13.86,3.53c.93,1.31,1.86,1.68,2.82,1.23a3.5,3.5,0,0,0,.86-.61A19.4,19.4,0,0,0,20.36,0V0Z"/><path class="cls-3" d="M25.75,0c-.23.4-.49.5-.79,0h0c.24.42.46.5.68.26A2,2,0,0,0,25.78,0Z"/><path class="cls-3" d="M25.78,0c-.23.38-.48.48-.77,0h0c.24.4.45.48.67.24A1.24,1.24,0,0,0,25.8,0Z"/><path class="cls-3" d="M20.38,0C18.56,3.17,16.47,6.9,14,3.36,10.16-2.12,7.64,3.14,5.27,8,3.56,11.51,2.05,14.63,0,13.49v.16a1.64,1.64,0,0,0,1.76-.06C3,12.8,4.11,10.52,5.3,8.07,7.65,3.24,10.16-2,14,3.44c1.19,1.7,2.39,1.83,3.65.64A18.7,18.7,0,0,0,20.42,0Z"/><path class="cls-3" d="M25.8,0c-.22.36-.46.45-.74,0h0c.23.39.44.46.65.23A1,1,0,0,0,25.83,0Z"/><path class="cls-3" d="M20.44,0c-1.82,3.14-3.88,6.81-6.33,3.27C10.34-2.16,7.83,3,5.48,7.84,3.72,11.44,2.16,14.66,0,13.4v.16a1.76,1.76,0,0,0,1.89-.06c1.31-.83,2.45-3.18,3.62-5.58C7.85,3.13,10.34-2,14.1,3.35c1.18,1.7,2.37,1.84,3.62.67a18.5,18.5,0,0,0,2.75-4Z"/><path class="cls-3" d="M25.83,0c-.21.34-.45.42-.72,0h0c.22.36.42.43.63.21A1.27,1.27,0,0,0,25.85,0Z"/><path class="cls-3" d="M20.49,0c-1.8,3.12-3.85,6.72-6.26,3.18C10.52-2.21,8,2.93,5.68,7.7c-1.8,3.68-3.41,7-5.68,5.6v.16a1.83,1.83,0,0,0,2,0c1.34-.85,2.5-3.23,3.69-5.66C8,3,10.52-2.09,14.21,3.26,15.38,5,16.57,5.12,17.81,4A17.88,17.88,0,0,0,20.52,0Z"/><path class="cls-3" d="M20.54,0c-1.78,3.09-3.81,6.63-6.2,3.1-3.65-5.36-6.13-.27-8.45,4.45C4,11.32,2.38,14.71,0,13.21v.16a1.91,1.91,0,0,0,2.16,0c1.38-.86,2.55-3.28,3.76-5.73,2.31-4.7,4.77-9.77,8.4-4.46,1.17,1.72,2.35,1.87,3.58.72A17.68,17.68,0,0,0,20.57,0Z"/><path class="cls-3" d="M25.85,0c-.2.33-.43.4-.69,0h0c.21.34.41.41.61.2a1.15,1.15,0,0,0,.14-.2Z"/><path class="cls-3" d="M20.59,0c-1.76,3.06-3.77,6.53-6.14,3-3.59-5.32-6-.28-8.36,4.4C4.27,11.1,2.51,14.71,0,13.11v.16a2,2,0,0,0,2.3,0C3.7,12.41,4.9,10,6.12,7.49c2.3-4.66,4.75-9.68,8.32-4.4C15.59,4.81,16.77,5,18,3.83A17.14,17.14,0,0,0,20.62,0Z"/><path class="cls-3" d="M20.64,0c-1.75,3-3.73,6.45-6.08,2.93C13.11.74,11.67.11,10.17,1.24s-2.69,3.62-3.88,6C4.43,11,2.62,14.74,0,13v.16a2.09,2.09,0,0,0,2.44.06c1.43-.91,2.64-3.38,3.88-5.89C8.6,2.73,11-2.24,14.55,3c1.15,1.72,2.31,1.89,3.53.77A17.17,17.17,0,0,0,20.67,0Z"/><path class="cls-3" d="M20.68,0C19,3,17,6.36,14.68,2.84,13.24.67,11.82,0,10.34,1.15s-2.67,3.59-3.86,6C4.58,11,2.73,14.77,0,12.92v.17a2.2,2.2,0,0,0,2.58.09c1.45-.93,2.68-3.43,3.93-6,2.27-4.58,4.69-9.5,8.15-4.29,1.14,1.72,2.3,1.9,3.51.79A17,17,0,0,0,20.72,0Z"/><path class="cls-3" d="M20.73,0c-1.71,3-3.65,6.27-6,2.76C13.37.6,12,0,10.51,1.07S7.86,4.63,6.68,7C4.74,10.93,2.84,14.79,0,12.82V13a2.29,2.29,0,0,0,2.72.13c1.48-.95,2.72-3.48,4-6,2.36-4.76,4.65-9.42,8.06-4.25,1.13,1.74,2.28,1.92,3.48.81A16.14,16.14,0,0,0,20.77,0Z"/><path class="cls-3" d="M20.78,0c-1.69,3-3.62,6.18-5.89,2.68C13.5.53,12.11-.1,10.67,1S8.05,4.51,6.87,6.89c-2,4-3.92,7.93-6.87,5.84v.16a2.36,2.36,0,0,0,2.85.17C4.36,12.1,5.62,9.53,6.9,7c2.34-4.73,4.62-9.35,8-4.21,1.13,1.74,2.27,1.93,3.46.84A15.91,15.91,0,0,0,20.82,0Z"/><path class="cls-3" d="M20.83,0C19.15,2.94,17.25,6.1,15,2.6,13.62.46,12.26-.17,10.83.9S8.23,4.4,7.06,6.76c-2,4.05-4,8.09-7.06,5.87v.17A2.47,2.47,0,0,0,3,13c1.53-1,2.81-3.57,4.1-6.17C9.42,2.14,11.68-2.44,15,2.67c1.13,1.74,2.26,1.94,3.44.86A16,16,0,0,0,20.87,0Z"/><path class="cls-3" d="M20.88,0c-1.66,2.91-3.55,6-5.77,2.52C13.75.39,12.4-.24,11,.82S8.46,4.18,7.25,6.64c-2,4.12-4.07,8.24-7.25,5.9v.16a2.54,2.54,0,0,0,3.13.24c1.56-1,2.84-3.61,4.14-6.23,2.32-4.65,4.56-9.2,7.82-4.12,1.12,1.75,2.24,2,3.42.88A15.52,15.52,0,0,0,20.92,0Z"/><path class="cls-3" d="M20.93,0c-1.65,2.88-3.52,5.93-5.72,2.44C12-2.64,9.74,1.88,7.43,6.52,5.35,10.7,3.29,14.91,0,12.44v.16a2.65,2.65,0,0,0,3.27.29c1.58-1,2.88-3.66,4.19-6.3C9.75,2,12-2.54,15.2,2.51c1.1,1.75,2.22,2,3.39.9A15,15,0,0,0,21,0Z"/><path class="cls-3" d="M21,0c-1.64,2.86-3.48,5.85-5.66,2.36-3.18-5-5.41-.57-7.71,4C5.5,10.65,3.41,14.94,0,12.34v.16a2.72,2.72,0,0,0,3.4.33c1.6-1,2.92-3.7,4.24-6.36,2.28-4.59,4.5-9,7.66-4,1.1,1.76,2.21,2,3.37.92A14.19,14.19,0,0,0,21,0Z"/><path class="cls-3" d="M21,0c-1.56,2.72-3.46,5.75-5.61,2.29-3.13-5-5.35-.58-7.63,4C5.64,10.6,3.52,15,0,12.25v.16a2.84,2.84,0,0,0,3.54.36,4.82,4.82,0,0,0,.8-.67A23.86,23.86,0,0,0,7.82,6.36c2.26-4.56,4.47-9,7.59-4,1.09,1.75,2.19,2,3.35.94A14.26,14.26,0,0,0,21.06,0Z"/><path class="cls-3" d="M21.07,0c-1.54,2.7-3.42,5.67-5.55,2.21-3.09-5-5.29-.58-7.55,4-2.18,4.38-4.34,8.82-8,6v.16c1.34,1,2.53,1.14,3.67.4a4.3,4.3,0,0,0,.8-.66A23.74,23.74,0,0,0,8,6.24c2.25-4.52,4.43-8.92,7.51-4,1.08,1.76,2.18,2,3.33,1A14.06,14.06,0,0,0,21.11,0Z"/><path class="cls-3" d="M21.12,0c-1.53,2.67-3.39,5.59-5.5,2.14A4.34,4.34,0,0,0,13.41,0h-.88c-1.59.45-3,3.23-4.38,6.06-2.21,4.44-4.41,9-8.15,6v.16c1.4,1.1,2.63,1.21,3.81.45A4.69,4.69,0,0,0,4.6,12c1.33-1.32,2.46-3.62,3.57-5.87,2.23-4.49,4.41-8.86,7.44-3.93,1.08,1.77,2.17,2,3.31,1A13.86,13.86,0,0,0,21.16,0Z"/><path class="cls-3" d="M21.17,0c-1.52,2.65-3.36,5.5-5.44,2.06a4.73,4.73,0,0,0-2-2.06h-.27c.71.16,1.45.8,2.26,2.13,1.08,1.77,2.16,2,3.29,1A13.14,13.14,0,0,0,21.2,0Z"/><path class="cls-3" d="M12.48,0C11,.6,9.66,3.25,8.32,6,7.2,8.22,6.06,10.53,4.73,11.85S1.78,13.4,0,12v.16c1.46,1.16,2.73,1.28,3.94.5A5.22,5.22,0,0,0,4.73,12C6.08,10.62,7.22,8.3,8.34,6,9.77,3.16,11.16.36,12.77,0Z"/><path class="cls-3" d="M21.21,0c-1.5,2.63-3.32,5.43-5.38,2A5.06,5.06,0,0,0,14,0h-.2a4.46,4.46,0,0,1,2,2.06c1.07,1.77,2.15,2,3.27,1A13.22,13.22,0,0,0,21.25,0Z"/><path class="cls-3" d="M12.48,0c-1.43.7-2.7,3.25-4,5.85-1.13,2.28-2.28,4.62-3.64,6s-3,1.55-4.85,0V12c1.51,1.22,2.83,1.35,4.08.54a5.49,5.49,0,0,0,.78-.64c1.37-1.35,2.52-3.7,3.66-6C9.86,3.21,11.18.55,12.68,0Z"/><path class="cls-3" d="M12.53,0a2.39,2.39,0,0,0-.34.21c-1.25,1-2.36,3.18-3.53,5.54s-2.3,4.66-3.68,6-3.09,1.56-5,0v.16c1.57,1.27,2.93,1.41,4.21.58A5.49,5.49,0,0,0,5,11.86c1.39-1.36,2.55-3.73,3.7-6C10,3.22,11.24.67,12.66,0Z"/><path class="cls-3" d="M21.26,0C19.77,2.6,18,5.35,15.93,1.92A5.26,5.26,0,0,0,14.21,0h-.14a4.88,4.88,0,0,1,1.84,2C17,3.76,18,4,19.16,3A13,13,0,0,0,21.3,0Z"/><path class="cls-3" d="M12.54,0l-.21.14c-1.24.94-2.34,3.16-3.5,5.5s-2.32,4.72-3.72,6.08S2,13.29,0,11.66v.16c1.62,1.33,3,1.48,4.34.63a5.49,5.49,0,0,0,.78-.64c1.41-1.37,2.58-3.76,3.73-6.1,1.24-2.5,2.46-5,3.82-5.71Z"/><path class="cls-3" d="M21.31,0C19.83,2.58,18.05,5.27,16,1.85A5.39,5.39,0,0,0,14.44,0h-.13A5.12,5.12,0,0,1,16,1.91C17.06,3.69,18.13,4,19.24,3a12.3,12.3,0,0,0,2.1-3Z"/><path class="cls-3" d="M12.58,0l-.11.07C11.25,1,10.15,3.21,9,5.54S6.66,10.3,5.24,11.67C3.67,13.19,2,13.25,0,11.56v.16c1.8,1.48,3.24,1.46,4.48.66C6.27,11.21,7.68,8.32,9,5.61,10.21,3.19,11.39.81,12.69,0Z"/><path class="cls-3" d="M21.35,0c-1.46,2.56-3.23,5.19-5.23,1.78A5.55,5.55,0,0,0,14.64,0h-.1a5.39,5.39,0,0,1,1.57,1.84c1.05,1.78,2.1,2.06,3.21,1.08A12.38,12.38,0,0,0,21.39,0Z"/><path class="cls-3" d="M12.62,0h0C11.4.92,10.3,3.13,9.16,5.44S6.8,10.25,5.37,11.63c-1.6,1.53-3.31,1.59-5.37-.17v.15c1.86,1.56,3.35,1.55,4.61.72,1.81-1.18,3.23-4.09,4.57-6.82C10.36,3.12,11.47.88,12.66,0Z"/><path class="cls-3" d="M21.4,0C20,2.54,18.2,5.11,16.22,1.71A5.93,5.93,0,0,0,14.85,0h-.08a5.93,5.93,0,0,1,1.44,1.77c1,1.79,2.09,2.07,3.18,1.1a11.89,11.89,0,0,0,2-2.87Z"/><path class="cls-3" d="M21.45,0C20,2.51,18.28,5,16.31,1.64A6.14,6.14,0,0,0,15,0H15A6.26,6.26,0,0,1,16.3,1.7c1,1.79,2.08,2.08,3.17,1.12a11.75,11.75,0,0,0,2-2.82Z"/><path class="cls-3" d="M12.67,0C11.5.94,10.43,3.09,9.32,5.35S7,10.19,5.49,11.59C3.86,13.14,2.12,13.18,0,11.36v.16c1.92,1.61,3.45,1.61,4.74.76C6.57,11.09,8,8.16,9.34,5.41,10.49,3.09,11.56.92,12.72,0Z"/><path class="cls-3" d="M12.72,0C11.6,1,10.56,3.05,9.48,5.25c-2.3,4.66-4.83,10-9.48,6v.16c2,1.68,3.55,1.68,4.87.82C6.72,11,8.15,8.08,9.5,5.32,10.61,3.06,11.66,1,12.77,0Z"/><path class="cls-3" d="M21.49,0c-1.42,2.49-3.14,5-5.08,1.57A6.23,6.23,0,0,0,15.21,0h-.06A6.58,6.58,0,0,1,16.4,1.63c1,1.79,2.06,2.09,3.15,1.14a11.34,11.34,0,0,0,2-2.77Z"/><path class="cls-3" d="M12.78,0c-1.09,1-2.09,3-3.14,5.16-2.32,4.7-4.88,10.09-9.64,6v.16c2.05,1.75,3.66,1.76,5,.87C6.86,11,8.3,8,9.66,5.22,10.74,3,11.75,1,12.83,0Z"/><path class="cls-3" d="M21.54,0c-1.42,2.46-3.11,4.89-5,1.5A6.48,6.48,0,0,0,15.39,0h-.07a6.37,6.37,0,0,1,1.17,1.57c1,1.79,2.05,2.1,3.13,1.15A11,11,0,0,0,21.57,0Z"/><path class="cls-3" d="M12.84,0a20,20,0,0,0-3,5.07c-2.34,4.75-4.93,10.2-9.8,6v.16c2.11,1.82,3.76,1.83,5.13.93,1.88-1.23,3.32-4.23,4.69-7C10.86,3,11.85,1,12.9,0Z"/><path class="cls-3" d="M21.58,0c-1.4,2.44-3.08,4.81-5,1.44a6.88,6.88,0,0,0-1-1.44h-.07a6.4,6.4,0,0,1,1.09,1.5c1,1.8,2.05,2.11,3.12,1.17A11,11,0,0,0,21.62,0Z"/><path class="cls-3" d="M21.63,0c-1.39,2.42-3.05,4.74-4.94,1.37a6.64,6.64,0,0,0-1-1.37h-.06a7,7,0,0,1,1,1.43c1,1.8,2,2.12,3.09,1.2A11.07,11.07,0,0,0,21.66,0Z"/><path class="cls-3" d="M12.91,0a20.82,20.82,0,0,0-3,5C7.59,9.78,5,15.3,0,11v.16c2.18,1.89,3.86,1.9,5.26,1C7.15,10.86,8.6,7.84,10,5a20.91,20.91,0,0,1,3-5Z"/><path class="cls-3" d="M13,0A22.12,22.12,0,0,0,10.1,4.89c-2.37,4.84-5,10.44-10.1,6V11c2.24,2,4,2,5.39,1C7.29,10.8,8.75,7.77,10.12,5A21.43,21.43,0,0,1,13,0Z"/><path class="cls-3" d="M21.67,0c-1.38,2.4-3,4.67-4.89,1.31A7.06,7.06,0,0,0,15.88,0h-.06a7,7,0,0,1,.95,1.37c1,1.8,2,2.13,3.08,1.21A10.46,10.46,0,0,0,21.7,0Z"/><path class="cls-3" d="M13,0a23.32,23.32,0,0,0-2.76,4.8C7.86,9.69,5.2,15.35,0,10.76v.16C2.3,13,4.06,13,5.52,12,7.43,10.75,8.9,7.7,10.28,4.86A22.3,22.3,0,0,1,13.1,0Z"/><path class="cls-3" d="M21.72,0c-1.37,2.37-3,4.6-4.85,1.24A7.59,7.59,0,0,0,16,0H16a7.1,7.1,0,0,1,.89,1.3c1,1.81,2,2.14,3.06,1.23A10.26,10.26,0,0,0,21.75,0Z"/><path class="cls-3" d="M13.1,0a23.87,23.87,0,0,0-2.69,4.71C8,9.65,5.31,15.38,0,10.67v.15C2.37,12.93,4.17,13,5.64,12,7.58,10.7,9,7.63,10.43,4.78A22.87,22.87,0,0,1,13.17,0Z"/><path class="cls-3" d="M21.76,0c-1.35,2.35-3,4.52-4.8,1.18A7.8,7.8,0,0,0,16.19,0h-.07A7.18,7.18,0,0,1,17,1.24c1,1.81,2,2.15,3,1.25A9.94,9.94,0,0,0,21.79,0Z"/><path class="cls-3" d="M13.18,0a25.18,25.18,0,0,0-2.63,4.63C8.13,9.61,5.42,15.41,0,10.56v.16c2.26,2,4.1,2.31,5.76,1.21a6,6,0,0,0,.72-.57c1.61-1.49,2.87-4.13,4.09-6.67A23.38,23.38,0,0,1,13.25,0Z"/><path class="cls-3" d="M21.8,0c-1.34,2.33-2.93,4.45-4.75,1.12A7.26,7.26,0,0,0,16.33,0h-.06A7.32,7.32,0,0,1,17,1.18c1,1.81,2,2.15,3,1.26A9.75,9.75,0,0,0,21.84,0Z"/><path class="cls-3" d="M13.25,0A25.8,25.8,0,0,0,10.7,4.55C8.26,9.57,5.53,15.44,0,10.46v.16C2.31,12.71,4.2,13,5.89,11.89a5.91,5.91,0,0,0,.71-.57c1.62-1.5,2.89-4.16,4.12-6.71A24.68,24.68,0,0,1,13.32,0Z"/><path class="cls-3" d="M21.85,0c-1.33,2.3-2.91,4.38-4.71,1.06A8.56,8.56,0,0,0,16.47,0h0a8,8,0,0,1,.71,1.11c1,1.82,2,2.17,3,1.28A9.19,9.19,0,0,0,21.88,0Z"/><path class="cls-3" d="M13.33,0a25.79,25.79,0,0,0-2.48,4.47C9.61,7,8.34,9.7,6.71,11.19c-1.9,1.74-4,1.67-6.71-.82v.15C2.37,12.68,4.29,13,6,11.84a4.46,4.46,0,0,0,.71-.56c1.64-1.5,2.91-4.18,4.15-6.76A24.85,24.85,0,0,1,13.4,0Z"/><path class="cls-3" d="M21.89,0C20.57,2.28,19,4.31,17.23,1a8.4,8.4,0,0,0-.62-1h-.05a9.77,9.77,0,0,1,.66,1.05c1,1.82,2,2.18,3,1.3A9.46,9.46,0,0,0,21.92,0Z"/><path class="cls-3" d="M13.41,0A26.33,26.33,0,0,0,11,4.38C9.75,7,8.47,9.65,6.83,11.16,4.91,12.92,2.76,12.82,0,10.27v.15C2.43,12.64,4.39,13,6.14,11.8a6.64,6.64,0,0,0,.69-.55C8.49,9.73,9.77,7,11,4.44A26.53,26.53,0,0,1,13.47,0Z"/><path class="cls-3" d="M21.93,0c-1.3,2.26-2.85,4.24-4.61.94A10,10,0,0,0,16.75,0h-.06a8.21,8.21,0,0,1,.62,1c1,1.82,2,2.19,3,1.32A9.4,9.4,0,0,0,22,0Z"/><path class="cls-3" d="M13.49,0a28.47,28.47,0,0,0-2.36,4.31C9.89,6.9,8.61,9.61,7,11.12,5,12.9,2.81,12.79,0,10.18v.14c2.49,2.29,4.48,2.62,6.26,1.44A5.53,5.53,0,0,0,7,11.21c1.67-1.53,3-4.36,4.2-6.85A26.86,26.86,0,0,1,13.55,0Z"/><path class="cls-3" d="M22,0c-1.3,2.23-2.83,4.18-4.57.88A9.26,9.26,0,0,0,16.88,0h-.05a9.1,9.1,0,0,1,.56.93c1,1.83,1.94,2.19,3,1.33A9.19,9.19,0,0,0,22,0Z"/><path class="cls-3" d="M13.57,0a29.53,29.53,0,0,0-2.3,4.23c-1.19,2.49-2.53,5.34-4.21,6.86-1.94,1.76-4.21,1.63-7.06-1v.15c2.53,2.33,4.61,2.67,6.41,1.48a7.49,7.49,0,0,0,.66-.52c1.68-1.54,3-4.39,4.22-6.89A27.39,27.39,0,0,1,13.63,0Z"/><path class="cls-3" d="M22,0c-1.28,2.21-2.8,4.11-4.53.82A8.5,8.5,0,0,0,17,0H17c.17.25.34.54.52.87,1,1.83,1.93,2.2,2.94,1.35A8.87,8.87,0,0,0,22.05,0Z"/><path class="cls-3" d="M13.65,0a29.14,29.14,0,0,0-2.24,4.15c-1.19,2.51-2.54,5.37-4.23,6.9C5.22,12.83,2.9,12.69,0,10v.15c2.59,2.4,4.71,2.75,6.53,1.54a5.11,5.11,0,0,0,.65-.52c1.7-1.54,3.05-4.42,4.25-6.93A28.34,28.34,0,0,1,13.71,0Z"/><path class="cls-3" d="M22.06,0c-1.27,2.19-2.77,4-4.48.76-.15-.29-.3-.54-.44-.76h-.05a9.16,9.16,0,0,1,.48.81c.95,1.84,1.91,2.21,2.92,1.37A8.73,8.73,0,0,0,22.09,0Z"/><path class="cls-3" d="M13.73,0a28.36,28.36,0,0,0-2.18,4.08C10.35,6.6,9,9.48,7.29,11,5.31,12.81,3,12.65,0,9.88V10c2.65,2.46,4.8,2.83,6.65,1.6a6.05,6.05,0,0,0,.65-.51c1.71-1.56,3.07-4.45,4.27-7A27.94,27.94,0,0,1,13.79,0Z"/><path class="cls-3" d="M22.11,0c-1.27,2.16-2.75,4-4.45.7-.13-.26-.27-.49-.4-.7h0c.14.22.28.47.43.76,1,1.83,1.91,2.21,2.9,1.37A8.2,8.2,0,0,0,22.14,0Z"/><path class="cls-3" d="M13.81,0a30.2,30.2,0,0,0-2.12,4c-1.21,2.54-2.56,5.44-4.28,7C5.4,12.79,3,12.62,0,9.78v.14c2.7,2.53,4.9,2.91,6.77,1.66a4.93,4.93,0,0,0,.64-.51c1.73-1.56,3.09-4.47,4.29-7A30.88,30.88,0,0,1,13.86,0Z"/><path class="cls-3" d="M22.15,0c-1.25,2.14-2.73,3.91-4.4.65A6.55,6.55,0,0,0,17.38,0h0c.13.21.26.44.4.7.94,1.84,1.89,2.22,2.88,1.39A8.24,8.24,0,0,0,22.18,0Z"/><path class="cls-3" d="M13.89,0a30.49,30.49,0,0,0-2.07,3.93c-1.2,2.55-2.57,5.47-4.3,7a4.76,4.76,0,0,1-.63.5C5,12.71,2.76,12.3,0,9.68v.14c2.76,2.59,5,3,6.89,1.72a5.58,5.58,0,0,0,.64-.5c1.74-1.57,3.1-4.5,4.31-7.06A30.44,30.44,0,0,1,14,0Z"/><path class="cls-3" d="M22.19,0C21,2.12,19.49,3.84,17.83.59,17.72.38,17.61.18,17.5,0h0a7.32,7.32,0,0,1,.36.64c.94,1.84,1.89,2.24,2.87,1.41a7.92,7.92,0,0,0,1.53-2Z"/><path class="cls-3" d="M14,0a32.8,32.8,0,0,0-2,3.85c-1.2,2.57-2.57,5.51-4.31,7.07C5.58,12.76,3.13,12.56,0,9.58v.14c2.82,2.66,5.08,3.06,7,1.79a7.38,7.38,0,0,0,.64-.5C9.39,9.43,10.76,6.48,12,3.91A30.83,30.83,0,0,1,14,0Z"/><path class="cls-3" d="M22.23,0C21,2.09,19.56,3.78,17.91.53c-.09-.19-.19-.36-.29-.53h0c.11.18.21.37.32.59.94,1.84,1.88,2.24,2.86,1.42a7.79,7.79,0,0,0,1.5-2Z"/><path class="cls-3" d="M14.05,0a32.65,32.65,0,0,0-2,3.78C10.88,6.36,9.5,9.32,7.75,10.89,5.67,12.73,3.19,12.53,0,9.48v.14c2.87,2.73,5.18,3.14,7.12,1.85a4.93,4.93,0,0,0,.63-.5c1.77-1.58,3.14-4.55,4.35-7.13A32.74,32.74,0,0,1,14.1,0Z"/><path class="cls-3" d="M22.27,0C21.05,2.07,19.62,3.71,18,.48L17.74,0h0L18,.53c.93,1.85,1.86,2.25,2.83,1.44A7.49,7.49,0,0,0,22.3,0Z"/><path class="cls-3" d="M14.13,0a35,35,0,0,0-1.91,3.71C11,6.3,9.63,9.28,7.86,10.86,5.76,12.72,3.24,12.5,0,9.38v.14c2.93,2.79,5.27,3.22,7.24,1.91a6.73,6.73,0,0,0,.63-.49C9.64,9.35,11,6.37,12.23,3.77A35,35,0,0,1,14.18,0Z"/><path class="cls-3" d="M22.31,0c-1.2,2.05-2.62,3.65-4.23.43C18,.27,17.93.13,17.85,0h0c.09.15.17.3.26.48.92,1.84,1.85,2.25,2.82,1.45A7.36,7.36,0,0,0,22.34,0Z"/><path class="cls-3" d="M14.21,0a36.88,36.88,0,0,0-1.86,3.64C11.13,6.25,9.75,9.24,8,10.83,5.86,12.7,3.3,12.47,0,9.28v.14c3,2.86,5.36,3.3,7.35,2A7.13,7.13,0,0,0,8,10.91c1.79-1.6,3.17-4.6,4.38-7.21A33.9,33.9,0,0,1,14.26,0Z"/><path class="cls-3" d="M22.36,0c-1.2,2-2.61,3.59-4.2.37L18,0h0l.22.42C19.07,2.27,20,2.69,21,1.89A7.06,7.06,0,0,0,22.38,0Z"/><path class="cls-3" d="M22.4,0c-1.19,2-2.58,3.52-4.16.32,0-.11-.11-.22-.16-.32h0l.19.37c1.6,3.23,3,1.66,4.2-.37Z"/><path class="cls-3" d="M14.29,0a36.88,36.88,0,0,0-1.82,3.58C11.26,6.19,9.88,9.2,8.08,10.79,5.94,12.69,3.36,12.44,0,9.18v.14c3.05,2.93,5.45,3.38,7.47,2a6.48,6.48,0,0,0,.62-.48c1.8-1.61,3.18-4.63,4.4-7.25A37.82,37.82,0,0,1,14.33,0Z"/><path class="cls-3" d="M14.38,0A35.55,35.55,0,0,0,12.6,3.51C11.38,6.14,10,9.16,8.19,10.77,6,12.67,3.41,12.4,0,9.08v.14c3.1,3,5.55,3.47,7.58,2.1a5.33,5.33,0,0,0,.62-.47C10,9.23,11.4,6.2,12.62,3.56A36.61,36.61,0,0,1,14.41,0Z"/><path class="cls-3" d="M22.44,0c-1.18,2-2.56,3.46-4.12.27L18.18,0h0l.16.31c1.58,3.23,3,1.7,4.16-.31Z"/><path class="cls-3" d="M14.46,0a34.3,34.3,0,0,0-1.73,3.44c-1.23,2.65-2.61,5.69-4.43,7.3C6.12,12.65,3.47,12.37,0,9v.14c3.43,3.32,5.83,3.4,7.68,2.17,2.15-1.45,3.7-4.84,5.06-7.79A37.89,37.89,0,0,1,14.49,0Z"/><path class="cls-3" d="M22.48,0C21.31,2,20,3.4,18.4.21L18.29,0h0l.14.26C20,3.48,21.33,2,22.51,0Z"/><path class="cls-3" d="M14.54,0c-.56.94-1.12,2.14-1.69,3.38C11.63,6,10.24,9.09,8.41,10.71,6.22,12.64,3.53,12.35,0,8.88V9c3.49,3.4,5.93,3.49,7.8,2.24C10,9.81,11.5,6.4,12.87,3.43,13.46,2.14,14,.93,14.57,0Z"/><path class="cls-3" d="M22.52,0c-1.16,1.93-2.51,3.34-4,.16L18.39,0h0l.11.21C20,3.42,21.38,2,22.55,0Z"/><path class="cls-3" d="M14.62,0C14.08.92,13.53,2.1,13,3.31c-2.5,5.4-5.64,12.56-13,5.46v.15c3.56,3.48,6,3.57,7.91,2.31C10.08,9.77,11.62,6.35,13,3.37,13.57,2.1,14.12.92,14.65,0Z"/><path class="cls-3" d="M22.56,0c-1.15,1.91-2.49,3.28-4,.11L18.5,0h0l.09.16c1.53,3.2,2.88,1.78,4-.16Z"/><path class="cls-3" d="M22.6,0c-1.14,1.89-2.46,3.22-4,.06l0-.06h0a.54.54,0,0,1,.05.11c1.53,3.19,2.86,1.81,4-.11Z"/><path class="cls-3" d="M14.7,0c-.53.91-1.06,2.06-1.6,3.25C10.59,8.68,7.43,15.9,0,8.67v.15c3.62,3.55,6.12,3.65,8,2.38,2.18-1.47,3.72-4.91,5.09-7.9.56-1.23,1.1-2.39,1.62-3.3Z"/><path class="cls-3" d="M22.64,0c-1.13,1.86-2.44,3.16-3.93,0h0l0,.06c1.51,3.18,2.83,1.83,4-.06Z"/><path class="cls-3" d="M14.78,0c-.51.88-1,2-1.56,3.19C10.7,8.65,7.53,15.93,0,8.57v.14c3.68,3.64,6.21,3.74,8.13,2.46,2.18-1.47,3.73-4.93,5.1-7.93C13.78,2,14.3.9,14.81,0Z"/><path class="cls-3" d="M14.86,0c-.49.87-1,2-1.52,3.13C10.81,8.62,7.63,16,0,8.47v.14c3.75,3.72,6.3,3.82,8.24,2.53,2.19-1.48,3.74-4.95,5.11-8C13.89,2,14.39.89,14.89,0Z"/><path class="cls-3" d="M22.68,0c-1.12,1.83-2.41,3.09-3.88,0h0c1.49,3.16,2.8,1.86,3.92,0Z"/><path class="cls-3" d="M14.94,0c-.48.86-1,1.92-1.49,3.07C10.93,8.59,7.73,16,0,8.37v.14c3.81,3.79,6.4,3.91,8.35,2.6,2.2-1.48,3.75-5,5.12-8C14,2,14.49.88,15,0Z"/><path class="cls-3" d="M22.72,0c-1.1,1.8-2.37,3-3.82,0h0c1.47,3.1,2.76,1.84,3.87,0Z"/><path class="cls-3" d="M15,0c-.47.85-.94,1.89-1.45,3C11,8.56,7.83,16,0,8.27v.14c3.87,3.87,6.49,4,8.46,2.67,2.2-1.49,3.76-5,5.13-8,.5-1.13,1-2.2,1.46-3.06Z"/><path class="cls-3" d="M22.75,0C21.67,1.77,20.42,2.94,19,0h0c1.45,3,2.72,1.81,3.81,0Z"/><path class="cls-3" d="M15.09,0c-.45.84-.91,1.85-1.4,3C11.15,8.53,7.93,16,0,8.17v.14C3.61,11.93,6.36,12.52,8.58,11a5.9,5.9,0,0,0,.58-.44C11.06,8.92,12.47,5.74,13.7,3c.5-1.11,1-2.15,1.43-3Z"/><path class="cls-3" d="M22.79,0C21.73,1.74,20.5,2.87,19.1,0h0c1.42,3,2.67,1.77,3.75,0Z"/><path class="cls-3" d="M15.17,0c-.44.82-.89,1.82-1.37,2.89C11.26,8.5,8,16.06,0,8.07v.14C3.67,11.9,6.44,12.51,8.69,11c.19-.13.38-.28.57-.44,1.91-1.68,3.32-4.87,4.56-7.62.48-1.08.94-2.1,1.39-2.94Z"/><path class="cls-3" d="M22.83,0c-1,1.71-2.26,2.8-3.64,0h0c1.4,2.89,2.63,1.74,3.7,0Z"/><path class="cls-3" d="M15.25,0c-.43.82-.87,1.8-1.33,2.83-1.24,2.76-2.64,6-4.56,7.63a4.48,4.48,0,0,1-.57.43C6.53,12.4,3.72,11.77,0,8v.13C3.72,11.87,6.53,12.49,8.79,11a4.81,4.81,0,0,0,.57-.44c1.93-1.68,3.34-4.88,4.57-7.65.47-1,.92-2,1.36-2.88Z"/><path class="cls-3" d="M22.87,0c-1,1.67-2.23,2.73-3.58,0h0c1.38,2.82,2.59,1.71,3.64,0Z"/><path class="cls-3" d="M15.33,0c-.42.81-.85,1.77-1.3,2.77-1.23,2.78-2.64,6-4.57,7.66C7.09,12.48,4.09,12.05,0,7.88V8c3.78,3.83,6.62,4.46,8.9,2.93a5.57,5.57,0,0,0,.56-.43C11.4,8.82,12.81,5.6,14,2.82c.46-1,.9-2,1.33-2.82Z"/><path class="cls-3" d="M22.91,0c-1,1.64-2.2,2.67-3.53,0h0c1.35,2.75,2.54,1.68,3.57,0Z"/><path class="cls-3" d="M15.41,0c-.41.8-.83,1.73-1.27,2.72-1.23,2.78-2.64,6-4.58,7.69C7.17,12.47,4.14,12,0,7.78v.13c3.83,3.9,6.71,4.55,9,3a7,7,0,0,0,.56-.43c1.94-1.69,3.35-4.92,4.59-7.71.44-1,.87-2,1.29-2.77Z"/><path class="cls-3" d="M22.94,0c-1,1.61-2.16,2.61-3.46,0h0C20.78,2.69,22,1.65,23,0Z"/><path class="cls-3" d="M15.49,0c-.4.78-.81,1.7-1.24,2.66-1.23,2.8-2.64,6-4.59,7.72C7.25,12.45,4.2,12,0,7.68v.13c3.89,4,6.79,4.63,9.11,3.07a5.24,5.24,0,0,0,.56-.43c1.95-1.69,3.36-4.94,4.6-7.74.43-1,.85-1.92,1.25-2.71Z"/><path class="cls-3" d="M23,0c-1,1.58-2.12,2.54-3.41,0h0C20.85,2.62,22,1.62,23,0Z"/><path class="cls-3" d="M15.57,0c-.39.77-.79,1.67-1.21,2.61-1.23,2.8-2.64,6.06-4.6,7.75a4.22,4.22,0,0,1-.55.42C6.88,12.34,4,11.65,0,7.58v.13c4,4,6.88,4.71,9.21,3.15a5.57,5.57,0,0,0,.56-.43c2-1.7,3.37-5,4.61-7.77.42-1,.83-1.88,1.22-2.66Z"/><path class="cls-3" d="M23,0c-1,1.55-2.09,2.47-3.36,0h0c1.29,2.56,2.43,1.59,3.42,0Z"/><path class="cls-3" d="M15.65,0c-.39.76-.77,1.64-1.18,2.56-1.23,2.81-2.65,6.08-4.61,7.77C7.42,12.42,4.31,11.93,0,7.48v.13c4,4.11,7,4.8,9.32,3.22a6.88,6.88,0,0,0,.55-.43c2-1.7,3.38-5,4.61-7.8.42-.94.81-1.83,1.2-2.6Z"/><path class="cls-3" d="M23.06,0c-1,1.52-2.06,2.41-3.3,0h0c.64,1.27,1.24,1.65,1.8,1.52S22.6.77,23.08,0Z"/><path class="cls-3" d="M15.72,0c-.37.74-.75,1.6-1.14,2.5C13.34,5.33,11.93,8.61,10,10.31c-2.45,2.1-5.6,1.6-10-2.93v.13c4.06,4.18,7.05,4.88,9.42,3.29a6.7,6.7,0,0,0,.55-.42c2-1.71,3.39-5,4.62-7.83.4-.92.79-1.8,1.17-2.55Z"/><path class="cls-3" d="M23.09,0c-.94,1.49-2,2.35-3.24,0h0c1.24,2.43,2.34,1.52,3.3,0Z"/><path class="cls-3" d="M15.8,0c-.36.73-.73,1.57-1.11,2.45C13.45,5.29,12,8.58,10.06,10.29c-2.47,2.1-5.64,1.59-10.06-3v.13c4.11,4.25,7.13,5,9.52,3.36a4.26,4.26,0,0,0,.54-.41c2-1.72,3.4-5,4.64-7.86.39-.9.77-1.76,1.13-2.5Z"/><path class="cls-3" d="M23.13,0c-.93,1.46-2,2.29-3.19,0h0c.62,1.21,1.2,1.57,1.75,1.45s1-.71,1.5-1.45Z"/><path class="cls-3" d="M15.88,0c-.35.72-.71,1.54-1.09,2.4-1.23,2.85-2.65,6.16-4.63,7.86C7.67,12.38,4.47,11.85,0,7.18v.13c4.17,4.32,7.22,5.05,9.62,3.44a5.24,5.24,0,0,0,.54-.42c2-1.72,3.41-5,4.64-7.89.39-.87.75-1.71,1.11-2.44Z"/><path class="cls-3" d="M23.17,0c-.92,1.43-2,2.23-3.14,0h0c1.2,2.3,2.26,1.46,3.19,0Z"/><path class="cls-3" d="M16,0c-.34.71-.69,1.51-1,2.35-1.24,2.86-2.65,6.18-4.64,7.89C7.76,12.36,4.53,11.82,0,7.08v.13c4.22,4.39,7.3,5.14,9.72,3.51a6.42,6.42,0,0,0,.54-.41c2-1.72,3.41-5.05,4.65-7.92C15.28,1.54,15.64.72,16,0Z"/><path class="cls-3" d="M23.2,0c-.9,1.4-1.93,2.17-3.08,0h0c1.18,2.25,2.22,1.43,3.14,0Z"/><path class="cls-3" d="M16,0c-.33.69-.67,1.48-1,2.3-1.23,2.87-2.65,6.2-4.65,7.92C7.84,12.35,4.58,11.79,0,7V7.1c4.28,4.47,7.39,5.23,9.82,3.6.18-.13.36-.26.54-.41,2-1.73,3.42-5.07,4.65-7.95.36-.83.71-1.63,1-2.34Z"/><path class="cls-3" d="M23.24,0c-.89,1.37-1.9,2.11-3,0h0c1.15,2.19,2.18,1.4,3.08,0Z"/><path class="cls-3" d="M23.27,0c-.87,1.34-1.86,2.05-3,0h0c1.14,2.13,2.15,1.37,3,0Z"/><path class="cls-3" d="M16.11,0c-.33.68-.66,1.45-1,2.25-1.24,2.88-2.66,6.22-4.66,8C7.92,12.34,4.64,11.77,0,6.88V7c4.33,4.54,7.47,5.32,9.92,3.67a5,5,0,0,0,.53-.41c2-1.73,3.43-5.08,4.67-8,.35-.81.69-1.6,1-2.29Z"/><path class="cls-3" d="M16.18,0c-.31.67-.64,1.42-1,2.2-1.24,2.89-2.65,6.25-4.67,8C8,12.33,4.69,11.74,0,6.78V6.9c4.39,4.62,7.55,5.4,10,3.75.18-.13.35-.26.53-.41,2-1.74,3.43-5.1,4.67-8,.34-.79.67-1.56,1-2.24Z"/><path class="cls-3" d="M23.31,0c-.86,1.31-1.84,2-2.93,0h0c1.12,2.07,2.11,1.34,3,0Z"/><path class="cls-3" d="M23.34,0c-.84,1.28-1.8,1.94-2.87,0h0C21,1,21.52,1.35,22,1.25A2.59,2.59,0,0,0,23.37,0Z"/><path class="cls-3" d="M16.26,0c-.31.66-.63,1.39-1,2.15-1.23,2.9-2.65,6.27-4.67,8a6,6,0,0,1-.52.4C7.64,12.21,4.44,11.39,0,6.68V6.8c4.44,4.69,7.64,5.49,10.12,3.82a6,6,0,0,0,.52-.4c2-1.74,3.44-5.12,4.68-8,.33-.78.65-1.53,1-2.2Z"/><path class="cls-3" d="M16.33,0c-.3.64-.6,1.36-.92,2.11-1.23,2.9-2.65,6.29-4.68,8C8.17,12.3,4.8,11.68,0,6.58V6.7c4.49,4.76,7.72,5.57,10.21,3.9.18-.12.36-.26.53-.4,2-1.75,3.45-5.14,4.68-8,.32-.76.64-1.49.94-2.15Z"/><path class="cls-3" d="M23.38,0c-.84,1.25-1.77,1.88-2.83,0h0c1.07,2,2,1.28,2.88,0Z"/><path class="cls-3" d="M23.41,0c-.82,1.22-1.74,1.83-2.77,0h0c.54,1,1,1.28,1.52,1.19A2.49,2.49,0,0,0,23.44,0Z"/><path class="cls-3" d="M16.41,0c-.29.63-.59,1.33-.9,2.06-1.23,2.91-2.65,6.31-4.68,8C8.25,12.29,4.86,11.66,0,6.48V6.6c4.55,4.83,7.8,5.66,10.31,4l.52-.4c2-1.75,3.46-5.16,4.69-8.08.31-.74.62-1.46.92-2.1Z"/><path class="cls-3" d="M16.48,0c-.28.62-.57,1.3-.87,2C14.38,4.94,13,8.35,10.92,10.09a5.93,5.93,0,0,1-.51.4C7.88,12.17,4.6,11.31,0,6.38V6.5c4.6,4.9,7.88,5.75,10.41,4.05a5.93,5.93,0,0,0,.51-.4C13,8.4,14.39,5,15.62,2.05c.3-.72.6-1.42.89-2Z"/><path class="cls-3" d="M23.45,0c-.81,1.19-1.72,1.78-2.73,0h0c1,1.85,1.95,1.23,2.77,0Z"/><path class="cls-3" d="M16.55,0c-.27.6-.55,1.27-.84,2-1.24,2.93-2.65,6.35-4.7,8.1a3.83,3.83,0,0,1-.51.39C8,12.16,4.66,11.28,0,6.28V6.4c4.66,5,8,5.83,10.5,4.13a4.81,4.81,0,0,0,.52-.4C13.07,8.38,14.48,5,15.72,2c.29-.71.58-1.39.86-2Z"/><path class="cls-3" d="M23.48,0c-.79,1.16-1.68,1.73-2.68,0h0c1,1.79,1.92,1.2,2.73,0Z"/><path class="cls-3" d="M16.63,0c-.27.59-.54,1.24-.83,1.92-1.23,3-2.64,6.38-4.69,8.13l-.51.39c-2.55,1.7-5.89.81-10.6-4.26V6.3c4.71,5,8,5.92,10.6,4.21a5.93,5.93,0,0,0,.51-.4c2.05-1.76,3.47-5.2,4.7-8.15.29-.69.57-1.35.85-2Z"/><path class="cls-3" d="M23.52,0c-.78,1.13-1.66,1.67-2.63,0h0c1,1.74,1.89,1.17,2.68,0Z"/><path class="cls-3" d="M23.55,0C22.78,1.1,21.93,1.62,21,0h0c1,1.69,1.85,1.14,2.63,0Z"/><path class="cls-3" d="M16.7,0c-.26.58-.52,1.21-.8,1.88-1.23,3-2.65,6.4-4.7,8.15q-.25.21-.51.39C8.13,12.13,4.77,11.23,0,6.08V6.2c4.76,5.11,8.12,6,10.69,4.28a4.33,4.33,0,0,0,.51-.39c2.06-1.76,3.48-5.21,4.71-8.17.28-.68.55-1.33.82-1.92Z"/><path class="cls-3" d="M16.77,0c-.25.57-.51,1.19-.78,1.84-1.22,3-2.64,6.42-4.7,8.17a6.26,6.26,0,0,1-.51.39C8.21,12.12,4.82,11.2,0,6V6.1c4.82,5.19,8.2,6.09,10.78,4.36a4.6,4.6,0,0,0,.51-.39c2.07-1.76,3.48-5.23,4.71-8.2.28-.65.54-1.29.8-1.87Z"/><path class="cls-3" d="M23.58,0C22.83,1.07,22,1.57,21.06,0h0c1,1.63,1.81,1.11,2.58,0Z"/><path class="cls-3" d="M16.73,0c-.27.6-.54,1.26-.83,2-1.23,3-2.65,6.41-4.7,8.17C8.57,12.34,5.07,11.66,0,6.2v.12c4.76,5.1,8.12,6,10.69,4.25l.51-.39C13.26,8.41,14.68,5,15.91,2c.29-.7.57-1.38.85-2Z"/><path class="cls-3" d="M23.58,0c-.78,1.15-1.66,1.71-2.64,0h0c1,1.78,1.9,1.19,2.7,0Z"/><path class="cls-3" d="M16.69,0c-.28.63-.58,1.33-.89,2.07C14.57,5,13.16,8.46,11.11,10.23,8.49,12.45,5,11.79,0,6.43v.11c2.72,2.91,5,4.4,6.83,4.84a4.51,4.51,0,0,0,3.75-.68c.18-.13.36-.26.53-.41,2.05-1.77,3.47-5.22,4.7-8.18.31-.75.62-1.47.91-2.11Z"/><path class="cls-3" d="M23.58,0c-.81,1.23-1.73,1.85-2.76,0h0c1.05,1.92,2,1.26,2.81,0Z"/><path class="cls-3" d="M23.58,0c-.84,1.3-1.8,2-2.87,0h0c1.09,2.07,2.06,1.34,2.91,0Z"/><path class="cls-3" d="M16.65,0c-.3.66-.62,1.4-.94,2.19-1.24,2.95-2.65,6.38-4.7,8.15C8.4,12.56,5,11.92,0,6.65v.12c2.68,2.85,4.92,4.31,6.76,4.74a4.48,4.48,0,0,0,3.73-.7A6.31,6.31,0,0,0,11,10.4c2.05-1.78,3.46-5.22,4.7-8.17.33-.79.65-1.56,1-2.23Z"/><path class="cls-3" d="M16.61,0c-.32.69-.65,1.48-1,2.31C14.38,5.25,13,8.68,10.92,10.44,8.33,12.67,4.91,12.06,0,6.87V7c2.65,2.8,4.86,4.23,6.69,4.64a4.45,4.45,0,0,0,3.7-.71,5,5,0,0,0,.53-.41C13,8.73,14.38,5.3,15.62,2.35c.35-.84.69-1.65,1-2.35Z"/><path class="cls-3" d="M23.58,0c-.87,1.38-1.87,2.15-3,0h0c1.14,2.22,2.15,1.41,3,0Z"/><path class="cls-3" d="M16.57,0c-.34.72-.69,1.55-1.06,2.43-1.23,2.94-2.65,6.36-4.68,8.13a6.54,6.54,0,0,1-.52.4C7.8,12.68,4.55,11.88,0,7.1v.11C2.62,10,4.81,11.36,6.62,11.76A4.46,4.46,0,0,0,10.29,11c.19-.13.36-.27.54-.42,2-1.78,3.46-5.21,4.69-8.15.37-.89.73-1.74,1.08-2.47Z"/><path class="cls-3" d="M23.57,0c-.9,1.45-1.92,2.3-3.09,0h0c1.18,2.37,2.22,1.48,3.13,0Z"/><path class="cls-3" d="M16.54,0c-.37.75-.74,1.63-1.13,2.55-1.23,2.93-2.65,6.34-4.68,8.12C8.16,12.89,4.8,12.33,0,7.32v.11c2.59,2.7,4.75,4.08,6.55,4.46a4.44,4.44,0,0,0,3.65-.74q.27-.2.54-.42c2-1.78,3.45-5.2,4.68-8.14.4-.93.77-1.83,1.14-2.59Z"/><path class="cls-3" d="M23.57,0c-.93,1.52-2,2.45-3.2,0h0c1.23,2.52,2.31,1.56,3.25,0Z"/><path class="cls-3" d="M16.5,0c-.39.78-.78,1.71-1.19,2.68C14.08,5.6,12.66,9,10.64,10.78a6.21,6.21,0,0,1-.52.41C7.64,12.9,4.44,12.16,0,7.54v.12c2.55,2.64,4.7,4,6.48,4.36a4.45,4.45,0,0,0,3.62-.75,6.77,6.77,0,0,0,.54-.43c2-1.78,3.44-5.19,4.68-8.12.42-1,.82-1.93,1.21-2.72Z"/><path class="cls-3" d="M23.56,0c-.95,1.6-2,2.61-3.31,0h0c1.27,2.68,2.39,1.63,3.35,0Z"/><path class="cls-3" d="M16.46,0c-.4.81-.82,1.78-1.25,2.8C14,5.72,12.56,9.12,10.54,10.89,8,13.11,4.69,12.6,0,7.76v.12c2.52,2.6,4.64,3.92,6.4,4.27a4.43,4.43,0,0,0,3.6-.76,5.58,5.58,0,0,0,.55-.44c2-1.78,3.43-5.19,4.67-8.11.44-1,.86-2,1.27-2.84Z"/><path class="cls-3" d="M23.55,0c-1,1.67-2.11,2.77-3.41,0h0c1.31,2.84,2.46,1.7,3.46,0Z"/><path class="cls-3" d="M16.43,0c-.43.83-.87,1.85-1.32,2.93-1.24,2.91-2.66,6.3-4.66,8.08-.17.15-.35.29-.53.42C7.47,13.13,4.33,12.43,0,8V8.1c2.49,2.55,4.59,3.84,6.33,4.18a4.45,4.45,0,0,0,3.57-.77c.19-.14.37-.28.55-.44,2-1.79,3.43-5.18,4.67-8.1.46-1.09.9-2.13,1.34-3Z"/><path class="cls-3" d="M23.55,0c-1,1.74-2.18,2.93-3.52,0h0c1.37,3,2.55,1.77,3.57,0Z"/><path class="cls-3" d="M16.39,0c-.45.86-.91,1.93-1.39,3.06-1.23,2.9-2.65,6.28-4.65,8.06a5.25,5.25,0,0,1-.53.43c-2.43,1.7-5.54,1-9.82-3.34v.12c2.48,2.52,4.5,3.76,6.26,4.09a4.48,4.48,0,0,0,3.55-.8,6.61,6.61,0,0,0,.55-.44C12.36,9.39,13.78,6,15,3.1,15.5,2,16,.86,16.42,0Z"/><path class="cls-3" d="M23.54,0c-1,1.81-2.24,3.09-3.63,0h0c1.4,3.16,2.62,1.84,3.67,0Z"/><path class="cls-3" d="M23.53,0c-1.06,1.88-2.3,3.26-3.73,0h0l0,0c1.44,3.28,2.69,1.86,3.76,0Z"/><path class="cls-3" d="M16.36,0c-.47.88-.95,2-1.46,3.19-1.24,2.9-2.65,6.27-4.64,8.05C7.76,13.45,4.53,13,0,8.43v.12c2.44,2.47,4.45,3.68,6.19,4a4.49,4.49,0,0,0,3.52-.8c.18-.14.37-.29.55-.45,2-1.79,3.41-5.17,4.65-8.07C15.42,2,15.91.89,16.39,0Z"/><path class="cls-3" d="M16.32,0c-.49.9-1,2.07-1.53,3.32-1.23,2.89-2.65,6.25-4.63,8C7.67,13.57,4.47,13.16,0,8.66v.11c2.41,2.43,4.39,3.61,6.12,3.91a4.41,4.41,0,0,0,3.48-.81c.19-.14.38-.29.56-.45,2-1.8,3.41-5.17,4.64-8.06A36.62,36.62,0,0,1,16.36,0Z"/><path class="cls-3" d="M23.52,0c-1.07,1.92-2.34,3.4-3.79.11A.54.54,0,0,1,19.68,0h0a.91.91,0,0,1,.07.14c1.47,3.32,2.74,1.8,3.82-.14Z"/><path class="cls-3" d="M23.51,0c-1.09,2-2.37,3.54-3.85.21a2,2,0,0,1-.1-.21h0l.12.25C21.15,3.6,22.44,2,23.53,0Z"/><path class="cls-3" d="M16.29,0c-.51.92-1,2.14-1.6,3.45-1.24,2.89-2.65,6.24-4.63,8a7,7,0,0,1-.54.44C7.14,13.6,4.11,13,0,8.88V9c2.38,2.37,4.34,3.53,6,3.82A4.44,4.44,0,0,0,9.5,12a5.93,5.93,0,0,0,.56-.46c2-1.79,3.4-5.15,4.64-8A35.85,35.85,0,0,1,16.33,0Z"/><path class="cls-3" d="M16.27,0a35.26,35.26,0,0,0-1.69,3.58c-1.23,2.88-2.65,6.23-4.62,8C7.5,13.8,4.36,13.44,0,9.1v.12C2.35,11.55,4.28,12.68,6,13a4.39,4.39,0,0,0,3.43-.84,4.7,4.7,0,0,0,.56-.46c2-1.79,3.4-5.14,4.63-8A36.14,36.14,0,0,1,16.3,0Z"/><path class="cls-3" d="M23.5,0c-1.1,2-2.4,3.68-3.91.32L19.44,0h0a3,3,0,0,1,.17.36C21.1,3.74,22.41,2,23.52,0Z"/><path class="cls-3" d="M16.24,0a34,34,0,0,0-1.77,3.72c-1.23,2.87-2.65,6.21-4.61,8a5.36,5.36,0,0,1-.54.45C7,13.84,4,13.28,0,9.33v.11c2.31,2.28,4.22,3.39,5.9,3.65a4.45,4.45,0,0,0,3.4-.85c.19-.14.38-.3.57-.47,2-1.79,3.38-5.13,4.61-8A33,33,0,0,1,16.27,0Z"/><path class="cls-3" d="M23.49,0c-1.12,2.06-2.44,3.82-4,.43-.07-.16-.14-.3-.21-.43h0c.08.14.15.3.23.46,1.55,3.42,2.88,1.62,4-.46Z"/><path class="cls-3" d="M16.21,0a33.58,33.58,0,0,0-1.85,3.85c-1.23,2.87-2.64,6.2-4.6,8a5.83,5.83,0,0,1-.55.46C6.88,14,4,13.42,0,9.55v.11C2.28,11.9,4.17,13,5.82,13.22a4.37,4.37,0,0,0,3.38-.86,5.9,5.9,0,0,0,.57-.47c2-1.79,3.37-5.13,4.6-8A31.1,31.1,0,0,1,16.25,0Z"/><path class="cls-3" d="M23.48,0c-1.13,2.1-2.48,4-4,.54q-.14-.3-.27-.54h0c.1.17.19.36.29.57C21,4,22.36,2.12,23.5,0Z"/><path class="cls-3" d="M23.47,0C22.32,2.14,21,4.1,19.38.65L19.05,0h0c.11.2.23.43.35.68,1.6,3.48,3,1.48,4.12-.68Z"/><path class="cls-3" d="M16.19,0a31.24,31.24,0,0,0-1.94,4C13,6.85,11.61,10.17,9.66,12,7.25,14.15,4.2,13.86,0,9.77v.11c2.25,2.19,4.11,3.24,5.75,3.48a4.42,4.42,0,0,0,3.34-.87A6.28,6.28,0,0,0,9.67,12c1.95-1.8,3.36-5.12,4.6-8a28.24,28.24,0,0,1,2-4Z"/><path class="cls-3" d="M23.46,0C22.3,2.18,20.91,4.24,19.3.76A7.59,7.59,0,0,0,18.91,0h0c.13.23.27.49.42.79,1.62,3.51,3,1.41,4.18-.79Z"/><path class="cls-3" d="M16.18,0a28.86,28.86,0,0,0-2,4.13c-1.23,2.85-2.64,6.16-4.58,8-.18.17-.37.32-.55.46C6.71,14.2,3.84,13.71,0,10v.11c2.21,2.14,4.06,3.16,5.67,3.39A4.42,4.42,0,0,0,9,12.62a6.13,6.13,0,0,0,.58-.48c1.94-1.8,3.35-5.11,4.58-8A27.88,27.88,0,0,1,16.21,0Z"/><path class="cls-3" d="M16.16,0A26.73,26.73,0,0,0,14,4.27c-1.23,2.85-2.64,6.14-4.57,7.93-2.38,2.19-5.37,1.94-9.46-2v.11c2.18,2.09,4,3.1,5.6,3.31a4.42,4.42,0,0,0,3.28-.89,6.55,6.55,0,0,0,.58-.49c1.94-1.8,3.35-5.1,4.58-7.95A25.52,25.52,0,0,1,16.2,0Z"/><path class="cls-3" d="M23.45,0c-1.18,2.22-2.58,4.38-4.22.87A8.38,8.38,0,0,0,18.76,0h0a6.8,6.8,0,0,1,.49.91c1.65,3.53,3.07,1.33,4.25-.91Z"/><path class="cls-3" d="M16.16,0a24,24,0,0,0-2.24,4.41c-1.23,2.84-2.64,6.13-4.56,7.92C7,14.51,4,14.28,0,10.44v.11c2.15,2,3.94,3,5.53,3.22a4.37,4.37,0,0,0,3.25-.89c.19-.15.39-.31.58-.49,1.93-1.8,3.34-5.09,4.57-7.94A24.1,24.1,0,0,1,16.19,0Z"/><path class="cls-3" d="M23.44,0c-1.2,2.26-2.62,4.52-4.28,1a8.38,8.38,0,0,0-.55-1h0a7,7,0,0,1,.57,1c1.68,3.56,3.11,1.26,4.31-1Z"/><path class="cls-3" d="M16.16,0A22,22,0,0,0,13.8,4.56c-1.23,2.83-2.64,6.11-4.54,7.89C6.91,14.63,4,14.43,0,10.67v.1c2.12,2,3.89,3,5.45,3.15A4.4,4.4,0,0,0,8.67,13a6.66,6.66,0,0,0,.59-.49c1.91-1.8,3.32-5.09,4.56-7.92A22.26,22.26,0,0,1,16.19,0Z"/><path class="cls-3" d="M23.42,0c-1.2,2.3-2.65,4.66-4.34,1.1A6.31,6.31,0,0,0,18.45,0h0a6.47,6.47,0,0,1,.67,1.13c1.7,3.59,3.15,1.18,4.36-1.13Z"/><path class="cls-3" d="M16.17,0a20.31,20.31,0,0,0-2.48,4.7C11.15,10.47,7.93,18.19,0,10.88V11C2.08,13,3.83,13.88,5.38,14.05a4.3,4.3,0,0,0,3.18-.91,6.62,6.62,0,0,0,.6-.5c1.9-1.8,3.31-5.07,4.54-7.9A20.49,20.49,0,0,1,16.2,0Z"/><path class="cls-3" d="M23.41,0C22.19,2.33,20.72,4.8,19,1.21A6.1,6.1,0,0,0,18.28,0h0A5.83,5.83,0,0,1,19,1.25c1.73,3.61,3.21,1.1,4.43-1.25Z"/><path class="cls-3" d="M16.19,0a18.21,18.21,0,0,0-2.62,4.85C11,10.59,7.83,18.27,0,11.1v.12c2.05,1.91,3.77,2.82,5.3,3a4.41,4.41,0,0,0,3.16-.92,5.51,5.51,0,0,0,.59-.51c1.9-1.8,3.3-5.06,4.53-7.88A18.85,18.85,0,0,1,16.21,0Z"/><path class="cls-3" d="M23.4,0c-1.23,2.37-2.72,4.94-4.46,1.33A5.48,5.48,0,0,0,18.1,0h0a5.72,5.72,0,0,1,.87,1.36C20.68,5,22.18,2.38,23.42,0Z"/><path class="cls-3" d="M16.22,0h0c-.91.83-1.77,2.76-2.74,5C10.93,10.71,7.73,18.35,0,11.32v.12c3.81,3.5,6.4,3.42,8.35,2,2.2-1.64,3.75-5.24,5.12-8.37,1-2.24,1.86-4.24,2.78-5Z"/><path class="cls-3" d="M23.39,0c-1.25,2.4-2.76,5.09-4.53,1.44A5,5,0,0,0,17.9,0h0a4.93,4.93,0,0,1,1,1.48c1.78,3.67,3.3.93,4.56-1.48Z"/><path class="cls-3" d="M23.38,0c-1.27,2.43-2.8,5.23-4.59,1.56A4.67,4.67,0,0,0,17.68,0h0a4.59,4.59,0,0,1,1.14,1.6c1.81,3.69,3.35.84,4.61-1.6Z"/><path class="cls-3" d="M16.27,0,16.1.14c-.92.83-1.78,2.77-2.76,5C10.82,10.84,7.63,18.43,0,11.54v.12C3.75,15.08,6.3,15,8.24,13.55,10.43,11.9,12,8.31,13.35,5.19c1-2.37,2-4.49,3-5.19Z"/><path class="cls-3" d="M23.36,0c-1.27,2.46-2.83,5.38-4.65,1.68A3.79,3.79,0,0,0,17.41,0h-.05A3.78,3.78,0,0,1,18.7,1.72c.49,1,1,1.53,1.45,1.7a1.19,1.19,0,0,0,1.25-.36,11.56,11.56,0,0,0,2-3.06Z"/><path class="cls-3" d="M16.36,0A1.69,1.69,0,0,0,16,.27c-.93.84-1.79,2.78-2.78,5C10.7,11,7.53,18.51,0,11.77v.11c3.68,3.34,6.21,3.24,8.13,1.8,2.18-1.65,3.73-5.23,5.1-8.34C14.35,2.8,15.35.55,16.4,0Z"/><path class="cls-3" d="M16.57,0a1.52,1.52,0,0,0-.67.39c-.93.85-1.81,2.81-2.8,5.07C10.59,11.1,7.43,18.59,0,12v.12c3.62,3.25,6.12,3.14,8,1.71,2.17-1.65,3.72-5.22,5.09-8.33C14.37,2.64,15.48.15,16.68,0Z"/><path class="cls-3" d="M23.35,0c-1.29,2.49-2.87,5.52-4.72,1.8A3.55,3.55,0,0,0,17.25.08,1,1,0,0,0,17,0H16.9c.55.06,1.11.61,1.72,1.84.49,1,1,1.52,1.46,1.69a1.21,1.21,0,0,0,1.26-.37,12.31,12.31,0,0,0,2-3.16Z"/><path class="cls-3" d="M23.34,0C22,2.52,20.43,5.67,18.55,1.92A3.56,3.56,0,0,0,17.16.2,1.16,1.16,0,0,0,15.8.52c-.94.86-1.86,2.92-2.82,5.09-1.23,2.78-2.62,6-4.46,7.76a5.6,5.6,0,0,1-.6.51C5.82,15.47,3.27,15.17,0,12.22v.11C3.56,15.5,6,15.38,7.91,14c2.16-1.64,3.71-5.2,5.08-8.3C14.9,1.32,16.47-2.17,18.55,2c.49,1,1,1.52,1.46,1.68a1.24,1.24,0,0,0,1.27-.38A12.91,12.91,0,0,0,23.36,0Z"/><path class="cls-3" d="M23.33,0l0,0C22,2.57,20.37,5.8,18.48,2A3.57,3.57,0,0,0,17.07.32a1.18,1.18,0,0,0-1.38.33c-.94.86-1.87,2.94-2.84,5.12-1.22,2.77-2.61,6-4.44,7.73a7,7,0,0,1-.6.52C5.73,15.6,3.22,15.32,0,12.45v.1c3.49,3.09,5.93,3,7.8,1.54C10,12.44,11.5,8.9,12.86,5.81,14.79,1.45,16.37-2,18.47,2.08c.49,1,1,1.51,1.47,1.67a1.24,1.24,0,0,0,1.27-.39,12.94,12.94,0,0,0,2.1-3.3l0-.06Z"/><path class="cls-3" d="M23.31,0l0,.11c-1.33,2.55-3,5.8-4.86,2.06A3.72,3.72,0,0,0,17,.44a1.22,1.22,0,0,0-1.39.34c-1,.87-1.89,3-2.86,5.15-1.22,2.76-2.61,5.93-4.43,7.71-2.18,2.12-4.83,2.1-8.3-1v.11a8.32,8.32,0,0,0,4.77,2.43,4.26,4.26,0,0,0,2.91-1,7.74,7.74,0,0,0,.63-.55c1.82-1.79,3.21-5,4.43-7.73,1.94-4.38,3.53-7.91,5.65-3.76.49,1,1,1.5,1.48,1.66a1.29,1.29,0,0,0,1.28-.41A13.28,13.28,0,0,0,23.26.14L23.33,0Z"/><path class="cls-3" d="M23.3,0l-.09.18c-1.34,2.57-3,5.84-4.89,2.11A3.59,3.59,0,0,0,16.88.57a1.22,1.22,0,0,0-1.4.35c-1,.87-1.9,3-2.88,5.17C11.38,8.84,10,12,8.19,13.78,6,15.89,3.41,15.88,0,12.89V13a8.06,8.06,0,0,0,4.69,2.35,4.24,4.24,0,0,0,2.88-1,7.74,7.74,0,0,0,.63-.55c1.81-1.79,3.19-5,4.41-7.71,2-4.41,3.56-7.95,5.7-3.8.5,1,1,1.5,1.48,1.65a1.29,1.29,0,0,0,1.29-.42A13.52,13.52,0,0,0,23.21.21L23.32,0Z"/><path class="cls-3" d="M23.29,0l-.14.26c-1.34,2.58-3,5.88-4.91,2.16A3.6,3.6,0,0,0,16.79.7a1.22,1.22,0,0,0-1.41.35c-1,.89-1.92,3-2.9,5.2-1.22,2.74-2.6,5.89-4.4,7.67C5.94,16,3.36,16,0,13.12v.1A7.79,7.79,0,0,0,4.61,15.5a4.29,4.29,0,0,0,2.84-1c.21-.17.43-.36.64-.56,1.8-1.79,3.18-4.94,4.4-7.69,2-4.43,3.58-8,5.74-3.83.5,1,1,1.48,1.49,1.63A1.32,1.32,0,0,0,21,3.66,14,14,0,0,0,23.16.29L23.31,0Z"/><path class="cls-3" d="M23.27,0,23.1.34c-1.35,2.6-3,5.91-4.94,2.21A3.65,3.65,0,0,0,16.7.82a1.26,1.26,0,0,0-1.43.37c-1,.89-1.93,3-2.92,5.23C11.13,9.15,9.75,12.28,8,14.06c-2.11,2.09-4.67,2.12-8-.72v.1a7.59,7.59,0,0,0,4.54,2.21,4.17,4.17,0,0,0,2.79-1A4.82,4.82,0,0,0,8,14.11c1.78-1.78,3.16-4.92,4.38-7.65,1.9-4.28,3.61-8,5.79-3.88.5,1,1,1.48,1.5,1.63A1.35,1.35,0,0,0,21,3.76,13.83,13.83,0,0,0,23.1.37L23.29,0Z"/><path class="cls-3" d="M23.26,0l-.21.42c-1.36,2.61-3,5.94-5,2.25A3.68,3.68,0,0,0,16.6,1a1.29,1.29,0,0,0-1.44.37c-1,.91-1.94,3-2.94,5.27C11,9.31,9.63,12.43,7.86,14.2a7.88,7.88,0,0,1-.62.55c-2,1.51-4.31,1.32-7.24-1.19v.11A7.44,7.44,0,0,0,4.46,15.8a4.17,4.17,0,0,0,2.76-1,8.29,8.29,0,0,0,.65-.57C9.64,12.48,11,9.35,12.23,6.62c1.92-4.29,3.63-8.08,5.84-3.91.5,1,1,1.47,1.51,1.62a1.37,1.37,0,0,0,1.31-.47A13.89,13.89,0,0,0,23.05.44L23.28,0Z"/><path class="cls-3" d="M23.25,0,23,.49c-1.36,2.64-3,6-5,2.31a3.65,3.65,0,0,0-1.5-1.72,1.32,1.32,0,0,0-1.45.38c-1,.91-2,3-3,5.29-1.21,2.71-2.58,5.82-4.34,7.59C5.67,16.42,3.19,16.48,0,13.78v.11A7.23,7.23,0,0,0,4.38,16,4.17,4.17,0,0,0,7.1,15a6.93,6.93,0,0,0,.65-.58c1.77-1.78,3.14-4.89,4.35-7.61C14,2.47,15.76-1.34,18,2.84c.51,1,1,1.47,1.51,1.6A1.36,1.36,0,0,0,20.82,4,14.13,14.13,0,0,0,23,.52L23.27,0Z"/><path class="cls-3" d="M23.24,0l-.3.57c-1.37,2.65-3.06,6-5,2.36a3.65,3.65,0,0,0-1.5-1.72,1.35,1.35,0,0,0-1.47.39c-1,.92-2,3.06-3,5.32-1.21,2.71-2.58,5.8-4.32,7.56C5.58,16.55,3.13,16.63,0,14v.1a7.07,7.07,0,0,0,4.3,2,4.18,4.18,0,0,0,2.68-1,6,6,0,0,0,.66-.59C9.39,12.77,10.76,9.67,12,7c1.94-4.34,3.68-8.17,5.94-4,.51.95,1,1.46,1.52,1.59a1.4,1.4,0,0,0,1.33-.49A14.28,14.28,0,0,0,22.94.6c.11-.2.21-.41.32-.6Z"/><path class="cls-3" d="M26.06,0a5.34,5.34,0,0,0,.31.82v0a5.6,5.6,0,0,1-.3-.79Z"/><path class="cls-3" d="M23.23,0c-.12.21-.23.43-.35.65-1.38,2.67-3.07,6.07-5.05,2.41a3.63,3.63,0,0,0-1.52-1.71,1.35,1.35,0,0,0-1.48.39c-1,.93-2,3.09-3,5.36-1.2,2.69-2.57,5.77-4.3,7.53-2,2-4.45,2.15-7.52-.4v.1a6.89,6.89,0,0,0,4.23,1.92,4.13,4.13,0,0,0,2.64-1,7,7,0,0,0,.66-.59c1.73-1.77,3.1-4.86,4.3-7.55,2-4.38,3.71-8.22,6-4,.52.95,1,1.45,1.53,1.58a1.42,1.42,0,0,0,1.34-.5,14.73,14.73,0,0,0,2.2-3.5L23.24,0Z"/><path class="cls-3" d="M26,0a5,5,0,0,0,.36.93v0A6.05,6.05,0,0,1,26,0Z"/><path class="cls-3" d="M23.21,0l-.38.74c-1.39,2.67-3.09,6.1-5.08,2.46a3.63,3.63,0,0,0-1.54-1.72,1.36,1.36,0,0,0-1.49.41c-1,.93-2,3.1-3,5.38C10.49,10,9.13,13,7.41,14.77,5.4,16.82,3,16.94,0,14.45v.1A6.71,6.71,0,0,0,4.15,16.4a4.18,4.18,0,0,0,2.6-1,7.33,7.33,0,0,0,.66-.61C9.14,13.07,10.5,10,11.7,7.31c2-4.39,3.74-8.27,6-4.07.51.94,1,1.44,1.54,1.56a1.46,1.46,0,0,0,1.34-.51A14.66,14.66,0,0,0,22.83.76l.4-.76Z"/><path class="cls-3" d="M26,0a4.9,4.9,0,0,0,.41,1V1A4.81,4.81,0,0,1,26,0Z"/><path class="cls-3" d="M25.91,0a4.47,4.47,0,0,0,.46,1.15v0A4.69,4.69,0,0,1,25.91,0Z"/><path class="cls-3" d="M23.2,0l-.43.82C21.38,3.51,19.66,7,17.66,3.33a3.56,3.56,0,0,0-1.55-1.71,1.37,1.37,0,0,0-1.5.41c-1,1-2,3.12-3.06,5.42C10.35,10.12,9,13.17,7.3,14.92c-2,2-4.34,2.17-7.3-.25v.11a6.51,6.51,0,0,0,4.07,1.78,4.15,4.15,0,0,0,2.56-1A7.4,7.4,0,0,0,7.3,15c1.71-1.76,3.06-4.82,4.26-7.49,2-4.42,3.77-8.32,6.09-4.12.52.94,1,1.44,1.55,1.55a1.46,1.46,0,0,0,1.35-.53A14.76,14.76,0,0,0,22.78.85c.15-.3.29-.58.44-.85Z"/><path class="cls-3" d="M23.19,0l-.47.9c-1.4,2.71-3.13,6.18-5.14,2.57A3.58,3.58,0,0,0,16,1.76a1.39,1.39,0,0,0-1.52.42c-1,.95-2,3.14-3.08,5.45-1.19,2.66-2.54,5.69-4.23,7.44-2,2-4.28,2.17-7.18-.17V15a6.33,6.33,0,0,0,4,1.71,4.09,4.09,0,0,0,2.52-1,7.69,7.69,0,0,0,.67-.62c1.7-1.76,3.05-4.8,4.25-7.46,2-4.45,3.78-8.37,6.14-4.17.52.94,1,1.44,1.56,1.55a1.51,1.51,0,0,0,1.36-.55A15.32,15.32,0,0,0,22.72.93c.17-.32.33-.64.49-.93Z"/><path class="cls-3" d="M25.86,0a4.11,4.11,0,0,0,.51,1.24v0A4.17,4.17,0,0,1,25.86,0Z"/><path class="cls-3" d="M23.18,0c-.17.31-.34.64-.52,1C21.25,3.71,19.51,7.2,17.49,3.6,15.1-.63,13.3,3.32,11.28,7.81c-1.2,2.65-2.54,5.67-4.22,7.41-1.94,2-4.22,2.17-7.06-.1v.1a6.25,6.25,0,0,0,3.91,1.65,4.08,4.08,0,0,0,2.48-1,7.64,7.64,0,0,0,.68-.62c1.68-1.75,3-4.78,4.22-7.43,2-4.48,3.81-8.42,6.19-4.21.53.94,1,1.42,1.57,1.53a1.53,1.53,0,0,0,1.37-.56A15.24,15.24,0,0,0,22.66,1c.19-.35.36-.69.54-1Z"/><path class="cls-3" d="M25.8,0a4.21,4.21,0,0,0,.57,1.34v0A4,4,0,0,1,25.81,0Z"/><path class="cls-3" d="M23.17,0c-.19.33-.37.7-.56,1.06-1.42,2.75-3.17,6.26-5.21,2.68C15-.5,13.17,3.48,11.13,8,9.89,10.76,8.61,13.63,7,15.37c-1.95,2-4.14,2.21-6.95,0v.1A6,6,0,0,0,3.83,17a4,4,0,0,0,2.43-1A5.71,5.71,0,0,0,7,15.43c1.67-1.75,3-4.63,4.2-7.4,2-4.5,3.84-8.47,6.25-4.25.52.93,1,1.41,1.57,1.52a1.58,1.58,0,0,0,1.38-.58,15.83,15.83,0,0,0,2.26-3.63c.2-.38.39-.75.58-1.09Z"/><path class="cls-3" d="M25.75,0a3.76,3.76,0,0,0,.62,1.43v0A3.82,3.82,0,0,1,25.76,0Z"/><path class="cls-3" d="M23.16,0c-.2.36-.4.75-.61,1.15-1.43,2.76-3.19,6.3-5.23,2.73C14.88-.36,13.05,3.64,11,8.18c-1.24,2.75-2.51,5.61-4.16,7.34-1.92,2-4.07,2.22-6.83.05v.09a5.84,5.84,0,0,0,3.75,1.52,4,4,0,0,0,2.39-1,6.8,6.8,0,0,0,.69-.64C8.49,13.84,9.76,11,11,8.22c2-4.53,3.87-8.53,6.3-4.3.53.92,1.05,1.41,1.58,1.5a1.62,1.62,0,0,0,1.39-.58,16.18,16.18,0,0,0,2.27-3.66c.21-.41.42-.82.63-1.18Z"/><path class="cls-3" d="M25.71,0h0a3.66,3.66,0,0,0,.67,1.52v0A3.35,3.35,0,0,1,25.71,0Z"/><path class="cls-3" d="M25.67,0V0h0s0,0,0,0a3.23,3.23,0,0,0,.71,1.56v0C26.17,1.44,25.94,1,25.67,0Z"/><path class="cls-3" d="M23.15,0c-.22.38-.44.8-.66,1.23C21.06,4,19.29,7.58,17.23,4c-2.47-4.25-4.31-.22-6.38,4.35C9.61,11.11,8.34,14,6.71,15.68c-1.89,2-4,2.21-6.71.11v.1a5.67,5.67,0,0,0,3.67,1.45,4,4,0,0,0,2.35-1,6.92,6.92,0,0,0,.7-.65c1.63-1.73,2.9-4.58,4.14-7.32,2.06-4.56,3.9-8.58,6.36-4.35.54.92,1.06,1.4,1.6,1.49A1.62,1.62,0,0,0,20.21,5,16.35,16.35,0,0,0,22.5,1.26c.22-.44.45-.87.67-1.26Z"/><path class="cls-3" d="M23.14,0c-.23.4-.47.86-.71,1.32C21,4.12,19.21,7.7,17.14,4.17,14.64-.09,12.79,4,10.7,8.56c-1.23,2.72-2.49,5.55-4.11,7.27-1.87,2-3.95,2.22-6.59.18v.1a5.5,5.5,0,0,0,3.59,1.38,4,4,0,0,0,2.3-.94,6.18,6.18,0,0,0,.71-.66c1.62-1.73,2.89-4.56,4.12-7.29C12.79,4,14.64,0,17.13,4.2c.54.92,1.07,1.39,1.61,1.48a1.64,1.64,0,0,0,1.39-.62,16.06,16.06,0,0,0,2.31-3.71c.24-.48.48-.94.72-1.35Z"/><path class="cls-3" d="M25.63.09s0-.06,0-.09h0l0,.11c.27,1,.52,1.46.74,1.56v0C26.16,1.54,25.92,1.1,25.63.09Z"/><path class="cls-3" d="M23.13,0c-.25.42-.5.91-.75,1.41-1.46,2.81-3.25,6.42-5.33,2.9C14.53,0,12.66,4.12,10.56,8.75,8.13,14.09,5.42,20.28,0,16.22v.11a5.32,5.32,0,0,0,3.51,1.32,3.87,3.87,0,0,0,2.26-.94A6.24,6.24,0,0,0,6.48,16c1.6-1.71,2.86-4.53,4.09-7.25C12.66,4.17,14.53.1,17,4.35c.54.91,1.07,1.38,1.62,1.46a1.66,1.66,0,0,0,1.4-.63,16.52,16.52,0,0,0,2.32-3.75c.26-.51.52-1,.77-1.43Z"/><path class="cls-3" d="M25.6.15s0-.1-.05-.15h0l.06.17c.28,1,.54,1.51.77,1.57v0C26.16,1.66,25.91,1.22,25.6.15Z"/><path class="cls-3" d="M23.12,0c-.26.45-.53,1-.8,1.49C20.86,4.33,19.05,8,17,4.45,14.41.18,12.52,4.29,10.41,9,8,14.24,5.31,20.37,0,16.45v.1a5.1,5.1,0,0,0,3.43,1.26,3.91,3.91,0,0,0,2.21-.93,7.5,7.5,0,0,0,.72-.68C8,14.49,9.2,11.69,10.42,9c2.11-4.65,4-8.75,6.53-4.5.55.91,1.08,1.37,1.63,1.45A1.72,1.72,0,0,0,20,5.29a16.92,16.92,0,0,0,2.33-3.77C22.6,1,22.87.45,23.14,0Z"/><path class="cls-3" d="M25.57.21A1.72,1.72,0,0,1,25.5,0h0a1.68,1.68,0,0,1,.07.24c.3,1,.57,1.54.81,1.56v0C26.15,1.76,25.89,1.33,25.57.21Z"/><path class="cls-3" d="M25.53.28c0-.1-.06-.19-.08-.28h0l.09.3c.31,1.08.59,1.58.84,1.56v0C26.14,1.86,25.87,1.45,25.53.28Z"/><path class="cls-3" d="M23.11,0c-.27.47-.56,1-.85,1.58-1.47,2.85-3.29,6.51-5.39,3-1.09-1.81-2.18-2.26-3.34-1.19s-2.18,3.33-3.27,5.74C7.87,14.4,5.21,20.47,0,16.67v.1c2.3,1.69,4.06,1.45,5.52.28,1.91-1.55,3.38-4.82,4.75-7.86,2.13-4.68,4-8.81,6.59-4.55.55.91,1.08,1.36,1.63,1.43a1.73,1.73,0,0,0,1.43-.66,16.81,16.81,0,0,0,2.34-3.8c.3-.58.59-1.14.87-1.61Z"/><path class="cls-3" d="M23.11,0c-.3.49-.6,1.07-.91,1.67-1.48,2.87-3.31,6.55-5.42,3.08-1.1-1.81-2.21-2.26-3.38-1.18s-2.19,3.35-3.29,5.78C7.73,14.56,5.1,20.56,0,16.89V17c2.24,1.63,4,1.38,5.39.23,1.9-1.55,3.36-4.8,4.73-7.83,2.14-4.71,4-8.87,6.65-4.6.55.9,1.09,1.35,1.64,1.42a1.78,1.78,0,0,0,1.43-.68A16.73,16.73,0,0,0,22.2,1.7c.32-.62.63-1.21.93-1.7Z"/><path class="cls-3" d="M25.5.34c0-.12-.07-.23-.11-.34h0q.06.17.12.36c.32,1.13.61,1.62.87,1.54v0C26.13,2,25.85,1.56,25.5.34Z"/><path class="cls-3" d="M23.1,0c-.31.5-.63,1.12-1,1.76-1.49,2.89-3.33,6.6-5.45,3.14-1.11-1.81-2.23-2.26-3.42-1.16S11.06,7.11,10,9.55C7.6,14.73,5,20.66,0,17.11v.1c2.18,1.56,3.86,1.31,5.26.17C7.15,15.85,8.6,12.61,10,9.59,12.12,4.85,14,.66,16.68,4.94c.55.89,1.09,1.34,1.65,1.4a1.78,1.78,0,0,0,1.44-.69,17.58,17.58,0,0,0,2.37-3.86c.34-.66.67-1.28,1-1.79Z"/><path class="cls-3" d="M25.46.41A4,4,0,0,0,25.33,0h0c.05.13.09.27.14.43.34,1.16.64,1.65.91,1.52v0C26.13,2,25.83,1.68,25.46.41Z"/><path class="cls-3" d="M23.09,0c-.32.52-.66,1.17-1,1.85-1.5,2.9-3.35,6.64-5.49,3.2C15.47,3.24,14.34,2.8,13.14,3.9S10.91,7.31,9.8,9.76c-2.34,5.13-4.92,11-9.8,7.58v.09c2.11,1.49,3.76,1.24,5.13.12C7,16,8.45,12.8,9.81,9.8,12,5,13.92.8,16.59,5.09c.55.89,1.1,1.33,1.66,1.39a1.87,1.87,0,0,0,1.45-.71,17.84,17.84,0,0,0,2.38-3.89c.36-.69.7-1.35,1-1.88Z"/><path class="cls-3" d="M25.43.47c-.05-.17-.1-.33-.15-.47h0c.06.15.11.31.17.5.35,1.2.66,1.67.94,1.49V2C26.12,2.13,25.81,1.79,25.43.47Z"/><path class="cls-3" d="M23.09,0c-.34.54-.7,1.23-1.07,1.94-1.5,2.92-3.37,6.69-5.52,3.26C15.36,3.39,14.22,3,13,4.07S10.77,7.5,9.64,10s-2.4,5.32-3.9,7c-1.68,1.87-3.51,2.18-5.74.6v.09c2.05,1.43,3.66,1.18,5,.08C6.86,16.2,8.3,13,9.66,10,11.85,5.2,13.79,1,16.49,5.24c.56.89,1.11,1.33,1.67,1.38a1.9,1.9,0,0,0,1.46-.73A18.12,18.12,0,0,0,22,2c.38-.73.74-1.43,1.09-2Z"/><path class="cls-3" d="M25.39.54A5,5,0,0,0,25.22,0h0a5.22,5.22,0,0,1,.19.56c.37,1.25.69,1.71,1,1.46V2C26.11,2.21,25.8,1.91,25.39.54Z"/><path class="cls-3" d="M23.08,0c-.36.56-.73,1.28-1.12,2C20.45,5,18.57,8.77,16.41,5.35c-1.15-1.81-2.31-2.24-3.53-1.11S10.61,7.7,9.49,10.18,7.1,15.47,5.62,17.12C4,19,2.18,19.3,0,17.78v.1c2,1.36,3.55,1.1,4.87,0,1.84-1.51,3.28-4.7,4.63-7.68,2.2-4.84,4.16-9.12,6.9-4.83.56.89,1.11,1.32,1.68,1.36A1.89,1.89,0,0,0,19.55,6,18.39,18.39,0,0,0,22,2.06c.4-.77.78-1.5,1.15-2.06Z"/><path class="cls-3" d="M25.36.61c-.07-.23-.14-.43-.21-.61h0c.07.18.15.39.22.63.38,1.29.71,1.73,1,1.42V2C26.1,2.3,25.78,2,25.36.61Z"/><path class="cls-3" d="M9.33,10.4C8.15,13,7,15.65,5.49,17.29,3.87,19.12,2.12,19.46,0,18v.09c1.8,1.22,3.32,1.15,4.74,0a7.48,7.48,0,0,0,.76-.74C7,15.69,8.16,13,9.34,10.44,10.59,7.69,11.76,5.13,13,4.18c-.09.07-.19.14-.29.23C11.55,5.52,10.46,7.9,9.33,10.4Z"/><path class="cls-3" d="M23.08,0A24.21,24.21,0,0,0,21.9,2.12c-1.53,3-3.41,6.79-5.59,3.39-.84-1.31-1.68-1.9-2.55-1.69.78-.18,1.62.29,2.54,1.73.57.88,1.12,1.31,1.69,1.34a1.92,1.92,0,0,0,1.48-.76,18.42,18.42,0,0,0,2.43-4A22.07,22.07,0,0,1,23.11,0Z"/><path class="cls-3" d="M25.33.67C25.25.42,25.17.2,25.09,0h0q.12.3.24.69c.44,1.48.77,1.71,1.05,1.38V2C26.1,2.38,25.76,2.14,25.33.67Z"/><path class="cls-3" d="M9.16,10.62C8,13.19,6.81,15.83,5.37,17.46c-1.6,1.81-3.31,2.16-5.37.77v.09c1.74,1.17,3.22,1.09,4.61-.05a7.63,7.63,0,0,0,.76-.75C6.82,15.87,8,13.23,9.18,10.65s2.3-5,3.5-6.12c0,0,0,0-.07.06C11.4,5.71,10.31,8.1,9.16,10.62Z"/><path class="cls-3" d="M23.08,0a21.34,21.34,0,0,0-1.24,2.22c-1.54,3-3.44,6.83-5.62,3.45-.79-1.22-1.57-1.8-2.38-1.72.73-.07,1.51.44,2.37,1.76.57.87,1.12,1.3,1.7,1.33a2,2,0,0,0,1.48-.78,19,19,0,0,0,2.45-4A19.86,19.86,0,0,1,23.11,0Z"/><path class="cls-3" d="M25.29.74A6.27,6.27,0,0,0,25,0h0a5.38,5.38,0,0,1,.28.76c.45,1.53.8,1.72,1.08,1.32v0C26.09,2.45,25.74,2.26,25.29.74Z"/><path class="cls-3" d="M23.08,0a21.61,21.61,0,0,0-1.31,2.31c-1.54,3-3.45,6.88-5.65,3.51C14.93,4,13.73,3.59,12.47,4.76S10.15,8.31,9,10.84a29.62,29.62,0,0,1-3.76,6.79C3.67,19.42,2,19.78,0,18.45v.1a3.42,3.42,0,0,0,4.47-.1,7.89,7.89,0,0,0,.78-.76A29.87,29.87,0,0,0,9,10.87c2.16-4.73,4.26-9.33,7.1-5,.57.88,1.13,1.3,1.71,1.32a2,2,0,0,0,1.49-.79,19.59,19.59,0,0,0,2.47-4A18.9,18.9,0,0,1,23.11,0Z"/><path class="cls-3" d="M25.25.81A5.69,5.69,0,0,0,25,0h0a6.9,6.9,0,0,1,.3.83c.47,1.58.83,1.72,1.12,1.27v0C26.08,2.52,25.72,2.38,25.25.81Z"/><path class="cls-3" d="M25.22.88A6.11,6.11,0,0,0,24.89,0h0a6.66,6.66,0,0,1,.34.9c.49,1.63.85,1.72,1.15,1.2v0C26.07,2.59,25.71,2.5,25.22.88Z"/><path class="cls-3" d="M23.08,0a21.29,21.29,0,0,0-1.37,2.41C20.16,5.43,18.24,9.33,16,6c-1.21-1.82-2.42-2.23-3.69-1S10,8.52,8.83,11.06A29.55,29.55,0,0,1,5.11,17.8C3.57,19.58,2,20,0,18.67v.1a3.32,3.32,0,0,0,4.34-.14,7,7,0,0,0,.78-.77A30,30,0,0,0,8.85,11.1C11,6.32,13.13,1.69,16,6c.58.87,1.14,1.29,1.72,1.3a2,2,0,0,0,1.51-.81,19.33,19.33,0,0,0,2.47-4.08A20.61,20.61,0,0,1,23.11,0Z"/><path class="cls-3" d="M23.09,0a19,19,0,0,0-1.44,2.5c-1.56,3-3.5,7-5.73,3.65-1.22-1.83-2.44-2.23-3.73-1S9.83,8.73,8.67,11.29A30.52,30.52,0,0,1,5,18c-1.51,1.75-3.1,2.13-5,.91V19a3.26,3.26,0,0,0,4.21-.17A7.17,7.17,0,0,0,5,18a30.12,30.12,0,0,0,3.69-6.71C10.87,6.52,13,1.85,15.91,6.19c.58.86,1.15,1.27,1.74,1.28a2.1,2.1,0,0,0,1.51-.83,19.88,19.88,0,0,0,2.49-4.11A18.62,18.62,0,0,1,23.11,0Z"/><path class="cls-3" d="M25.18.94A6.09,6.09,0,0,0,24.83,0h0a5.37,5.37,0,0,1,.37,1c.51,1.68.88,1.71,1.19,1.13v0C26.06,2.66,25.69,2.62,25.18.94Z"/><path class="cls-3" d="M25.15,1a5.72,5.72,0,0,0-.4-1h0a5.09,5.09,0,0,1,.41,1c.53,1.74.91,1.71,1.23,1.06v0C26.06,2.72,25.67,2.75,25.15,1Z"/><path class="cls-3" d="M23.09,0a18.45,18.45,0,0,0-1.5,2.6c-1.57,3.06-3.53,7-5.77,3.71-1.23-1.83-2.47-2.23-3.77-1S9.67,8.94,8.5,11.52a30.72,30.72,0,0,1-3.64,6.64c-1.48,1.72-3,2.11-4.86.95v.1A3.17,3.17,0,0,0,4.08,19a6.5,6.5,0,0,0,.78-.79,29.8,29.8,0,0,0,3.65-6.65c2.2-4.85,4.35-9.56,7.3-5.21.59.86,1.16,1.26,1.75,1.27a2.13,2.13,0,0,0,1.52-.85,20.45,20.45,0,0,0,2.51-4.14A16.72,16.72,0,0,1,23.12,0Z"/><path class="cls-3" d="M25.11,1.08A5.89,5.89,0,0,0,24.68,0h0a5.58,5.58,0,0,1,.45,1.1c.54,1.79.94,1.7,1.26,1v0C26.05,2.78,25.65,2.87,25.11,1.08Z"/><path class="cls-3" d="M23.1,0a16.65,16.65,0,0,0-1.58,2.7C19.94,5.78,18,9.77,15.72,6.47c-1.25-1.83-2.5-2.22-3.82-1S9.5,9.16,8.33,11.76a30.74,30.74,0,0,1-3.6,6.57C3.28,20,1.78,20.44,0,19.34v.09a3.07,3.07,0,0,0,3.94-.24,6,6,0,0,0,.79-.8,29.75,29.75,0,0,0,3.61-6.6c2.22-4.88,4.38-9.63,7.37-5.28.59.86,1.17,1.26,1.76,1.26A2.24,2.24,0,0,0,19,6.9a20.56,20.56,0,0,0,2.53-4.18A16,16,0,0,1,23.13,0Z"/><path class="cls-3" d="M23.11,0a16,16,0,0,0-1.65,2.8c-1.59,3.1-3.57,7.12-5.84,3.84-3-4.38-5.22.42-7.47,5.35A30.28,30.28,0,0,1,4.6,18.51c-1.41,1.68-2.88,2.09-4.6,1v.09a3,3,0,0,0,3.81-.27,7.64,7.64,0,0,0,.79-.81A30.71,30.71,0,0,0,8.17,12c2.23-4.93,4.41-9.71,7.44-5.35.59.85,1.17,1.24,1.77,1.24A2.26,2.26,0,0,0,18.92,7a20.68,20.68,0,0,0,2.54-4.21A15.12,15.12,0,0,1,23.14,0Z"/><path class="cls-3" d="M25.08,1.15A5.45,5.45,0,0,0,24.6,0h0a5,5,0,0,1,.49,1.17,3.87,3.87,0,0,0,.6,1.34.26.26,0,0,0,.46,0,1.43,1.43,0,0,0,.24-.43V2C26,2.83,25.64,3,25.08,1.15Z"/><path class="cls-3" d="M23.12,0a15.38,15.38,0,0,0-1.73,2.89C19.79,6,17.8,10.07,15.52,6.81c-3.09-4.39-5.28.45-7.54,5.43a30.76,30.76,0,0,1-3.51,6.45C3.09,20.35,1.66,20.77,0,19.78v.09a2.92,2.92,0,0,0,3.67-.3,6.25,6.25,0,0,0,.8-.82A30.39,30.39,0,0,0,8,12.27c2.25-5,4.44-9.79,7.52-5.42.6.85,1.18,1.23,1.78,1.22a2.32,2.32,0,0,0,1.55-.9A21.53,21.53,0,0,0,21.4,2.92,14.42,14.42,0,0,1,23.16,0Z"/><path class="cls-3" d="M25,1.22A4.78,4.78,0,0,0,24.51,0h0A4.61,4.61,0,0,1,25,1.24a3.9,3.9,0,0,0,.59,1.34.28.28,0,0,0,.47,0,1.6,1.6,0,0,0,.27-.51V2C26,2.88,25.62,3.11,25,1.22Z"/><path class="cls-3" d="M23.14,0a14.26,14.26,0,0,0-1.81,3c-1.61,3.15-3.62,7.23-5.91,4-3.13-4.4-5.35.48-7.62,5.5a30.79,30.79,0,0,1-3.47,6.4C3,20.5,1.6,20.93,0,20v.09a2.84,2.84,0,0,0,3.54-.33,7,7,0,0,0,.8-.82,30.78,30.78,0,0,0,3.47-6.42c2.27-5,4.48-9.88,7.6-5.5.6.84,1.18,1.22,1.79,1.2a2.35,2.35,0,0,0,1.56-.92A21.83,21.83,0,0,0,21.33,3a13,13,0,0,1,1.85-3Z"/><path class="cls-3" d="M25,1.29A4.68,4.68,0,0,0,24.43,0h0A4,4,0,0,1,25,1.31a3.61,3.61,0,0,0,.6,1.33.27.27,0,0,0,.47,0,1.78,1.78,0,0,0,.3-.59V2C26,2.92,25.6,3.24,25,1.29Z"/><path class="cls-3" d="M23.17,0a13,13,0,0,0-1.91,3.1c-1.62,3.16-3.64,7.27-6,4.05-3.17-4.41-5.4.52-7.69,5.58C5.5,17.41,3.41,22.11,0,20.22v.09A2.76,2.76,0,0,0,3.4,20a6.54,6.54,0,0,0,.81-.84,31.06,31.06,0,0,0,3.42-6.35c2.29-5.06,4.51-10,7.67-5.58.61.84,1.2,1.22,1.8,1.19a2.39,2.39,0,0,0,1.57-.94,21.28,21.28,0,0,0,2.59-4.32A12.38,12.38,0,0,1,23.21,0Z"/><path class="cls-3" d="M25,1.36A4,4,0,0,0,24.33,0h0A3.83,3.83,0,0,1,25,1.38a3.79,3.79,0,0,0,.6,1.33c.17.17.32.16.48,0A2.26,2.26,0,0,0,26.37,2V2C26,3,25.58,3.36,25,1.36Z"/><path class="cls-3" d="M23.2,0a12.11,12.11,0,0,0-2,3.2c-1.72,3.35-3.67,7.33-6,4.12-1.34-1.84-2.67-2.2-4.06-.87S8.65,10.3,7.44,13C5.35,17.6,3.3,22.22,0,20.44v.08a2.68,2.68,0,0,0,3.27-.36C4.84,18.82,6.14,15.92,7.45,13,9.75,7.93,12,3,15.2,7.36c.6.84,1.2,1.21,1.81,1.17a2.42,2.42,0,0,0,1.58-.95A22.35,22.35,0,0,0,21.2,3.23,11.18,11.18,0,0,1,23.25,0Z"/><path class="cls-3" d="M24.93,1.44A3.81,3.81,0,0,0,24.23,0h0a3.63,3.63,0,0,1,.73,1.46,3.63,3.63,0,0,0,.6,1.32c.16.17.32.15.47,0A2.47,2.47,0,0,0,26.37,2v0C26,3,25.56,3.48,24.93,1.44Z"/><path class="cls-3" d="M7.25,13.24c-2,4.55-4.07,9.09-7.25,7.42v.09a2.6,2.6,0,0,0,3.13-.4C4.68,19,6,16.16,7.27,13.27s2.58-5.72,4-6.88a3.56,3.56,0,0,0-.31.26C9.63,8,8.47,10.53,7.25,13.24Z"/><path class="cls-3" d="M24.89,1.51A3.44,3.44,0,0,0,24.12,0h-.05a3,3,0,0,1,.82,1.53,3.64,3.64,0,0,0,.6,1.31.28.28,0,0,0,.48,0,2.8,2.8,0,0,0,.4-.88v0C26,3,25.55,3.61,24.89,1.51Z"/><path class="cls-3" d="M23.24,0h0a11.29,11.29,0,0,0-2.1,3.29c-1.73,3.38-3.69,7.39-6,4.2-1-1.36-2-1.91-3-1.56.92-.31,1.91.1,3,1.6.61.83,1.21,1.19,1.83,1.15a2.44,2.44,0,0,0,1.59-1,23.16,23.16,0,0,0,2.62-4.38C21.91,1.81,22.63.43,23.3,0Z"/><path class="cls-3" d="M0,20.87V21a2.5,2.5,0,0,0,3-.41c1.53-1.3,2.8-4.15,4.09-7C8.24,11,9.39,8.4,10.66,7c-1.3,1.38-2.48,4-3.6,6.46C5.05,18,3.07,22.44,0,20.87Z"/><path class="cls-3" d="M12.28,6.05a2.28,2.28,0,0,0-1.18.57A2.43,2.43,0,0,1,12.28,6.05Z"/><path class="cls-3" d="M23.3,0l-.12.08A11.5,11.5,0,0,0,21.06,3.4C19.33,6.8,17.35,10.84,15,7.68c-.91-1.22-1.81-1.78-2.72-1.63C13.11,5.93,14,6.4,15,7.72c.61.82,1.21,1.18,1.83,1.13a2.52,2.52,0,0,0,1.6-1,22.75,22.75,0,0,0,2.64-4.42C21.9,1.8,22.67.32,23.38,0Z"/><path class="cls-3" d="M24.85,1.58A3.38,3.38,0,0,0,24.07.06L24,0h-.06c.33.17.64.66.93,1.6a3.52,3.52,0,0,0,.61,1.31c.16.17.32.15.48,0a3.15,3.15,0,0,0,.43-1v0C26,3.06,25.53,3.73,24.85,1.58Z"/><path class="cls-3" d="M24.82,1.65A3.47,3.47,0,0,0,24,.13.85.85,0,0,0,23.8,0h-.38a1.15,1.15,0,0,0-.29.15A11.65,11.65,0,0,0,21,3.51c-1.74,3.42-3.73,7.49-6.1,4.35-.85-1.13-1.7-1.7-2.56-1.65.79,0,1.63.47,2.55,1.69.62.82,1.22,1.17,1.85,1.11a2.61,2.61,0,0,0,1.61-1A24.34,24.34,0,0,0,21,3.54c1.46-2.87,2.74-5.27,3.81-1.87A3.52,3.52,0,0,0,25.42,3c.17.17.33.15.49,0a3.5,3.5,0,0,0,.46-1.08v0C26,3.09,25.51,3.86,24.82,1.65Z"/><path class="cls-3" d="M0,21.09v.09a2.42,2.42,0,0,0,2.85-.43c1.51-1.28,2.77-4.11,4-6.95a30.88,30.88,0,0,1,3.36-6.29,28.94,28.94,0,0,0-3.37,6.26C4.9,18.17,3,22.54,0,21.09Z"/><path class="cls-3" d="M10.45,7.29l.22-.23a2.66,2.66,0,0,1,1.66-.85A2.77,2.77,0,0,0,10.45,7.29Z"/><path class="cls-3" d="M0,21.31v.09A2.35,2.35,0,0,0,2.72,21c1.48-1.26,2.72-4.06,4-6.88A34.7,34.7,0,0,1,9.85,8a32.87,32.87,0,0,0-3.17,6C4.74,18.37,2.85,22.65,0,21.31Z"/><path class="cls-3" d="M26.37,1.78C26,3.15,25.5,4,24.78,1.72A3.41,3.41,0,0,0,24,.2a.66.66,0,0,0-.9,0,11.57,11.57,0,0,0-2.16,3.39C19.17,7.06,17.16,11.17,14.78,8a3.58,3.58,0,0,0-2.25-1.62,3.74,3.74,0,0,1,2.24,1.66,2.17,2.17,0,0,0,1.86,1.1,2.71,2.71,0,0,0,1.62-1,23.89,23.89,0,0,0,2.68-4.5C22.4.75,23.7-1.67,24.78,1.75a3.53,3.53,0,0,0,.61,1.3c.17.16.32.14.48-.06a3.83,3.83,0,0,0,.5-1.18Z"/><path class="cls-3" d="M10,7.8c.16-.19.32-.37.48-.53a2.6,2.6,0,0,1,1.83-.87A3,3,0,0,0,10,7.8Z"/><path class="cls-3" d="M26.37,1.74c-.42,1.43-.89,2.39-1.63.06a3.4,3.4,0,0,0-.8-1.53A.68.68,0,0,0,23,.3a11.59,11.59,0,0,0-2.17,3.42c-1.77,3.47-3.79,7.61-6.19,4.5-1.43-1.86-2.86-2.17-4.33-.74s-2.66,4.17-3.85,6.83a31.71,31.71,0,0,1-3.09,5.9C2.3,21.63,1.21,22.1,0,21.53v.09a2.27,2.27,0,0,0,2.58-.47c1.45-1.24,2.68-4,3.93-6.8C8.78,9.26,11.2,3.8,14.66,8.26c.63.81,1.24,1.15,1.87,1.08a2.65,2.65,0,0,0,1.63-1.06,23.69,23.69,0,0,0,2.7-4.53C22.35.83,23.65-1.6,24.74,1.82a3.53,3.53,0,0,0,.61,1.3c.17.16.33.14.49-.06a4.59,4.59,0,0,0,.53-1.3Z"/><path class="cls-3" d="M26.37,1.68c-.43,1.5-.91,2.57-1.67.19A3.3,3.3,0,0,0,23.89.34a.68.68,0,0,0-.91,0,11.86,11.86,0,0,0-2.19,3.45C19,7.33,17,11.49,14.56,8.41c-1.45-1.87-2.9-2.17-4.39-.71s-2.68,4.21-3.88,6.89a31.52,31.52,0,0,1-3,5.82c-1,1.39-2.1,1.86-3.26,1.34v.09a2.18,2.18,0,0,0,2.44-.47,6.14,6.14,0,0,0,.83-.9,31.85,31.85,0,0,0,3-5.85C8.6,9.49,11,4,14.55,8.45a2.15,2.15,0,0,0,1.88,1.06,2.81,2.81,0,0,0,1.65-1.08,24.62,24.62,0,0,0,2.71-4.57c1.5-2.95,2.81-5.4,3.91-2a3.2,3.2,0,0,0,.62,1.3c.17.16.33.13.49-.07a4.92,4.92,0,0,0,.56-1.41Z"/><path class="cls-3" d="M26.37,1.63c-.44,1.57-.93,2.75-1.71.32A3.34,3.34,0,0,0,23.85.41a.68.68,0,0,0-.92.05,11.59,11.59,0,0,0-2.21,3.48c-1.8,3.52-3.84,7.72-6.27,4.65C13,6.73,11.51,6.43,10,7.91s-2.71,4.27-3.9,7a31.93,31.93,0,0,1-3,5.74C2.11,22,1.1,22.44,0,22v.09a2.11,2.11,0,0,0,2.3-.48,5.33,5.33,0,0,0,.83-.91,31.55,31.55,0,0,0,3-5.76c2.3-5.18,4.76-10.76,8.33-6.28a2.09,2.09,0,0,0,1.89,1A2.82,2.82,0,0,0,18,8.58,25.39,25.39,0,0,0,20.72,4c1.51-3,2.84-5.45,3.94-2a3.35,3.35,0,0,0,.62,1.29c.17.16.33.13.49-.08a5.17,5.17,0,0,0,.6-1.52Z"/><path class="cls-3" d="M26.37,1.58c-.45,1.62-.95,2.92-1.74.44A3.32,3.32,0,0,0,23.8.49a.68.68,0,0,0-.93,0,12.24,12.24,0,0,0-2.22,3.52c-1.81,3.55-3.87,7.78-6.31,4.73-3.65-4.51-6.12,1.14-8.45,6.39A32,32,0,0,1,3,20.82c-1,1.31-1.94,1.79-3,1.37v.08a2,2,0,0,0,2.16-.48A5.9,5.9,0,0,0,3,20.87,32.57,32.57,0,0,0,5.91,15.2C8.23,10,10.69,4.33,14.33,8.82c.64.79,1.26,1.12,1.9,1A2.84,2.84,0,0,0,17.9,8.73a25.25,25.25,0,0,0,2.75-4.65c1.52-3,2.86-5.5,4-2a3.5,3.5,0,0,0,.62,1.29c.17.16.34.13.5-.08a5.8,5.8,0,0,0,.63-1.65Z"/><path class="cls-3" d="M26.37,1.52c-.46,1.69-1,3.11-1.78.58A3.37,3.37,0,0,0,23.76.56a.71.71,0,0,0-.94,0,12.09,12.09,0,0,0-2.24,3.55C18.76,7.73,16.68,12,14.22,9,10.52,4.45,8,10.16,5.69,15.46A32,32,0,0,1,2.85,21C1.91,22.3,1,22.78,0,22.41v.08A2,2,0,0,0,2,22a5.45,5.45,0,0,0,.83-.92,32.42,32.42,0,0,0,2.85-5.59C8,10.2,10.52,4.51,14.21,9a2.14,2.14,0,0,0,1.92,1,3,3,0,0,0,1.68-1.14,26,26,0,0,0,2.77-4.69c1.54-3,2.88-5.54,4-2.07a3.18,3.18,0,0,0,.63,1.28c.17.16.33.13.5-.09a6.45,6.45,0,0,0,.66-1.76Z"/><path class="cls-3" d="M26.37,1.46c-.48,1.75-1,3.29-1.82.71A3.27,3.27,0,0,0,23.71.63a.7.7,0,0,0-.94.06A12.35,12.35,0,0,0,20.5,4.27c-1.82,3.6-3.91,7.9-6.39,4.89-3.77-4.54-6.27,1.24-8.63,6.6a31.79,31.79,0,0,1-2.77,5.47C1.81,22.47.94,23,0,22.62v.08a1.86,1.86,0,0,0,1.89-.48,5.27,5.27,0,0,0,.83-.94A32,32,0,0,0,5.5,15.79c2.35-5.34,4.84-11.11,8.6-6.59a2.07,2.07,0,0,0,1.93,1A3,3,0,0,0,17.72,9,27.08,27.08,0,0,0,20.51,4.3c1.55-3.06,2.9-5.59,4-2.11a3.32,3.32,0,0,0,.63,1.29c.17.15.34.11.5-.1a6.74,6.74,0,0,0,.7-1.89Z"/><path class="cls-3" d="M0,22.84v.08a1.8,1.8,0,0,0,1.76-.48,5.35,5.35,0,0,0,.82-1A32.41,32.41,0,0,0,5.29,16.1a33.2,33.2,0,0,1,3.5-6.72,31.07,31.07,0,0,0-3.51,6.69C3.57,20,2.06,23.48,0,22.84Z"/><path class="cls-3" d="M26.37,1.41c-.49,1.79-1,3.47-1.86.84A3.31,3.31,0,0,0,23.66.7a.71.71,0,0,0-.95.07,12.87,12.87,0,0,0-2.28,3.61c-1.84,3.63-3.94,8-6.44,5a3.67,3.67,0,0,0-2.51-1.58A3.86,3.86,0,0,1,14,9.4a2.06,2.06,0,0,0,1.95,1,3,3,0,0,0,1.7-1.18,27.16,27.16,0,0,0,2.81-4.77C22,1.33,23.36-1.22,24.51,2.27a3.2,3.2,0,0,0,.62,1.28c.18.15.34.11.51-.11a7.3,7.3,0,0,0,.73-2Z"/><path class="cls-3" d="M8.79,9.38a6.85,6.85,0,0,1,.5-.56,3,3,0,0,1,2-1A3.49,3.49,0,0,0,8.79,9.38Z"/><path class="cls-3" d="M0,23.05v.08c.83.22,1.62-.26,2.45-1.42a33,33,0,0,0,2.63-5.3A38.29,38.29,0,0,1,8.34,10a35.84,35.84,0,0,0-3.28,6.42C3.41,20.2,2,23.59,0,23.05Z"/><path class="cls-3" d="M8.34,10a8.92,8.92,0,0,1,.76-.91A3.1,3.1,0,0,1,11.18,8C10.14,8,9.21,8.75,8.34,10Z"/><path class="cls-3" d="M26.37,1.35c-.5,1.85-1,3.66-1.9,1A3.26,3.26,0,0,0,23.62.78a.72.72,0,0,0-1,.07,12.8,12.8,0,0,0-2.3,3.65c-1.85,3.65-4,8-6.48,5.06A3.76,3.76,0,0,0,11.35,8,3.91,3.91,0,0,1,13.87,9.6a2,2,0,0,0,2,.94,2.09,2.09,0,0,0,.84-.38,5,5,0,0,0,.87-.82,27.34,27.34,0,0,0,2.82-4.81c1.58-3.12,3-5.69,4.11-2.18a3,3,0,0,0,.63,1.27c.17.15.34.11.5-.11a7.58,7.58,0,0,0,.77-2.14Z"/><path class="cls-3" d="M0,23.26v.08c1.85.42,3.26-2.88,4.87-6.61a42.39,42.39,0,0,1,3-6.18A39.15,39.15,0,0,0,4.85,16.7C3.25,20.42,1.84,23.7,0,23.26Z"/><path class="cls-3" d="M7.91,10.55a9.56,9.56,0,0,1,1-1.26,3,3,0,0,1,2.37-1.1C10,8.05,8.92,9,7.91,10.55Z"/><path class="cls-3" d="M26.37,1.29h0c-.51,1.9-1,3.84-1.94,1.11A3.17,3.17,0,0,0,23.57.85a.72.72,0,0,0-1,.08,12.79,12.79,0,0,0-2.32,3.68c-1.87,3.68-4,8.08-6.53,5.14a3.91,3.91,0,0,0-2.48-1.56A4.08,4.08,0,0,1,13.75,9.8a2.08,2.08,0,0,0,2,.92,2.16,2.16,0,0,0,.85-.39,5.22,5.22,0,0,0,.88-.84,27.8,27.8,0,0,0,2.84-4.85c1.59-3.14,3-5.74,4.14-2.22a3,3,0,0,0,.63,1.27c.18.15.34.11.51-.11a8.49,8.49,0,0,0,.8-2.27Z"/><path class="cls-3" d="M26.37,1.23a.23.23,0,0,1,0,.11c-.52,1.91-1.05,3.87-1.95,1.14-1.17-3.54-2.57-.92-4.18,2.25-1.88,3.7-4,8.14-6.57,5.23C12,8.07,10.37,7.84,8.72,9.54S5.85,14.17,4.63,17c-1.54,3.62-2.9,6.8-4.63,6.45v.08c1.74.32,3.1-2.87,4.65-6.49,2.28-5.31,4.95-11.65,9-7.06a2.06,2.06,0,0,0,2,.9,2.25,2.25,0,0,0,.85-.4,4.94,4.94,0,0,0,.88-.85,28.27,28.27,0,0,0,2.87-4.89c1.6-3.17,3-5.79,4.17-2.26A3,3,0,0,0,25,3.77c.18.14.35.1.51-.13a8.86,8.86,0,0,0,.82-2.28.43.43,0,0,0,0-.11Z"/><path class="cls-3" d="M26.37,1.17a2.25,2.25,0,0,1-.05.22c-.53,1.92-1.07,3.89-2,1.17C23.17-1,21.76,1.65,20.14,4.85c-1.89,3.73-4.06,8.2-6.62,5.31-1.68-1.9-3.32-2.11-5-.38s-2.88,4.7-4.11,7.58C2.93,20.86,1.62,23.93,0,23.69v.07c1.63.23,2.94-2.86,4.43-6.37C6.72,12,9.4,5.6,13.51,10.2a2,2,0,0,0,2,.88,2.22,2.22,0,0,0,.86-.4,5.54,5.54,0,0,0,.89-.87,28.18,28.18,0,0,0,2.88-4.94c1.62-3.19,3-5.83,4.21-2.29A3,3,0,0,0,25,3.84c.17.15.34.1.51-.13a8.86,8.86,0,0,0,.82-2.31,1.6,1.6,0,0,0,.05-.21Z"/><path class="cls-3" d="M26.37,1.11a3,3,0,0,1-.08.32c-.53,1.94-1.07,3.93-2,1.21C23.12-.93,21.7,1.73,20.06,5c-1.9,3.77-4.08,8.27-6.66,5.4-1.12-1.24-2.23-1.75-3.34-1.45,1-.25,2.1.14,3.33,1.5a2,2,0,0,0,2,.86,2.49,2.49,0,0,0,.87-.42,5.24,5.24,0,0,0,.89-.88,28.65,28.65,0,0,0,2.91-5C21.7,1.76,23.12-.9,24.31,2.66A3,3,0,0,0,25,3.92c.18.14.34.09.51-.14a8.78,8.78,0,0,0,.83-2.33c0-.11.06-.21.08-.32Z"/><path class="cls-3" d="M8.33,10A4.1,4.1,0,0,1,9.88,9,3.81,3.81,0,0,0,8.33,10Z"/><path class="cls-3" d="M0,23.9V24c1.53.14,2.78-2.85,4.21-6.24C5.36,15,6.61,12,8.1,10.28,6.58,12,5.36,14.93,4.19,17.7,2.76,21.08,1.52,24.05,0,23.9Z"/><path class="cls-3" d="M26.37,1.05c0,.14-.07.29-.11.43-.54,2-1.08,4-2,1.24-1.2-3.58-2.63-.9-4.28,2.37-1.92,3.78-4.12,8.33-6.71,5.48-4.29-4.66-7,2-9.32,7.48C2.6,21.31,1.41,24.16,0,24.1v.07c1.42,0,2.62-2.82,4-6.09C6.29,12.57,9,6,13.27,10.61a2,2,0,0,0,2,.84,2.36,2.36,0,0,0,.86-.42,5.48,5.48,0,0,0,.91-.9,29.35,29.35,0,0,0,2.92-5c1.65-3.26,3.08-5.94,4.28-2.37A2.9,2.9,0,0,0,24.91,4c.18.14.35.09.52-.14a9,9,0,0,0,.83-2.35c0-.14.08-.28.11-.42Z"/><path class="cls-3" d="M1.6,23C1,23.86.52,24.3,0,24.31v.07c1.32-.05,2.46-2.8,3.75-5.95A45.6,45.6,0,0,1,6.8,12,41.5,41.5,0,0,0,3.74,18.4,33.4,33.4,0,0,1,1.6,23Z"/><path class="cls-3" d="M6.8,12a10.33,10.33,0,0,1,1.11-1.46,3.45,3.45,0,0,1,2.48-1.29C9,9.22,7.85,10.34,6.8,12Z"/><path class="cls-3" d="M26.37,1c0,.18-.09.36-.14.54-.54,2-1.09,4-2,1.27C23-.79,21.58,1.91,19.91,5.21,18,9,15.77,13.61,13.15,10.78a3.91,3.91,0,0,0-2.76-1.52,4.1,4.1,0,0,1,2.75,1.57,2.05,2.05,0,0,0,2,.81,2.43,2.43,0,0,0,.87-.43A5.57,5.57,0,0,0,17,10.3a28.84,28.84,0,0,0,2.94-5.07c1.67-3.29,3.11-6,4.31-2.41.92,2.72,1.47.7,2-1.27.05-.18.1-.36.14-.53Z"/><path class="cls-3" d="M6.33,12.69A11.16,11.16,0,0,1,7.7,10.82a3.47,3.47,0,0,1,2.65-1.34C8.79,9.36,7.49,10.73,6.33,12.69Z"/><path class="cls-3" d="M0,24.51v.07c.48,0,1-.48,1.47-1.31A33.76,33.76,0,0,0,3.52,18.8a50.75,50.75,0,0,1,2.81-6.11A47.07,47.07,0,0,0,3.5,18.77C2.23,21.89,1.19,24.42,0,24.51Z"/><path class="cls-3" d="M26.37.94c-.05.2-.11.42-.17.64-.54,2-1.09,4-2,1.3C23-.72,21.51,2,19.83,5.33,17.89,9.17,15.66,13.79,13,11a4.23,4.23,0,0,0-2.52-1.5A4.5,4.5,0,0,1,13,11a2.05,2.05,0,0,0,2.06.8,2.59,2.59,0,0,0,.87-.45,5.69,5.69,0,0,0,.92-.92,29.79,29.79,0,0,0,3-5.12C21.51,2,23-.69,24.18,2.9c.93,2.72,1.48.68,2-1.3.06-.22.12-.43.17-.64Z"/><path class="cls-3" d="M3.27,19.15c-1.2,3-2.18,5.38-3.27,5.56v.07c.43-.08.86-.51,1.33-1.27a33.16,33.16,0,0,0,2-4.33C4.48,16.23,5.87,12.76,7.62,11l-.14.15C5.77,13,4.43,16.28,3.27,19.15Z"/><path class="cls-3" d="M26.37.88c-.06.24-.13.49-.2.75-.55,2-1.1,4-2,1.33-1.24-3.61-2.7-.86-4.39,2.49-2,3.88-4.21,8.54-6.86,5.76-1.42-1.49-2.82-1.9-4.22-1.11,1.23-.69,2.62-.5,4.21,1.15A2,2,0,0,0,15,12a2.41,2.41,0,0,0,.88-.46,5.55,5.55,0,0,0,.94-.94,30.81,30.81,0,0,0,3-5.15c1.69-3.35,3.15-6.1,4.38-2.5.93,2.72,1.48.66,2-1.34.07-.25.14-.5.2-.74Z"/><path class="cls-3" d="M0,24.9V25c1-.27,1.92-2.57,3.05-5.41a37.3,37.3,0,0,1,3.62-7.47A35,35,0,0,0,3,19.53C1.91,22.36,1,24.64,0,24.9Z"/><path class="cls-3" d="M26.37.82c-.07.28-.15.56-.23.86-.55,2-1.11,4.07-2,1.36-1.24-3.62-2.71-.85-4.42,2.53-2,3.91-4.24,8.61-6.9,5.86C11.59,10.2,10.42,9.71,9.26,10c1-.26,2.2.12,3.51,1.45a2,2,0,0,0,2.08.75,2.56,2.56,0,0,0,.89-.47,5.64,5.64,0,0,0,.94-.95,30.32,30.32,0,0,0,3-5.2c1.71-3.38,3.18-6.15,4.42-2.54.93,2.72,1.49.65,2-1.37.08-.28.16-.57.23-.84Z"/><path class="cls-3" d="M6.67,12.09a8.73,8.73,0,0,1,.59-.72,4.33,4.33,0,0,1,2-1.35A5,5,0,0,0,6.67,12.09Z"/><path class="cls-3" d="M26.37.77l-.26,1c-.55,2-1.12,4.1-2.05,1.39C22.81-.51,21.32,2.28,19.6,5.7c-2,3.93-4.27,8.67-7,6C7.88,6.85,5,14.33,2.79,19.93,1.75,22.59.9,24.75,0,25.09v.07c.91-.36,1.76-2.53,2.81-5.2,2.21-5.59,5.07-13,9.83-8.27a2,2,0,0,0,2.1.73,2.89,2.89,0,0,0,.89-.48,6.17,6.17,0,0,0,.95-1,32.43,32.43,0,0,0,3-5.25c1.72-3.42,3.21-6.21,4.46-2.59.93,2.72,1.5.63,2.05-1.4l.26-.95Z"/><path class="cls-3" d="M26.37.72l-.29,1.05C25.52,3.81,25,5.91,24,3.2c-1.26-3.64-2.76-.82-4.5,2.63-2,4-4.3,8.74-7,6a4.16,4.16,0,0,0-3-1.47A4,4,0,0,0,6.79,12C5,14,3.69,17.39,2.55,20.34,1.59,22.83.8,24.86,0,25.27v.07c.82-.43,1.6-2.47,2.57-5C3.71,17.43,5,14,6.8,12s3.76-2,5.71-.09a2.05,2.05,0,0,0,2.12.71,2.73,2.73,0,0,0,.89-.49,6,6,0,0,0,.95-1,31.91,31.91,0,0,0,3.06-5.3C21.26,2.41,22.76-.41,24,3.23c.94,2.71,1.5.6,2.06-1.44l.29-1Z"/><path class="cls-3" d="M26.37.67c-.11.35-.21.75-.32,1.15C25.49,3.88,24.92,6,24,3.29,22.71-.37,21.19,2.47,19.44,6c-2,4-4.33,8.82-7,6.14a4.18,4.18,0,0,0-3.07-1.45,4.09,4.09,0,0,0-2.77,1.62c-1.81,2.05-3.12,5.53-4.25,8.51C1.43,23.08.71,25,0,25.44v.06c.72-.49,1.45-2.39,2.33-4.71,1.12-3,2.43-6.43,4.23-8.49s3.82-2.12,5.82-.16a2,2,0,0,0,2.13.68,2.71,2.71,0,0,0,.9-.5,6.19,6.19,0,0,0,1-1A32.39,32.39,0,0,0,19.45,6C21.2,2.5,22.71-.34,24,3.31c.94,2.71,1.51.59,2.07-1.47L26.37.69Z"/><path class="cls-3" d="M26.37.61c-.12.39-.24.82-.35,1.27-.56,2.06-1.14,4.19-2.08,1.49-1.29-3.67-2.81-.8-4.58,2.71-2,4-4.36,8.89-7.1,6.24a4.23,4.23,0,0,0-3.14-1.44A4.22,4.22,0,0,0,6.3,12.56c-1.83,2.13-3.19,5.79-4.24,8.64C1.27,23.32.62,25.05,0,25.59v.07c.64-.55,1.29-2.3,2.08-4.43,1-2.85,2.4-6.5,4.23-8.62s3.9-2.21,5.94-.25a2,2,0,0,0,2.14.66,2.58,2.58,0,0,0,.9-.51,5.58,5.58,0,0,0,1-1,33.74,33.74,0,0,0,3.1-5.39c1.76-3.51,3.28-6.38,4.56-2.72C24.88,6.1,25.46,4,26,1.89c.12-.44.23-.87.35-1.25Z"/><path class="cls-3" d="M26.37.57c-.13.41-.26.88-.39,1.36C25.42,4,24.84,6.15,23.89,3.46c-1.29-3.69-2.83-.8-4.61,2.75-2,4.06-4.4,9-7.16,6.34C6.85,7.6,3.86,16,1.81,21.66A16.06,16.06,0,0,1,0,25.74v.06a16.14,16.14,0,0,0,1.83-4.12c2.05-5.62,5-14,10.28-9.09a2.07,2.07,0,0,0,2.17.64,3,3,0,0,0,.9-.52,6.57,6.57,0,0,0,1-1,34,34,0,0,0,3.11-5.44C21.07,2.69,22.6-.2,23.89,3.48c.95,2.7,1.53.55,2.1-1.54.13-.48.26-.94.38-1.35Z"/><path class="cls-3" d="M26.37.52C26.23,1,26.09,1.46,26,2c-.56,2.09-1.15,4.26-2.1,1.56C22.55-.16,21,2.76,19.2,6.35c-2.06,4.09-4.43,9-7.21,6.43A4.34,4.34,0,0,0,8.7,11.37a4.54,4.54,0,0,0-2.92,1.85c-1.89,2.26-3.2,6-4.23,8.91A18,18,0,0,1,0,25.86v.06a18.66,18.66,0,0,0,1.58-3.77c1-2.89,2.33-6.63,4.21-8.89s4.08-2.4,6.19-.43a2.06,2.06,0,0,0,2.18.61,3.2,3.2,0,0,0,.91-.53,7.28,7.28,0,0,0,1-1.05A33.48,33.48,0,0,0,19.2,6.37c1.8-3.58,3.35-6.5,4.65-2.81C24.8,6.26,25.39,4.09,26,2c.14-.51.27-1,.41-1.45Z"/><path class="cls-3" d="M26.37.47c-.15.46-.3,1-.45,1.56-.57,2.11-1.16,4.29-2.11,1.6-1.32-3.71-2.88-.77-4.69,2.85C17,10.6,14.65,15.59,11.85,13a4.33,4.33,0,0,0-3.37-1.4,4.74,4.74,0,0,0-3,1.94c-1.91,2.35-3.2,6.13-4.2,9.07A21.58,21.58,0,0,1,0,26V26a20.77,20.77,0,0,0,1.32-3.38c1-2.92,2.29-6.7,4.19-9s4.17-2.53,6.33-.55a2.08,2.08,0,0,0,2.2.59,3.11,3.11,0,0,0,.91-.54,6.92,6.92,0,0,0,1-1.06,35.29,35.29,0,0,0,3.16-5.54C20.93,2.89,22.49,0,23.8,3.65a2.65,2.65,0,0,0,.68,1.21c.19.12.37,0,.55-.23A11,11,0,0,0,25.93,2c.15-.55.29-1.09.44-1.54Z"/><path class="cls-3" d="M26.37.43c-.16.47-.32,1.06-.48,1.65-.57,2.13-1.17,4.32-2.12,1.63C22.44,0,20.87,3,19,6.61c-2.08,4.16-4.49,9.19-7.32,6.65a4.33,4.33,0,0,0-3.45-1.38,4.89,4.89,0,0,0-3,2C3.28,16.36,2,20.35,1,23.15A29.4,29.4,0,0,1,0,26v.07a24.71,24.71,0,0,0,1.07-2.92C2,20.37,3.29,16.39,5.22,14s4.26-2.67,6.49-.67a2.07,2.07,0,0,0,2.21.56,3.34,3.34,0,0,0,.92-.55,7.14,7.14,0,0,0,1-1.08A35.14,35.14,0,0,0,19,6.64C20.87,3,22.44,0,23.76,3.73a2.65,2.65,0,0,0,.68,1.21c.19.12.37,0,.56-.24a11.13,11.13,0,0,0,.89-2.6c.16-.59.32-1.17.48-1.65Z"/><path class="cls-3" d="M26.37.39C26.2.88,26,1.5,25.86,2.13c-.58,2.14-1.18,4.36-2.14,1.67C22.38.07,20.8,3.06,19,6.75c-2.1,4.19-4.53,9.26-7.37,6.75A4.45,4.45,0,0,0,8,12.14,5.17,5.17,0,0,0,4.91,14.3C3,16.84,1.67,20.88.78,23.69.48,24.65.22,25.46,0,26v.08c.23-.57.5-1.4.81-2.39C1.7,20.9,3,16.88,4.92,14.35c2.08-2.68,4.36-2.83,6.65-.81a2.06,2.06,0,0,0,2.22.54,3.34,3.34,0,0,0,.93-.57,7.83,7.83,0,0,0,1-1.09A36.22,36.22,0,0,0,19,6.78c1.85-3.69,3.43-6.68,4.77-3A2.45,2.45,0,0,0,24.4,5c.19.12.38,0,.56-.24a11.57,11.57,0,0,0,.9-2.63C26,1.52,26.2.9,26.37.41Z"/><path class="cls-3" d="M26.37.35c-.18.51-.36,1.16-.54,1.83-.58,2.16-1.19,4.39-2.15,1.7-1.35-3.74-2.95-.72-4.82,3-2.11,4.22-4.56,9.34-7.42,6.85a4.45,4.45,0,0,0-3.67-1.33,5.39,5.39,0,0,0-3.17,2.3c-2,2.65-3.22,6.73-4.07,9.56C.33,24.93.15,25.51,0,26v.09c.16-.47.34-1.07.55-1.77.85-2.82,2.07-6.88,4.05-9.53,2.12-2.82,4.46-3,6.83-1a2.06,2.06,0,0,0,2.24.51,3.34,3.34,0,0,0,.93-.57,7.52,7.52,0,0,0,1-1.11,37,37,0,0,0,3.24-5.7c1.86-3.72,3.46-6.74,4.8-3a2.47,2.47,0,0,0,.69,1.2c.19.12.38,0,.56-.25a11.55,11.55,0,0,0,.91-2.65c.18-.67.36-1.32.54-1.83Z"/><path class="cls-3" d="M26.37.31c-.19.52-.38,1.22-.57,1.92C25.21,4.41,24.61,6.66,23.63,4c-1.36-3.75-3-.71-4.85,3.06-2.13,4.25-4.6,9.41-7.49,7-2.2-1.89-4.39-1.87-6.39.36C2.49,17,1.13,21.85.27,24.89L0,25.83v.11l.3-1c.85-3,2.2-7.83,4.6-10.5,2-2.22,4.18-2.25,6.39-.37a2.08,2.08,0,0,0,2.26.48,3.38,3.38,0,0,0,.93-.58,7.29,7.29,0,0,0,1-1.13,36.82,36.82,0,0,0,3.26-5.75C20.66,3.29,22.27.25,23.63,4a2.44,2.44,0,0,0,.69,1.2c.19.11.38,0,.56-.26a11.34,11.34,0,0,0,.92-2.68c.19-.7.38-1.39.57-1.92Z"/><path class="cls-3" d="M26.37.28c-.2.53-.4,1.26-.6,2-.6,2.19-1.2,4.45-2.18,1.77-1.37-3.77-3-.69-4.9,3.11-2.15,4.29-4.63,9.49-7.54,7.06-2.29-1.92-4.55-1.84-6.61.55C2.08,17.65.76,22.71,0,25.57l0,.06v.11a.85.85,0,0,0,0-.17c.75-2.85,2.06-7.89,4.51-10.74,2-2.38,4.3-2.46,6.59-.55a2.1,2.1,0,0,0,2.28.45,3.38,3.38,0,0,0,.94-.59A7,7,0,0,0,15.41,13a38.3,38.3,0,0,0,3.29-5.8C20.59,3.4,22.22.32,23.59,4.08a2.28,2.28,0,0,0,.69,1.19q.28.17.57-.27a12.38,12.38,0,0,0,.92-2.7c.2-.74.4-1.47.6-2Z"/><path class="cls-3" d="M26.37.24c-.21.55-.42,1.32-.64,2.1-.59,2.21-1.2,4.49-2.19,1.81-1.38-3.78-3-.68-4.93,3.16-2.17,4.32-4.67,9.58-7.6,7.18-2.39-2-4.74-1.82-6.85.76C1.91,18,.68,22.5,0,25.33v.13c.67-2.82,1.9-7.38,4.17-10.16,2.1-2.58,4.44-2.72,6.83-.77a2.11,2.11,0,0,0,2.29.43,3.38,3.38,0,0,0,1-.61,7.66,7.66,0,0,0,1.06-1.16,39.08,39.08,0,0,0,3.31-5.86C20.52,3.5,22.16.4,23.54,4.17a2.39,2.39,0,0,0,.7,1.19c.19.11.38,0,.57-.28a12.74,12.74,0,0,0,.93-2.72c.21-.78.42-1.55.63-2.1Z"/><path class="cls-3" d="M26.37.21a20.06,20.06,0,0,0-.67,2.18c-.6,2.23-1.21,4.53-2.2,1.85-1.39-3.79-3.05-.66-5,3.21-2.18,4.36-4.71,9.66-7.66,7.29-2.51-2-5-1.79-7.13,1C1.75,18.38.62,22.25,0,25v.14c.61-2.7,1.74-6.63,3.74-9.25C5.9,13,8.35,12.77,10.85,14.78a2.12,2.12,0,0,0,2.32.41,3.85,3.85,0,0,0,.95-.62,8.62,8.62,0,0,0,1.07-1.19,38.75,38.75,0,0,0,3.33-5.9c1.93-3.88,3.59-7,5-3.22a2.29,2.29,0,0,0,.7,1.18c.19.11.38,0,.57-.28a12.55,12.55,0,0,0,.93-2.75A22.56,22.56,0,0,1,26.37.23Z"/><path class="cls-3" d="M26.37.18a19.07,19.07,0,0,0-.7,2.27c-.6,2.24-1.23,4.56-2.21,1.88-1.41-3.8-3.08-.65-5,3.26C16.24,12,13.69,17.34,10.71,15a4.75,4.75,0,0,0-4.19-1.19A6.41,6.41,0,0,0,3,16.72,24.66,24.66,0,0,0,.12,24L0,24.53v.14L.15,24a24.65,24.65,0,0,1,2.9-7.28,6.47,6.47,0,0,1,3.46-2.9A4.78,4.78,0,0,1,10.7,15a2.15,2.15,0,0,0,2.34.38,3.91,3.91,0,0,0,1-.63,8.3,8.3,0,0,0,1.09-1.21,40.42,40.42,0,0,0,3.35-6c1.95-3.91,3.62-7.06,5-3.27.25.68.48,1.06.71,1.18s.38,0,.57-.3a12.52,12.52,0,0,0,.94-2.77A18.84,18.84,0,0,1,26.37.2Z"/></g></g></g></g></svg>