<svg xmlns="http://www.w3.org/2000/svg" viewBox="0 0 26.37 18.41"><defs><style>.cls-1{isolation:isolate;}.cls-2{opacity:0.5;}.cls-3{fill:#0b90b7;opacity:0.2;mix-blend-mode:multiply;}</style></defs><g class="cls-1"><g id="Layer_2" data-name="Layer 2"><g id="Layer_1-2" data-name="Layer 1"><g class="cls-2"><path class="cls-3" d="M26.37,1.31H26c-3.1.09-6.33,2.29-9.67,5.05C11,10.74,5.54,16.47,0,16.29v.08c5.56.15,11.05-5.58,16.38-10,3.46-2.86,6.79-5.09,10-5Z"/><path class="cls-3" d="M26.37,1.34c-.19,0-.38,0-.57,0-3.11.12-6.34,2.35-9.68,5.13-5.25,4.36-10.66,10-16.12,10v.07c5.47,0,10.89-5.63,16.14-10,3.55-3,7-5.26,10.23-5.11Z"/><path class="cls-3" d="M26.37,1.38a6.94,6.94,0,0,0-.79,0c-3.12.16-6.35,2.41-9.7,5.22C10.71,10.92,5.37,16.47,0,16.57v.07c5.39-.12,10.73-5.68,15.91-10,3.63-3,7.12-5.43,10.46-5.2Z"/><path class="cls-3" d="M26.37,1.42a5.78,5.78,0,0,0-1,0c-3.12.18-6.35,2.47-9.7,5.3C10.55,11,5.29,16.47,0,16.7v.07c5.31-.25,10.57-5.72,15.67-10C19.39,3.62,23,1.17,26.37,1.49Z"/><path class="cls-3" d="M26.37,1.47a6.43,6.43,0,0,0-1.24,0C22,1.66,18.77,4,15.42,6.83c-5,4.26-10.21,9.64-15.42,10v.07c5.22-.37,10.41-5.75,15.44-10,3.8-3.24,7.44-5.76,10.93-5.35Z"/><path class="cls-3" d="M26.37,1.52a6.54,6.54,0,0,0-1.47,0c-3.12.25-6.36,2.6-9.72,5.47C10.23,11.18,5.13,16.48,0,17V17c5.14-.48,10.25-5.79,15.21-10,3.87-3.33,7.6-5.92,11.16-5.42Z"/><path class="cls-3" d="M26.37,1.58a6.37,6.37,0,0,0-1.69-.06c-3.13.29-6.37,2.66-9.73,5.55-4.88,4.2-9.9,9.4-14.95,10v.06c5.06-.6,10.09-5.81,15-10,4-3.42,7.76-6.09,11.4-5.48Z"/><path class="cls-3" d="M26.37,1.64a6.44,6.44,0,0,0-1.91-.08c-3.14.32-6.38,2.72-9.75,5.64C9.91,11.35,5,16.47,0,17.17v.06c5-.7,9.93-5.83,14.74-10,4-3.51,7.92-6.25,11.63-5.54Z"/><path class="cls-3" d="M26.37,1.71a6.48,6.48,0,0,0-2.12-.1,8.85,8.85,0,0,0-2.05.5c-2.52.92-5,2.88-7.72,5.21-4.73,4.12-9.6,9.15-14.48,10v.07c4.9-.81,9.77-5.85,14.5-10,4.13-3.61,8.09-6.43,11.87-5.6Z"/><path class="cls-3" d="M26.37,1.78A6.73,6.73,0,0,0,24,1.65,9.21,9.21,0,0,0,22,2.17c-2.53,1-5.06,2.93-7.73,5.28C9.59,11.52,4.8,16.47,0,17.37v.06c4.81-.91,9.61-5.86,14.27-9.93,4.21-3.71,8.24-6.6,12.1-5.65Z"/><path class="cls-3" d="M26.37,1.86a6.61,6.61,0,0,0-2.56-.16,9.31,9.31,0,0,0-2,.54c-2.53,1-5.07,3-7.75,5.34-4.58,4-9.29,8.89-14,9.89v.06c4.73-1,9.45-5.87,14-9.91,4.29-3.8,8.4-6.77,12.33-5.7Z"/><path class="cls-3" d="M26.37,2a6.48,6.48,0,0,0-2.79-.2,9.71,9.71,0,0,0-2,.56c-2.53,1-5.07,3-7.75,5.4C9.27,11.7,4.64,16.47,0,17.55v.06c4.65-1.09,9.29-5.87,13.8-9.86S22.37.81,26.37,2Z"/><path class="cls-3" d="M26.37,2a6.44,6.44,0,0,0-3-.23,9.45,9.45,0,0,0-2.05.57c-2.54,1-5.08,3.06-7.77,5.46-4.43,3.94-9,8.63-13.54,9.8v.06c4.57-1.18,9.13-5.87,13.57-9.82S22.29.76,26.37,2.1Z"/><path class="cls-3" d="M26.37,2.14a6.5,6.5,0,0,0-3.24-.28,9.69,9.69,0,0,0-2,.6C18.54,3.5,16,5.56,13.31,8,9,11.87,4.48,16.47,0,17.72v.06C4.49,16.52,9,11.92,13.33,8c4.55-4.08,8.89-7.3,13-5.81Z"/><path class="cls-3" d="M26.37,2.25a6.54,6.54,0,0,0-3.5-.32,9.7,9.7,0,0,0-2,.6c-2.55,1.06-5.09,3.15-7.78,5.57C8.79,12,4.4,16.47,0,17.79v.06C4.41,16.52,8.81,12,13.1,8.15,17.73,4,22.14.67,26.37,2.31Z"/><path class="cls-3" d="M26.37,2.36A6.44,6.44,0,0,0,22.64,2a9.27,9.27,0,0,0-2,.61c-2.55,1.08-5.1,3.19-7.8,5.63C8.63,12,4.32,16.47,0,17.86v.06c4.33-1.4,8.65-5.83,12.86-9.64C17.58,4,22.07.62,26.37,2.42Z"/><path class="cls-3" d="M26.37,2.47a6.6,6.6,0,0,0-3.95-.41,9.45,9.45,0,0,0-2,.63c-2.55,1.1-5.1,3.23-7.8,5.68C8.48,12.12,4.24,16.47,0,17.92V18c4.25-1.46,8.49-5.81,12.63-9.57C17.43,4,22,.58,26.37,2.54Z"/><path class="cls-3" d="M26.37,2.6a6.52,6.52,0,0,0-4.18-.48,10.1,10.1,0,0,0-2,.65C17.63,3.9,15.08,6,12.37,8.51c-4,3.7-8.21,8-12.37,9.47V18c4.17-1.52,8.33-5.78,12.4-9.49,4.88-4.47,9.52-8,14-5.89Z"/><path class="cls-3" d="M26.37,2.73A6.54,6.54,0,0,0,22,2.19a9.35,9.35,0,0,0-2,.66C17.4,4,14.73,6.27,12.14,8.64,8.16,12.29,4.08,16.46,0,18v.06c4.09-1.58,8.17-5.76,12.16-9.41,5-4.57,9.68-8.2,14.21-5.9Z"/><path class="cls-3" d="M26.37,2.86a6.54,6.54,0,0,0-4.62-.6,9.54,9.54,0,0,0-2,.68C17.17,4.1,14.5,6.39,11.9,8.78,8,12.38,4,16.46,0,18.09v.06c4-1.63,8-5.73,11.93-9.33C17,4.16,21.77.44,26.37,2.92Z"/><path class="cls-3" d="M26.37,3a6.59,6.59,0,0,0-4.85-.67,9.71,9.71,0,0,0-2,.69c-2.57,1.19-5.26,3.5-7.85,5.9C7.84,12.46,3.92,16.46,0,18.14v.05C3.93,16.52,7.86,12.51,11.69,9,16.83,4.2,21.69.4,26.37,3.07Z"/><path class="cls-3" d="M26.37,3.15A6.56,6.56,0,0,0,21.3,2.4a10.24,10.24,0,0,0-2,.71c-2.58,1.21-5.27,3.53-7.86,6C7.68,12.54,3.84,16.46,0,18.18v.05c3.85-1.72,7.7-5.64,11.46-9.13C16.68,4.24,21.62.35,26.37,3.22Z"/><path class="cls-3" d="M26.37,3.31a6.61,6.61,0,0,0-5.3-.84,10.61,10.61,0,0,0-2,.73c-2.58,1.23-5.27,3.57-7.87,6-3.68,3.43-7.44,7.26-11.2,9v.06c3.77-1.76,7.54-5.6,11.22-9,5.31-5,10.32-8.93,15.15-5.86Z"/><path class="cls-3" d="M26.37,3.47a6.65,6.65,0,0,0-5.52-.92,10.43,10.43,0,0,0-2,.74C16.26,4.54,13.57,6.9,11,9.34c-3.6,3.37-7.29,7.11-11,8.91v.05c3.69-1.79,7.38-5.54,11-8.92C16.38,4.33,21.46.26,26.37,3.54Z"/><path class="cls-3" d="M26.37,3.64l-.12-.08a6.63,6.63,0,0,0-5.63-.93,11.13,11.13,0,0,0-2,.75C16,4.65,13.34,7,10.73,9.48,7.21,12.79,3.6,16.45,0,18.27v.06c3.61-1.82,7.22-5.49,10.76-8.81C16.17,4.43,21.28.3,26.22,3.6l.15.1Z"/><path class="cls-3" d="M26.37,3.81A2.7,2.7,0,0,0,26,3.59C23.81,2.11,21.31,2,18.4,3.48a36.42,36.42,0,0,0-7.9,6.15c-3.45,3.25-7,6.82-10.5,8.67v.06c3.53-1.85,7.06-5.44,10.52-8.69C15.94,4.55,21.06.37,26,3.63l.36.25Z"/><path class="cls-3" d="M26.37,4l-.53-.35c-2.24-1.45-4.75-1.52-7.66,0-2.6,1.3-5.3,3.72-7.91,6.19C6.89,13,3.45,16.45,0,18.32v.05C3.45,16.5,6.91,13,10.29,9.81,15.72,4.67,20.84.45,25.81,3.67l.56.37Z"/><path class="cls-3" d="M26.37,4.13l-.74-.47c-2.25-1.44-4.76-1.48-7.67,0C15.35,5,12.65,7.43,10,9.91,6.73,13,3.37,16.45,0,18.33v.06C3.37,16.5,6.75,13.09,10.05,10,15.49,4.79,20.62.52,25.6,3.7c.26.18.52.34.77.5Z"/><path class="cls-3" d="M26.37,4.29l-.95-.6c-2.25-1.41-4.76-1.43-7.69.08A38,38,0,0,0,9.8,10.06C6.57,13.12,3.29,16.44,0,18.35v0c3.3-1.9,6.59-5.23,9.82-8.3C15.26,4.91,20.4.6,25.39,3.74l1,.61Z"/><path class="cls-3" d="M26.37,4.44c-.37-.22-.76-.45-1.16-.71-2.25-1.39-4.77-1.39-7.7.14a39,39,0,0,0-8,6.33c-3.14,3-6.35,6.24-9.56,8.15v.06c3.22-1.92,6.43-5.16,9.58-8.17C15,5,20.18.68,25.18,3.78c.41.26.81.5,1.19.72Z"/><path class="cls-3" d="M26.37,4.58c-.44-.24-.89-.51-1.36-.81-2.27-1.38-4.79-1.35-7.73.2a39.71,39.71,0,0,0-8,6.38c-3.07,2.94-6.2,6.09-9.33,8v.05c3.14-1.92,6.27-5.08,9.35-8C14.81,5.16,20,.76,25,3.82c.48.29,1,.56,1.4.81Z"/><path class="cls-3" d="M26.37,4.72c-.5-.27-1-.56-1.57-.9-2.27-1.36-4.8-1.32-7.74.26a39.69,39.69,0,0,0-8,6.42c-3,2.87-6,5.94-9.1,7.86v.05c3.06-1.92,6.12-5,9.12-7.88C14.58,5.28,19.74.85,24.77,3.87c.55.33,1.08.63,1.6.9Z"/><path class="cls-3" d="M26.37,4.86c-.56-.29-1.15-.61-1.78-1-2.27-1.34-4.81-1.27-7.75.32a41.15,41.15,0,0,0-8,6.46C5.94,13.45,3,16.44,0,18.36v.05c3-1.92,6-4.91,8.88-7.73C14.35,5.41,19.52.93,24.56,3.91c.62.37,1.23.7,1.81,1Z"/><path class="cls-3" d="M26.37,5c-.62-.3-1.29-.66-2-1.08-2.28-1.33-4.82-1.24-7.77.38a41.46,41.46,0,0,0-8,6.5A67.58,67.58,0,0,1,0,18.35v0a67,67,0,0,0,8.65-7.57C14.13,5.54,19.3,1,24.35,4c.69.4,1.37.76,2,1.07Z"/><path class="cls-3" d="M26.37,5.11A22.49,22.49,0,0,1,24.17,4c-2.28-1.31-4.83-1.2-7.78.44a42.23,42.23,0,0,0-8,6.54A69.22,69.22,0,0,1,0,18.34v.05A68.61,68.61,0,0,0,8.41,11C13.9,5.67,19.08,1.11,24.14,4a24.86,24.86,0,0,0,2.23,1.14Z"/><path class="cls-3" d="M26.37,5.23A21,21,0,0,1,24,4c-2.29-1.29-4.85-1.16-7.81.5a42.54,42.54,0,0,0-8,6.58A70.22,70.22,0,0,1,0,18.32v.06a71.43,71.43,0,0,0,8.18-7.25C13.67,5.8,18.86,1.2,23.93,4.06a26.2,26.2,0,0,0,2.44,1.21Z"/><path class="cls-3" d="M26.37,5.34a21.25,21.25,0,0,1-2.61-1.27c-2.3-1.28-4.85-1.13-7.82.55a43.66,43.66,0,0,0-8,6.62A71.39,71.39,0,0,1,0,18.3v.06a71.86,71.86,0,0,0,8-7.09c5.5-5.34,10.69-10,15.78-7.16A20.44,20.44,0,0,0,26.37,5.4Z"/><path class="cls-3" d="M26.37,5.45a20,20,0,0,1-2.82-1.33c-2.3-1.26-4.86-1.09-7.83.61a44.17,44.17,0,0,0-8,6.66A73.91,73.91,0,0,1,0,18.28v.06a74.45,74.45,0,0,0,7.71-6.91c5.51-5.36,10.71-10,15.81-7.26a20.86,20.86,0,0,0,2.85,1.34Z"/><path class="cls-3" d="M26.37,5.55a19.35,19.35,0,0,1-3-1.37c-2.3-1.24-4.87-1-7.85.66a44.91,44.91,0,0,0-8,6.7A77.21,77.21,0,0,1,0,18.26v.06a77.79,77.79,0,0,0,7.48-6.74C12.75,6.43,18.2,1.46,23.31,4.23a20.68,20.68,0,0,0,3.06,1.38Z"/><path class="cls-3" d="M26.37,5.64a18.53,18.53,0,0,1-3.24-1.4c-2.31-1.23-4.88-1-7.86.72a45.25,45.25,0,0,0-8,6.73A78.17,78.17,0,0,1,0,18.23v.06a78.77,78.77,0,0,0,7.24-6.56C12.52,6.56,18,1.56,23.1,4.29A18.84,18.84,0,0,0,26.37,5.7Z"/><path class="cls-3" d="M26.37,5.73A18,18,0,0,1,22.93,4.3c-2.32-1.21-4.9-1-7.88.77A46.13,46.13,0,0,0,7,11.84,81,81,0,0,1,0,18.2v.06a81.76,81.76,0,0,0,7-6.38C12.29,6.7,17.76,1.66,22.9,4.35a17.52,17.52,0,0,0,3.47,1.43Z"/><path class="cls-3" d="M26.37,5.81a16.5,16.5,0,0,1-3.65-1.45c-2.32-1.19-4.91-.94-7.9.83A47.63,47.63,0,0,0,6.75,12,82.77,82.77,0,0,1,0,18.17v.06A83.6,83.6,0,0,0,6.77,12c5.3-5.19,10.77-10.27,15.92-7.62a16.68,16.68,0,0,0,3.68,1.45Z"/><path class="cls-3" d="M26.37,5.88a16.56,16.56,0,0,1-3.86-1.45c-2.33-1.18-4.92-.91-7.91.88a48,48,0,0,0-8.08,6.83,81.27,81.27,0,0,1-6.52,6v.06a85.72,85.72,0,0,0,6.54-6C11.84,7,17.32,1.86,22.48,4.47a16.43,16.43,0,0,0,3.89,1.47Z"/><path class="cls-3" d="M26.37,6A15.78,15.78,0,0,1,22.3,4.49c-2.33-1.15-4.93-.87-7.93.94a48.28,48.28,0,0,0-8.08,6.86c-2.08,2-4.18,4.12-6.29,5.8v.06c2.11-1.69,4.24-3.79,6.31-5.82C11.61,7.12,17.1,2,22.27,4.54A16.78,16.78,0,0,0,26.37,6Z"/><path class="cls-3" d="M26.37,6a15,15,0,0,1-4.28-1.45c-2.34-1.14-4.93-.84-7.94,1a49.6,49.6,0,0,0-8.1,6.89c-2,2-4,4-6,5.61v.06c2-1.65,4.08-3.67,6.07-5.63,5.31-5.22,10.81-10.41,16-7.87a16.22,16.22,0,0,0,4.31,1.45Z"/><path class="cls-3" d="M26.37,6.06a14.19,14.19,0,0,1-4.48-1.43c-2.35-1.12-4.95-.8-8,1A49.67,49.67,0,0,0,5.82,12.6C3.9,14.49,2,16.41,0,18v0c2-1.6,3.92-3.54,5.84-5.43,5.32-5.23,10.82-10.46,16-8a15.46,15.46,0,0,0,4.51,1.44Z"/><path class="cls-3" d="M26.37,6.13A13.84,13.84,0,0,1,21.68,4.7c-2.35-1.11-5-.77-8,1.09a50.91,50.91,0,0,0-8.12,7C3.74,14.56,1.87,16.41,0,18V18c1.88-1.57,3.76-3.43,5.6-5.24,5.33-5.23,10.84-10.5,16-8a15.12,15.12,0,0,0,4.72,1.42Z"/><path class="cls-3" d="M26.37,6.17a13.41,13.41,0,0,1-4.9-1.4c-2.36-1.09-5-.73-8,1.15a51.14,51.14,0,0,0-8.13,7c-1.77,1.74-3.56,3.5-5.35,5V18c1.8-1.52,3.6-3.3,5.37-5C10.7,7.69,16.21,2.39,21.44,4.82a14.29,14.29,0,0,0,4.93,1.39Z"/><path class="cls-3" d="M26.37,6.2a13.23,13.23,0,0,1-5.11-1.35c-2.36-1.08-5-.7-8,1.19a53,53,0,0,0-8.13,7C3.42,14.72,1.71,16.4,0,17.86v.06c1.72-1.47,3.45-3.17,5.14-4.83C10.47,7.83,16,2.5,21.23,4.9a14,14,0,0,0,5.14,1.34Z"/><path class="cls-3" d="M26.37,6.22a12.69,12.69,0,0,1-5.32-1.29c-2.36-1.06-5-.67-8,1.24a52.86,52.86,0,0,0-8.15,7C3.27,14.8,1.64,16.4,0,17.81v.05c1.64-1.42,3.29-3,4.9-4.62C10.25,8,15.77,2.61,21,5a13.18,13.18,0,0,0,5.34,1.29Z"/><path class="cls-3" d="M26.37,6.24A12.14,12.14,0,0,1,20.85,5c-2.38-1-5-.63-8,1.29a53.83,53.83,0,0,0-8.16,7.07c-1.54,1.51-3.09,3-4.65,4.39v.06c1.57-1.37,3.13-2.91,4.67-4.42C10,8.12,15.55,2.72,20.82,5.05a12.92,12.92,0,0,0,5.55,1.24Z"/><path class="cls-3" d="M26.37,6.25a12,12,0,0,1-5.73-1.17c-2.38-1-5-.6-8.06,1.34a55.14,55.14,0,0,0-8.17,7.09C3,15,1.48,16.4,0,17.69v.06c1.49-1.31,3-2.77,4.43-4.2C9.79,8.27,15.33,2.84,20.61,5.13A12.7,12.7,0,0,0,26.37,6.3Z"/><path class="cls-3" d="M26.37,6.25a11.71,11.71,0,0,1-5.94-1.09c-2.38-1-5-.56-8.07,1.39a55.47,55.47,0,0,0-8.18,7.11C2.8,15,1.4,16.39,0,17.63v.06c1.41-1.25,2.82-2.63,4.2-4C9.56,8.42,15.11,3,20.4,5.21a12.3,12.3,0,0,0,6,1.09Z"/><path class="cls-3" d="M26.37,6.25a11.5,11.5,0,0,1-6.15-1c-2.39-1-5-.54-8.09,1.43a56.41,56.41,0,0,0-8.19,7.14C2.64,15.1,1.32,16.39,0,17.57v.06c1.33-1.19,2.66-2.5,4-3.78C9.34,8.56,14.89,3.07,20.19,5.3a11.61,11.61,0,0,0,6.18,1Z"/><path class="cls-3" d="M26.37,6.23A11.25,11.25,0,0,1,20,5.33c-2.39-1-5-.5-8.1,1.48A57.28,57.28,0,0,0,3.71,14C2.48,15.18,1.24,16.39,0,17.51v0C1.25,16.43,2.5,15.21,3.73,14,9.11,8.71,14.67,3.19,20,5.38a11.32,11.32,0,0,0,6.38.91Z"/><path class="cls-3" d="M26.37,6.22a11.1,11.1,0,0,1-6.56-.8c-2.4-1-5.06-.48-8.12,1.52a58.25,58.25,0,0,0-8.21,7.18C2.33,15.26,1.16,16.39,0,17.45v.05c1.17-1.07,2.34-2.21,3.5-3.34,5.38-5.3,11-10.85,16.28-8.69a11.12,11.12,0,0,0,6.59.8Z"/><path class="cls-3" d="M26.37,6.19a10.86,10.86,0,0,1-6.77-.68c-2.41-1-5.07-.45-8.14,1.56a60.43,60.43,0,0,0-8.22,7.2C2.17,15.33,1.09,16.39,0,17.38v.05c1.09-1,2.19-2.07,3.26-3.12C8.65,9,14.23,3.43,19.57,5.55a10.89,10.89,0,0,0,6.8.69Z"/><path class="cls-3" d="M26.37,6.16a10.76,10.76,0,0,1-7-.57C17,4.65,14.31,5.18,11.24,7.2A60.2,60.2,0,0,0,3,14.43c-1,1-2,2-3,2.88v.05c1-.93,2-1.92,3-2.9,5.4-5.3,11-10.91,16.33-8.82a10.85,10.85,0,0,0,7,.57Z"/><path class="cls-3" d="M26.37,6.11a10.59,10.59,0,0,1-7.19-.42C16.77,4.76,14.09,5.3,11,7.34a61.66,61.66,0,0,0-8.24,7.24c-.92.9-1.84,1.8-2.77,2.66v.05c.94-.87,1.87-1.77,2.79-2.68,5.41-5.3,11-10.94,16.36-8.88a10.7,10.7,0,0,0,7.22.44Z"/><path class="cls-3" d="M26.37,6.07A10.55,10.55,0,0,1,19,5.78c-2.42-.92-5.1-.36-8.18,1.69a62,62,0,0,0-8.25,7.26C1.7,15.56.85,16.38,0,17.17v0c.86-.8,1.71-1.63,2.56-2.46C8,9.46,13.57,3.79,19,5.83a10.6,10.6,0,0,0,7.42.29Z"/><path class="cls-3" d="M26.37,6a10.44,10.44,0,0,1-7.6-.14c-2.43-.9-5.11-.32-8.2,1.74a62.91,62.91,0,0,0-8.26,7.27C1.54,15.63.77,16.38,0,17.1v0c.78-.73,1.56-1.48,2.33-2.24,5.41-5.3,11-11,16.41-9a10.58,10.58,0,0,0,7.63.15Z"/><path class="cls-3" d="M26.37,6a10.39,10.39,0,0,1-7.81,0c-2.44-.89-5.12-.3-8.22,1.77A63.94,63.94,0,0,0,2.07,15C1.38,15.71.69,16.38,0,17v0c.7-.66,1.4-1.34,2.09-2,5.43-5.31,11-11,16.44-9.06a10.43,10.43,0,0,0,7.84,0Z"/><path class="cls-3" d="M26.37,5.89a10.42,10.42,0,0,1-8,.17c-2.44-.87-5.13-.27-8.23,1.82a65,65,0,0,0-8.28,7.3C1.23,15.78.61,16.37,0,17V17c.62-.58,1.24-1.18,1.86-1.78,5.43-5.3,11.05-11,16.46-9.11a10.5,10.5,0,0,0,8.05-.17Z"/><path class="cls-3" d="M26.37,5.81a10.38,10.38,0,0,1-8.23.35C15.7,5.3,13,5.92,9.89,8A67.58,67.58,0,0,0,1.6,15.33c-.53.52-1.06,1-1.6,1.55v.05l1.62-1.56c5.44-5.3,11.07-11.07,16.5-9.16a10.45,10.45,0,0,0,6.56.28,11.72,11.72,0,0,0,1.69-.62Z"/><path class="cls-3" d="M26.37,5.74a10.49,10.49,0,0,1-8.44.52C15.48,5.41,12.78,6,9.67,8.15a67,67,0,0,0-8.3,7.33c-.46.45-.91.89-1.37,1.32v.05l1.39-1.33c5.44-5.3,11.08-11.09,16.52-9.21a10.43,10.43,0,0,0,6.56.22,13.6,13.6,0,0,0,1.9-.74Z"/><path class="cls-3" d="M26.37,5.65a10.47,10.47,0,0,1-8.64.71c-2.46-.84-5.17-.19-8.28,1.93a67.3,67.3,0,0,0-8.31,7.34L0,16.73v.05l1.15-1.11C6.61,10.37,12.24,4.56,17.7,6.41a10.24,10.24,0,0,0,6.55.16,14.08,14.08,0,0,0,2.12-.87Z"/><path class="cls-3" d="M26.37,5.56a10.57,10.57,0,0,1-8.85.9c-2.46-.82-5.18-.16-8.3,2A69.84,69.84,0,0,0,.9,15.78l-.9.87v.05l.92-.88C6.38,10.53,12,4.69,17.49,6.51A10.22,10.22,0,0,0,24,6.62a15.61,15.61,0,0,0,2.33-1Z"/><path class="cls-3" d="M26.37,5.47c-2.5,1.34-5.3,2.35-9.06,1.09-2.47-.81-5.19-.13-8.31,2A71,71,0,0,0,.67,15.93L0,16.57v.05L.69,16C6.15,10.68,11.8,4.82,17.28,6.61a10.11,10.11,0,0,0,6.54,0,15.37,15.37,0,0,0,2.55-1.14Z"/><path class="cls-3" d="M26.37,5.37C23.81,6.79,21,7.93,17.1,6.67c-2.47-.8-5.2-.11-8.33,2A71.22,71.22,0,0,0,.43,16.08L0,16.5v.05l.45-.44C5.92,10.84,11.58,5,17.08,6.71a10,10,0,0,0,6.53,0,16.94,16.94,0,0,0,2.76-1.29Z"/><path class="cls-3" d="M26.37,5.28c-2.67,1.55-5.5,2.78-9.48,1.49C11.37,5,5.69,11,.2,16.23l-.2.19v0l.22-.21C5.7,11,11.36,5.08,16.87,6.82a10,10,0,0,0,6.53-.06,17,17,0,0,0,3-1.45Z"/><path class="cls-3" d="M26.37,5.17c-2.73,1.64-5.61,3-9.68,1.71C11.16,5.16,5.49,11.08,0,16.34v.05C5.48,11.13,11.15,5.22,16.66,6.93a9.89,9.89,0,0,0,6.52-.12,19.41,19.41,0,0,0,3.19-1.6Z"/><path class="cls-3" d="M26.37,5.05C23.57,6.78,20.65,8.29,16.48,7,11,5.32,5.42,11.06,0,16.26v0C5.41,11.12,11,5.38,16.45,7A9.77,9.77,0,0,0,23,6.86a20.26,20.26,0,0,0,3.4-1.76Z"/><path class="cls-3" d="M26.37,4.94c-2.87,1.81-5.83,3.47-10.1,2.15-5.4-1.61-10.92,4-16.27,9.1v0C5.35,11.11,10.86,5.54,16.24,7.14a9.77,9.77,0,0,0,6.52-.22A21.25,21.25,0,0,0,26.37,5Z"/><path class="cls-3" d="M26.37,4.82c-2.94,1.9-5.95,3.7-10.31,2.39C10.73,5.64,5.29,11.05,0,16.11v.05C5.28,11.1,10.72,5.69,16,7.25A9.65,9.65,0,0,0,22.54,7a22.65,22.65,0,0,0,3.83-2.12Z"/><path class="cls-3" d="M26.37,4.7c-3,2-6.06,3.94-10.52,2.62C10.59,5.8,5.22,11,0,16v0c5.21-5,10.58-10.23,15.83-8.72A9.53,9.53,0,0,0,22.33,7a24,24,0,0,0,4-2.29Z"/><path class="cls-3" d="M26.37,4.57c-3.09,2.07-6.18,4.18-10.72,2.86C10.45,6,5.15,11,0,16V16C5.15,11.09,10.44,6,15.62,7.47a9.37,9.37,0,0,0,6.5-.37,24.81,24.81,0,0,0,4.25-2.48Z"/><path class="cls-3" d="M26.37,4.45C23.21,6.6,20.08,8.87,15.44,7.54,10.31,6.11,5.09,11,0,15.88v0c5.08-4.84,10.29-9.76,15.41-8.34a9.34,9.34,0,0,0,6.49-.43A27.73,27.73,0,0,0,26.37,4.5Z"/><path class="cls-3" d="M26.37,4.32C23.13,6.55,20,9,15.23,7.66,10.16,6.27,5,11,0,15.8v0C5,11.1,10.15,6.33,15.21,7.7a9.22,9.22,0,0,0,6.48-.48,28.55,28.55,0,0,0,4.68-2.85Z"/><path class="cls-3" d="M26.37,4.19C23.05,6.49,19.84,9.1,15,7.77,10,6.43,5,11.05,0,15.73v0c4.94-4.68,10-9.3,15-8a9.23,9.23,0,0,0,6.48-.53,31.33,31.33,0,0,0,4.89-3Z"/><path class="cls-3" d="M26.37,4.06C23,6.44,19.73,9.22,14.81,7.89S4.88,11.06,0,15.66v0c4.88-4.59,9.87-9.06,14.79-7.77a9.14,9.14,0,0,0,6.48-.57,34.55,34.55,0,0,0,5.1-3.25Z"/><path class="cls-3" d="M26.37,3.93l0,0C22.87,6.4,19.59,9.33,14.61,8S4.81,11.07,0,15.58v.05C4.81,11.12,9.73,6.8,14.58,8.05a9.12,9.12,0,0,0,6.47-.62A36.68,36.68,0,0,0,26.36,4h0Z"/><path class="cls-3" d="M26.37,3.8,26.13,4C22.66,6.45,19.37,9.42,14.4,8.13,9.6,6.91,4.75,11.08,0,15.51v.05C4.74,11.13,9.59,7,14.37,8.17c5,1.3,8.3-1.68,11.79-4.17l.21-.15Z"/><path class="cls-3" d="M26.37,3.67,25.93,4C22.45,6.5,19.16,9.52,14.19,8.24,9.46,7.06,4.68,11.1,0,15.44v.05c4.67-4.34,9.45-8.38,14.17-7.2C19.16,9.57,22.46,6.54,26,4l.41-.29Z"/><path class="cls-3" d="M26.37,3.54,25.73,4C22.24,6.56,18.94,9.61,14,8.36c-4.66-1.14-9.37,2.76-14,7v.05c4.61-4.25,9.31-8.15,14-7,5,1.25,8.29-1.81,11.79-4.38l.62-.44Z"/><path class="cls-3" d="M26.37,3.42,25.53,4c-3.5,2.61-6.8,5.7-11.76,4.48C9.18,7.38,4.54,11.14,0,15.3v0c4.54-4.16,9.16-7.92,13.75-6.82,5,1.23,8.29-1.87,11.8-4.48l.82-.59Z"/><path class="cls-3" d="M26.37,3.29c-.35.24-.7.48-1,.74-3.51,2.65-6.82,5.78-11.76,4.58C9,7.54,4.47,11.16,0,15.24v0c4.47-4.07,9-7.69,13.54-6.63,5,1.21,8.29-1.93,11.81-4.59l1-.72Z"/><path class="cls-3" d="M26.37,3.16c-.42.28-.83.58-1.25.89C21.61,6.74,18.3,9.91,13.36,8.73A9.27,9.27,0,0,0,6.73,10,38,38,0,0,0,0,15.17v0c4.4-4,8.88-7.47,13.33-6.43,5,1.18,8.3-2,11.82-4.7.4-.3.81-.59,1.22-.87Z"/><path class="cls-3" d="M26.37,3c-.49.32-1,.67-1.45,1C21.41,6.8,18.08,10,13.15,8.86c-4.4-1-8.81,2.36-13.15,6.25v0C4.33,11.26,8.74,7.9,13.13,8.9,18.08,10.06,21.42,6.84,25,4.11c.47-.36.94-.71,1.42-1Z"/><path class="cls-3" d="M26.37,2.91c-.56.37-1.1.77-1.65,1.19-3.52,2.77-6.85,6-11.78,4.88a9.38,9.38,0,0,0-6.66,1.34A36.69,36.69,0,0,0,0,15v.05c4.26-3.8,8.6-7,12.92-6.06,5,1.14,8.29-2.12,11.82-4.9.54-.41,1.08-.81,1.63-1.17Z"/><path class="cls-3" d="M26.37,2.79c-.62.4-1.24.86-1.85,1.34-3.53,2.81-6.86,6.09-11.79,5C8.47,8.17,4.2,11.28,0,15v0c4.2-3.7,8.46-6.82,12.71-5.88C17.66,10.27,21,7,24.54,4.16c.6-.47,1.21-.92,1.83-1.32Z"/><path class="cls-3" d="M26.37,2.67a23.55,23.55,0,0,0-2.05,1.48C20.78,7,17.44,10.33,12.53,9.23c-4.2-.91-8.4,2.09-12.53,5.7v0c4.13-3.61,8.32-6.6,12.5-5.69,4.94,1.1,8.29-2.24,11.84-5.1.67-.52,1.34-1,2-1.47Z"/><path class="cls-3" d="M26.37,2.55a26.12,26.12,0,0,0-2.25,1.63c-3.55,2.9-6.89,6.26-11.8,5.18-4.13-.88-8.26,2-12.32,5.51v0c4.06-3.51,8.18-6.38,12.3-5.5,4.93,1.07,8.28-2.3,11.84-5.2a25.72,25.72,0,0,1,2.23-1.62Z"/><path class="cls-3" d="M26.37,2.43a25.15,25.15,0,0,0-2.46,1.79C20.37,7.15,17,10.55,12.11,9.49,8.05,8.64,4,11.4,0,14.81v0c4-3.42,8-6.17,12.09-5.33C17,10.59,20.38,7.18,23.94,4.25a23.44,23.44,0,0,1,2.43-1.77Z"/><path class="cls-3" d="M26.37,2.31a23.66,23.66,0,0,0-2.66,1.94c-3.55,3-6.91,6.41-11.81,5.37-4-.82-8,1.82-11.9,5.14v0c3.92-3.32,7.9-6,11.88-5.14,4.92,1,8.29-2.4,11.86-5.38a23.15,23.15,0,0,1,2.63-1.92Z"/><path class="cls-3" d="M26.37,2.2a22.9,22.9,0,0,0-2.86,2.09c-3.56,3-6.92,6.48-11.82,5.46a9.76,9.76,0,0,0-6.76,1.44A32.41,32.41,0,0,0,0,14.71v0c3.85-3.22,7.76-5.75,11.67-5,4.92,1,8.29-2.46,11.87-5.47a21.83,21.83,0,0,1,2.83-2.08Z"/><path class="cls-3" d="M26.37,2.09a21.86,21.86,0,0,0-3.06,2.23c-3.57,3.05-6.94,6.56-11.82,5.56C7.63,9.11,3.79,11.53,0,14.66v0c3.78-3.12,7.62-5.54,11.46-4.78,4.91,1,8.29-2.51,11.87-5.57a23.08,23.08,0,0,1,3-2.22Z"/><path class="cls-3" d="M26.37,2a21.65,21.65,0,0,0-3.26,2.38C19.54,7.45,16.16,11,11.28,10a10,10,0,0,0-6.8,1.46A32.45,32.45,0,0,0,0,14.62v0c3.71-3,7.48-5.35,11.26-4.61a8.6,8.6,0,0,0,6.42-1.28,43.22,43.22,0,0,0,5.45-4.38A21.43,21.43,0,0,1,26.37,2Z"/><path class="cls-3" d="M26.37,1.87A21.37,21.37,0,0,0,22.91,4.4c-3.58,3.13-7,6.71-11.84,5.74C7.36,9.42,3.65,11.63,0,14.57v0c3.65-2.93,7.34-5.14,11.05-4.43a8.55,8.55,0,0,0,6.42-1.32,43.64,43.64,0,0,0,5.46-4.43,20.51,20.51,0,0,1,3.44-2.51Z"/><path class="cls-3" d="M26.37,1.77a20.63,20.63,0,0,0-3.66,2.68c-3.59,3.16-7,6.78-11.85,5.82C7.22,9.58,3.58,11.69,0,14.53v0c3.58-2.84,7.2-5,10.84-4.25A8.58,8.58,0,0,0,17.26,9a43.46,43.46,0,0,0,5.47-4.49,20.87,20.87,0,0,1,3.64-2.66Z"/><path class="cls-3" d="M26.37,1.66a20.74,20.74,0,0,0-3.86,2.83c-3.59,3.21-7,6.86-11.86,5.92C7.08,9.73,3.51,11.75,0,14.5v0c3.51-2.74,7.06-4.75,10.63-4.08a8.6,8.6,0,0,0,6.42-1.39,44.07,44.07,0,0,0,5.48-4.54,20.05,20.05,0,0,1,3.84-2.81Z"/><path class="cls-3" d="M26.37,1.56a19.76,19.76,0,0,0-4.06,3c-3.6,3.24-7,6.92-11.86,6-3.51-.65-7,1.27-10.45,3.92v0c3.44-2.65,6.92-4.57,10.42-3.92a8.53,8.53,0,0,0,6.42-1.42,44.79,44.79,0,0,0,5.49-4.6,19.85,19.85,0,0,1,4-2.95Z"/><path class="cls-3" d="M26.37,1.47a19.28,19.28,0,0,0-4.26,3.12c-3.61,3.28-7,7-11.87,6.09C6.8,10.05,3.38,11.87,0,14.43v0c3.37-2.56,6.79-4.38,10.22-3.75a8.5,8.5,0,0,0,6.41-1.46,45.26,45.26,0,0,0,5.5-4.65,19.4,19.4,0,0,1,4.24-3.1Z"/><path class="cls-3" d="M26.37,1.51a20,20,0,0,0-4.06,3c-3.6,3.24-7,6.92-11.86,6-3.51-.65-7,1.27-10.45,3.92v0c3.44-2.64,6.92-4.56,10.42-3.91a8.53,8.53,0,0,0,6.42-1.42,44.79,44.79,0,0,0,5.49-4.6,19.91,19.91,0,0,1,4-3Z"/><path class="cls-3" d="M26.37,1.56a19.87,19.87,0,0,0-3.86,2.83c-3.59,3.2-7,6.85-11.86,5.91C7.08,9.63,3.51,11.64,0,14.39v0c3.51-2.74,7.06-4.76,10.63-4.08A8.56,8.56,0,0,0,17.05,9a44.07,44.07,0,0,0,5.48-4.54A20.49,20.49,0,0,1,26.37,1.6Z"/><path class="cls-3" d="M26.37,1.61a20.63,20.63,0,0,0-3.66,2.68c-3.59,3.17-7,6.78-11.85,5.83C7.22,9.42,3.58,11.53,0,14.38v0c3.58-2.84,7.2-4.95,10.84-4.26A8.56,8.56,0,0,0,17.26,8.8a44.25,44.25,0,0,0,5.47-4.48,20.43,20.43,0,0,1,3.64-2.67Z"/><path class="cls-3" d="M26.37,1.67A20.79,20.79,0,0,0,22.91,4.2c-3.58,3.12-7,6.7-11.84,5.73C7.35,9.21,3.65,11.43,0,14.37v0C3.65,11.47,7.34,9.26,11.05,10a8.64,8.64,0,0,0,6.42-1.33,43.64,43.64,0,0,0,5.46-4.43,20.51,20.51,0,0,1,3.44-2.51Z"/><path class="cls-3" d="M26.37,1.72A21.65,21.65,0,0,0,23.11,4.1c-3.57,3.09-6.95,6.64-11.83,5.65C7.49,9,3.72,11.32,0,14.36v0c3.71-3,7.48-5.35,11.26-4.61A8.56,8.56,0,0,0,17.68,8.5a43.12,43.12,0,0,0,5.45-4.37,21.43,21.43,0,0,1,3.24-2.37Z"/><path class="cls-3" d="M26.37,1.78A21.86,21.86,0,0,0,23.31,4c-3.57,3.05-6.94,6.56-11.82,5.56C7.63,8.8,3.79,11.22,0,14.35v0c3.78-3.13,7.62-5.55,11.46-4.78,4.91,1,8.29-2.51,11.87-5.57a23.08,23.08,0,0,1,3-2.22Z"/><path class="cls-3" d="M26.37,1.84a22.8,22.8,0,0,0-2.86,2.08c-3.56,3-6.92,6.49-11.82,5.47-3.92-.8-7.83,1.73-11.69,5v0c3.85-3.23,7.76-5.76,11.67-5C16.59,10.45,20,7,23.53,4a23.56,23.56,0,0,1,2.84-2.07Z"/><path class="cls-3" d="M26.37,1.9a23.66,23.66,0,0,0-2.66,1.94c-3.55,3-6.91,6.4-11.81,5.36-4-.82-8,1.82-11.9,5.15v0c3.92-3.31,7.9-6,11.88-5.14,4.92,1,8.29-2.4,11.86-5.38a23.15,23.15,0,0,1,2.63-1.92Z"/><path class="cls-3" d="M26.37,2a23.89,23.89,0,0,0-2.45,1.79C20.37,6.68,17,10.08,12.11,9,8.05,8.17,4,10.93,0,14.35v0C4,11,8,8.22,12.09,9.06,17,10.12,20.38,6.71,23.94,3.78A23.44,23.44,0,0,1,26.37,2Z"/><path class="cls-3" d="M26.37,2a24.27,24.27,0,0,0-2.25,1.64c-3.55,2.89-6.89,6.25-11.8,5.17C8.19,8,4.06,10.84,0,14.35v0C4.06,10.88,8.18,8,12.3,8.88,17.23,10,20.58,6.59,24.14,3.69a25.72,25.72,0,0,1,2.23-1.62Z"/><path class="cls-3" d="M26.37,2.1a23.55,23.55,0,0,0-2.05,1.48c-3.54,2.86-6.88,6.18-11.8,5.08C8.33,7.75,4.13,10.75,0,14.36v0C4.13,10.79,8.32,7.8,12.5,8.7c4.94,1.1,8.29-2.23,11.84-5.09.67-.52,1.34-1,2-1.47Z"/><path class="cls-3" d="M26.37,2.17c-.62.4-1.24.86-1.85,1.33-3.53,2.81-6.86,6.1-11.79,5C8.47,7.55,4.2,10.66,0,14.36v0c4.2-3.7,8.46-6.81,12.71-5.88,4.95,1.12,8.29-2.17,11.83-5,.6-.47,1.21-.92,1.83-1.32Z"/><path class="cls-3" d="M26.37,2.24c-.55.36-1.1.77-1.65,1.18-3.52,2.77-6.85,6-11.78,4.89C8.61,7.34,4.27,10.57,0,14.37v0c4.26-3.8,8.6-7,12.92-6.06,5,1.14,8.29-2.12,11.82-4.9.54-.41,1.08-.81,1.63-1.17Z"/><path class="cls-3" d="M26.37,2.31c-.49.33-1,.68-1.45,1-3.51,2.73-6.84,5.94-11.77,4.78-4.4-1-8.81,2.36-13.15,6.25v0c4.33-3.89,8.74-7.25,13.13-6.25,4.95,1.16,8.29-2.06,11.81-4.79.48-.36.95-.71,1.43-1Z"/><path class="cls-3" d="M26.37,2.38c-.42.28-.83.59-1.24.89C21.62,6,18.3,9.13,13.36,8,8.89,6.92,4.41,10.41,0,14.39v0C4.4,10.45,8.88,7,13.34,8c5,1.19,8.28-2,11.81-4.69.4-.3.81-.6,1.22-.87Z"/><path class="cls-3" d="M26.37,2.46l-1,.74C21.82,5.85,18.51,9,13.56,7.78,9,6.71,4.47,10.33,0,14.41v0c4.47-4.07,9-7.69,13.54-6.62,5,1.2,8.29-1.94,11.81-4.59l1-.73Z"/><path class="cls-3" d="M26.37,2.54l-.84.59c-3.5,2.61-6.8,5.7-11.76,4.48C9.18,6.5,4.54,10.26,0,14.42v0C4.54,10.3,9.16,6.54,13.75,7.64c5,1.23,8.29-1.87,11.8-4.48l.82-.58Z"/><path class="cls-3" d="M26.37,2.61l-.64.45C22.24,5.63,18.94,8.68,14,7.43c-4.66-1.14-9.37,2.76-14,7v0c4.61-4.25,9.31-8.15,14-7,5,1.25,8.29-1.81,11.79-4.38l.62-.43Z"/><path class="cls-3" d="M26.37,2.69l-.44.3c-3.48,2.53-6.77,5.54-11.74,4.27C9.46,6.08,4.68,10.11,0,14.46v0C4.67,10.16,9.45,6.12,14.17,7.3,19.16,8.58,22.46,5.55,26,3l.42-.29Z"/><path class="cls-3" d="M26.37,2.77l-.23.16C22.66,5.41,19.37,8.39,14.4,7.09c-4.8-1.22-9.65,3-14.4,7.39v0c4.74-4.42,9.59-8.6,14.38-7.38a9.31,9.31,0,0,0,3.46.24,9.84,9.84,0,0,0,3-.91A37.78,37.78,0,0,0,26.16,3l.21-.15Z"/><path class="cls-3" d="M26.37,2.84l0,0C22.87,5.31,19.59,8.24,14.6,6.92S4.81,10,0,14.5v0C4.81,10,9.73,5.7,14.58,7a9.4,9.4,0,0,0,3.47.26,9.52,9.52,0,0,0,3-.89A37.47,37.47,0,0,0,26.36,2.9V2.84Z"/><path class="cls-3" d="M26.37,2.92C23,5.3,19.72,8.08,14.81,6.75S4.88,9.92,0,14.52v0C4.88,10,9.87,5.49,14.79,6.79a9.64,9.64,0,0,0,3.47.28,9.84,9.84,0,0,0,3-.86A34.25,34.25,0,0,0,26.37,3Z"/><path class="cls-3" d="M26.37,3C23.05,5.3,19.84,7.91,15,6.58,10,5.24,5,9.86,0,14.54v0c5-4.68,10-9.3,15-8a9.45,9.45,0,0,0,3.47.3,9.76,9.76,0,0,0,3-.83,31.33,31.33,0,0,0,4.89-3Z"/><path class="cls-3" d="M26.37,3.08C23.13,5.3,20,7.74,15.23,6.41,10.16,5,5,9.8,0,14.56v0C5,9.84,10.15,5.07,15.21,6.45a9.48,9.48,0,0,0,3.47.33,9.85,9.85,0,0,0,3-.81,29.71,29.71,0,0,0,4.68-2.85Z"/><path class="cls-3" d="M26.37,3.15c-3.16,2.15-6.29,4.42-10.93,3.1C10.3,4.82,5.08,9.75,0,14.59v0C5.08,9.79,10.3,4.86,15.42,6.28a9.56,9.56,0,0,0,3.48.35,9.25,9.25,0,0,0,3-.78,26.35,26.35,0,0,0,4.47-2.66Z"/><path class="cls-3" d="M26.37,3.23C23.28,5.3,20.19,7.41,15.64,6.08a7.39,7.39,0,0,0-4.21.1A15.34,15.34,0,0,0,7.2,8.35,66.37,66.37,0,0,0,0,14.61v0c5.15-4.91,10.44-10,15.62-8.53a9.89,9.89,0,0,0,3.49.37,9.85,9.85,0,0,0,3-.75,25.2,25.2,0,0,0,4.25-2.48Z"/><path class="cls-3" d="M26.37,3.3c-3,2-6.06,3.94-10.52,2.62a7.26,7.26,0,0,0-4.2.08A14.58,14.58,0,0,0,7.43,8.16,66.57,66.57,0,0,0,0,14.63v0C5.21,9.69,10.58,4.44,15.83,6a9.93,9.93,0,0,0,3.49.4,9.71,9.71,0,0,0,3-.72,23.76,23.76,0,0,0,4-2.3Z"/><path class="cls-3" d="M26.37,3.37c-2.94,1.9-5.95,3.7-10.31,2.38a7.34,7.34,0,0,0-4.2.07A15,15,0,0,0,7.65,8,68.94,68.94,0,0,0,0,14.66v0C5.28,9.64,10.72,4.23,16,5.79a10,10,0,0,0,3.49.42,9.59,9.59,0,0,0,3-.69A22.65,22.65,0,0,0,26.37,3.4Z"/><path class="cls-3" d="M26.37,3.44c-2.87,1.81-5.84,3.47-10.1,2.15a7.22,7.22,0,0,0-4.19,0,14.46,14.46,0,0,0-4.2,2.13A70.23,70.23,0,0,0,0,14.69v0C5.35,9.59,10.86,4,16.25,5.63a10,10,0,0,0,3.5.44,9.53,9.53,0,0,0,3-.66,22.07,22.07,0,0,0,3.62-1.94Z"/><path class="cls-3" d="M26.37,3.5c-2.8,1.73-5.72,3.24-9.9,1.93a7.23,7.23,0,0,0-4.17,0A14.41,14.41,0,0,0,8.1,7.58,70.49,70.49,0,0,0,0,14.71v0C5.41,9.55,11,3.81,16.46,5.47a10.32,10.32,0,0,0,3.5.47,9.84,9.84,0,0,0,3-.64,19.59,19.59,0,0,0,3.4-1.77Z"/><path class="cls-3" d="M26.37,3.56c-2.73,1.64-5.61,3-9.69,1.71a7.22,7.22,0,0,0-4.17,0,14.73,14.73,0,0,0-4.18,2.1A73,73,0,0,0,0,14.74v0C5.48,9.51,11.15,3.6,16.66,5.31a10.19,10.19,0,0,0,3.51.49,9.72,9.72,0,0,0,3-.61,18.66,18.66,0,0,0,3.19-1.6Z"/><path class="cls-3" d="M26.37,3.62c-2.67,1.55-5.5,2.79-9.48,1.49a7.18,7.18,0,0,0-4.16,0A14.12,14.12,0,0,0,8.55,7.19,73.3,73.3,0,0,0,.2,14.57l-.2.19v0l.21-.21C5.7,9.32,11.36,3.41,16.87,5.15a10.28,10.28,0,0,0,3.51.52,9.73,9.73,0,0,0,3-.58,18.13,18.13,0,0,0,3-1.45Z"/><path class="cls-3" d="M26.37,3.66C23.81,5.09,21,6.22,17.1,5a7.06,7.06,0,0,0-4.15,0A14.19,14.19,0,0,0,8.77,7,72.09,72.09,0,0,0,.44,14.37L0,14.79v0l.45-.43C5.92,9.11,11.58,3.23,17.08,5a10.61,10.61,0,0,0,3.52.55,9.62,9.62,0,0,0,3-.55A16.94,16.94,0,0,0,26.37,3.7Z"/><path class="cls-3" d="M26.37,3.71c-2.5,1.34-5.3,2.35-9.06,1.09a7.14,7.14,0,0,0-4.15,0A14.05,14.05,0,0,0,9,6.81,69.25,69.25,0,0,0,.67,14.17L0,14.81v0l.68-.66C6.15,8.91,11.8,3,17.29,4.84a10.92,10.92,0,0,0,3.52.57,9.57,9.57,0,0,0,3-.52,16.28,16.28,0,0,0,2.55-1.15Z"/><path class="cls-3" d="M26.37,3.75a10.59,10.59,0,0,1-8.86.9,7,7,0,0,0-4.13-.07,14,14,0,0,0-4.16,2A69,69,0,0,0,.9,14l-.9.87v0L.92,14C6.38,8.7,12,2.86,17.5,4.68a10.72,10.72,0,0,0,3.52.6,9.59,9.59,0,0,0,3-.49,15.57,15.57,0,0,0,2.33-1Z"/><path class="cls-3" d="M26.37,3.79a10.49,10.49,0,0,1-8.65.7,7,7,0,0,0-4.12-.08,13.65,13.65,0,0,0-4.15,2,69,69,0,0,0-8.31,7.35L0,14.86v0l1.15-1.11C6.61,8.5,12.25,2.68,17.7,4.53a11.46,11.46,0,0,0,3.54.63,10.09,10.09,0,0,0,3-.46,15.2,15.2,0,0,0,2.12-.87Z"/><path class="cls-3" d="M26.37,3.82a10.45,10.45,0,0,1-8.44.52,7,7,0,0,0-4.12-.11,13.91,13.91,0,0,0-4.14,2,67.14,67.14,0,0,0-8.3,7.34L0,14.89v0l1.39-1.33C6.83,8.29,12.47,2.5,17.91,4.38A11.27,11.27,0,0,0,21.45,5a9.51,9.51,0,0,0,3-.43,15,15,0,0,0,1.9-.74Z"/><path class="cls-3" d="M26.37,3.85a10.43,10.43,0,0,1-8.23.34A6.91,6.91,0,0,0,14,4.06a13.38,13.38,0,0,0-4.14,2,65.87,65.87,0,0,0-8.28,7.31L0,14.91v0l1.62-1.55c5.44-5.3,11.07-11.08,16.5-9.17a11.37,11.37,0,0,0,3.54.69,9.73,9.73,0,0,0,3-.4,13.07,13.07,0,0,0,1.69-.63Z"/><path class="cls-3" d="M26.37,3.87a10.42,10.42,0,0,1-8,.17,7,7,0,0,0-4.1-.15,13.25,13.25,0,0,0-4.13,2,65,65,0,0,0-8.28,7.3L0,14.94v0l1.85-1.79c5.44-5.3,11.06-11,16.48-9.11a11.45,11.45,0,0,0,3.55.72,9.74,9.74,0,0,0,3-.37,13.38,13.38,0,0,0,1.47-.51Z"/><path class="cls-3" d="M26.37,3.88a10.42,10.42,0,0,1-7.82,0,6.92,6.92,0,0,0-4.09-.17,13.34,13.34,0,0,0-4.12,1.95A63.88,63.88,0,0,0,2.08,13L0,15v0c.7-.66,1.4-1.33,2.09-2,5.43-5.3,11-11,16.45-9a11.8,11.8,0,0,0,3.55.74,10,10,0,0,0,3-.33q.64-.18,1.26-.42Z"/><path class="cls-3" d="M26.37,3.89a10.47,10.47,0,0,1-7.61-.14,6.8,6.8,0,0,0-4.08-.2,13.1,13.1,0,0,0-4.11,1.93,63,63,0,0,0-8.26,7.28C1.54,13.51.77,14.26,0,15v0c.78-.73,1.55-1.48,2.32-2.23,5.42-5.31,11-11,16.42-9a10.53,10.53,0,0,0,7.63.15Z"/><path class="cls-3" d="M26.37,3.89A10.55,10.55,0,0,1,19,3.6a6.78,6.78,0,0,0-4.07-.22A12.83,12.83,0,0,0,10.79,5.3a61.83,61.83,0,0,0-8.25,7.25C1.7,13.38.85,14.2,0,15v0c.86-.8,1.71-1.63,2.56-2.46C8,7.27,13.57,1.6,19,3.63a10.56,10.56,0,0,0,7.42.3Z"/><path class="cls-3" d="M26.37,3.89a10.66,10.66,0,0,1-7.19-.43,6.67,6.67,0,0,0-4.06-.24A12.56,12.56,0,0,0,11,5.11a61,61,0,0,0-8.24,7.24C1.86,13.25.93,14.16,0,15v0c.94-.87,1.87-1.78,2.79-2.68,5.41-5.3,11-10.95,16.37-8.88a10.66,10.66,0,0,0,7.21.43Z"/><path class="cls-3" d="M26.37,3.88a10.78,10.78,0,0,1-7-.56,6.71,6.71,0,0,0-4-.27,12.74,12.74,0,0,0-4.09,1.87A60.78,60.78,0,0,0,3,12.14c-1,1-2,2-3,2.89v0c1-.94,2-1.92,3-2.9C8.43,6.87,14,1.25,19.37,3.35a10.74,10.74,0,0,0,7,.56Z"/><path class="cls-3" d="M26.37,3.86a10.83,10.83,0,0,1-6.78-.69,6.68,6.68,0,0,0-4-.28,12.44,12.44,0,0,0-4.09,1.85,58.46,58.46,0,0,0-8.21,7.2C2.17,13,1.09,14.06,0,15.05v0C1.09,14.08,2.18,13,3.26,12c5.39-5.3,11-10.88,16.32-8.75a10.92,10.92,0,0,0,6.79.68Z"/><path class="cls-3" d="M26.37,3.83A11,11,0,0,1,19.8,3a6.72,6.72,0,0,0-4-.32,12.36,12.36,0,0,0-4.08,1.84,57.62,57.62,0,0,0-8.21,7.18C2.33,12.87,1.17,14,0,15.06v0C1.17,14,2.34,12.89,3.49,11.76,8.88,6.46,14.45.9,19.78,3.07a11.12,11.12,0,0,0,6.59.8Z"/><path class="cls-3" d="M26.37,3.8A11.25,11.25,0,0,1,20,2.9a6.65,6.65,0,0,0-4-.34,12.28,12.28,0,0,0-4.07,1.81,58.47,58.47,0,0,0-8.2,7.16C2.48,12.74,1.24,14,0,15.08v0C1.25,14,2.5,12.76,3.73,11.55,9.11,6.26,14.67.73,20,2.93a11.31,11.31,0,0,0,6.38.9Z"/><path class="cls-3" d="M26.37,3.76a11.4,11.4,0,0,1-6.15-1,6.7,6.7,0,0,0-4-.36,12.06,12.06,0,0,0-4.06,1.79A57,57,0,0,0,4,11.33C2.64,12.61,1.32,13.91,0,15.09v0c1.33-1.19,2.66-2.49,4-3.77C9.34,6.06,14.89.56,20.2,2.79a11.84,11.84,0,0,0,6.17,1Z"/><path class="cls-3" d="M26.37,3.71a11.61,11.61,0,0,1-5.95-1.08,6.66,6.66,0,0,0-4-.39A12.23,12.23,0,0,0,12.36,4a56,56,0,0,0-8.18,7.11C2.8,12.49,1.4,13.86,0,15.1v0c1.41-1.25,2.81-2.63,4.2-4C9.56,5.86,15.11.39,20.41,2.66a12.11,12.11,0,0,0,6,1.08Z"/><path class="cls-3" d="M26.37,3.66a12,12,0,0,1-5.74-1.17,6.56,6.56,0,0,0-4-.4,11.7,11.7,0,0,0-4,1.74,54.59,54.59,0,0,0-8.16,7.09C3,12.36,1.48,13.81,0,15.11v0c1.49-1.31,3-2.77,4.43-4.2C9.79,5.66,15.33.23,20.61,2.52a12.6,12.6,0,0,0,5.76,1.17Z"/><path class="cls-3" d="M26.37,3.6a12.33,12.33,0,0,1-5.53-1.24,6.54,6.54,0,0,0-4-.43,11.7,11.7,0,0,0-4,1.72,54.3,54.3,0,0,0-8.16,7.06c-1.54,1.52-3.09,3-4.65,4.4v0c1.56-1.37,3.13-2.9,4.66-4.41C10,5.46,15.55.06,20.82,2.39a12.79,12.79,0,0,0,5.55,1.23Z"/><path class="cls-3" d="M26.37,3.53a12.68,12.68,0,0,1-5.32-1.3,6.62,6.62,0,0,0-4-.46,11.73,11.73,0,0,0-4,1.7,54,54,0,0,0-8.15,7C3.27,12.1,1.64,13.71,0,15.11v0c1.64-1.42,3.29-3,4.9-4.62C10.25,5.27,15.78-.1,21,2.26a13.18,13.18,0,0,0,5.34,1.29Z"/><path class="cls-3" d="M26.37,3.45A12.8,12.8,0,0,1,21.26,2.1a6.6,6.6,0,0,0-4-.48,11.42,11.42,0,0,0-4,1.67,52.16,52.16,0,0,0-8.14,7C3.43,12,1.72,13.66,0,15.12v0C1.72,13.69,3.44,12,5.13,10.33,10.47,5.07,16-.27,21.24,2.13a13.54,13.54,0,0,0,5.13,1.34Z"/><path class="cls-3" d="M26.37,3.37A13.67,13.67,0,0,1,21.46,2a6.39,6.39,0,0,0-4-.51,11.16,11.16,0,0,0-4,1.65,52.12,52.12,0,0,0-8.13,7c-1.77,1.74-3.56,3.51-5.35,5v0c1.8-1.52,3.6-3.29,5.37-5C10.7,4.87,16.22-.43,21.45,2a14.43,14.43,0,0,0,4.92,1.38Z"/><path class="cls-3" d="M26.37,3.28a14,14,0,0,1-4.7-1.43,6.55,6.55,0,0,0-4-.54,11.3,11.3,0,0,0-4,1.63,51.31,51.31,0,0,0-8.11,7C3.74,11.71,1.87,13.56,0,15.11v0c1.88-1.56,3.76-3.42,5.6-5.23,5.33-5.24,10.84-10.51,16-8A15,15,0,0,0,26.37,3.3Z"/><path class="cls-3" d="M26.37,3.16a14.32,14.32,0,0,1-4.49-1.43,6.54,6.54,0,0,0-3.95-.57,11.11,11.11,0,0,0-4,1.61A50.42,50.42,0,0,0,5.82,9.69C3.9,11.58,2,13.51,0,15.11v0c2-1.61,3.92-3.54,5.83-5.43,5.32-5.23,10.83-10.46,16-8a15.13,15.13,0,0,0,4.51,1.43Z"/><path class="cls-3" d="M26.37,3.05a14.65,14.65,0,0,1-4.28-1.44A6.43,6.43,0,0,0,18.15,1a11,11,0,0,0-4,1.57,49.73,49.73,0,0,0-8.09,6.9c-2,2-4,4-6.06,5.61v0c2-1.65,4.08-3.68,6.07-5.63,5.31-5.22,10.81-10.42,16-7.87a16.16,16.16,0,0,0,4.3,1.45Z"/><path class="cls-3" d="M26.37,2.94A15.23,15.23,0,0,1,22.3,1.49,6.43,6.43,0,0,0,18.37.87a10.86,10.86,0,0,0-4,1.55A48.49,48.49,0,0,0,6.29,9.29c-2.08,2-4.18,4.12-6.29,5.8v0c2.11-1.68,4.23-3.79,6.3-5.81,5.31-5.22,10.8-10.38,16-7.8A16.18,16.18,0,0,0,26.37,3Z"/><path class="cls-3" d="M26.37,2.82A16.18,16.18,0,0,1,22.5,1.37,6.47,6.47,0,0,0,18.58.72a10.81,10.81,0,0,0-4,1.53A48,48,0,0,0,6.52,9.08a83.35,83.35,0,0,1-6.52,6v0a85.72,85.72,0,0,0,6.54-6c5.3-5.2,10.78-10.32,16-7.7a17.4,17.4,0,0,0,3.88,1.45Z"/><path class="cls-3" d="M26.37,2.7a16.76,16.76,0,0,1-3.66-1.45A6.45,6.45,0,0,0,18.8.58a10.53,10.53,0,0,0-4,1.5,47.2,47.2,0,0,0-8.06,6.8A81.23,81.23,0,0,1,0,15.06v0A83.6,83.6,0,0,0,6.77,8.9C12.06,3.71,17.54-1.38,22.69,1.28a17.87,17.87,0,0,0,3.68,1.44Z"/><path class="cls-3" d="M26.37,2.57a18,18,0,0,1-3.45-1.43A6.39,6.39,0,0,0,19,.44a10.35,10.35,0,0,0-4,1.47A46.5,46.5,0,0,0,7,8.68,79.51,79.51,0,0,1,0,15v0A81.67,81.67,0,0,0,7,8.7C12.29,3.52,17.76-1.53,22.9,1.17A18.14,18.14,0,0,0,26.37,2.6Z"/><path class="cls-3" d="M26.37,2.43A17.9,17.9,0,0,1,23.13,1,6.45,6.45,0,0,0,19.23.3a10.13,10.13,0,0,0-4,1.45,45.55,45.55,0,0,0-8,6.72A78.26,78.26,0,0,1,0,15v0A77.5,77.5,0,0,0,7.24,8.49C12.52,3.33,18-1.68,23.11,1.05a18,18,0,0,0,3.26,1.41Z"/><path class="cls-3" d="M26.37,2.29a19.55,19.55,0,0,1-3-1.38A6.4,6.4,0,0,0,19.45.16,10.26,10.26,0,0,0,15.5,1.58a44.46,44.46,0,0,0-8,6.69A76.06,76.06,0,0,1,0,15v0A76.4,76.4,0,0,0,7.47,8.29C12.75,3.14,18.2-1.83,23.32.94a19.62,19.62,0,0,0,3.05,1.38Z"/><path class="cls-3" d="M20.86,0h-.94l-.26,0a10.12,10.12,0,0,0-3.94,1.39,44.13,44.13,0,0,0-8,6.66A74.12,74.12,0,0,1,0,15v0A75.76,75.76,0,0,0,7.71,8.09C13,3,18.42-2,23.53.83a20.24,20.24,0,0,0,2.84,1.34v0A19,19,0,0,1,23.54.8,6.54,6.54,0,0,0,20.86,0Z"/><path class="cls-3" d="M19.12,0a10.89,10.89,0,0,0-3.18,1.25,43.29,43.29,0,0,0-8,6.62A72.61,72.61,0,0,1,0,14.94v0A72.81,72.81,0,0,0,7.94,7.89C11.83,4.11,15.56.69,19.21,0Z"/><path class="cls-3" d="M21.94,0h-.13a6.84,6.84,0,0,1,1.92.72A24.13,24.13,0,0,0,26.37,2h0A23.07,23.07,0,0,1,23.75.7,6.84,6.84,0,0,0,21.94,0Z"/><path class="cls-3" d="M18.74,0a11,11,0,0,0-2.57,1.09,42.58,42.58,0,0,0-8,6.58A70.22,70.22,0,0,1,0,14.9v0A71.54,71.54,0,0,0,8.18,7.69C11.84,4.14,15.36.91,18.81,0Z"/><path class="cls-3" d="M22.59,0h-.1a6.73,6.73,0,0,1,1.45.62c.84.47,1.65.87,2.43,1.21h0A24,24,0,0,1,24,.59,6.83,6.83,0,0,0,22.59,0Z"/><path class="cls-3" d="M18.47,0a12,12,0,0,0-2.08.93,41.8,41.8,0,0,0-8,6.54A68.32,68.32,0,0,1,0,14.86v0l.08-.05A71,71,0,0,0,8.41,7.49C11.89,4.12,15.25,1.05,18.53,0Z"/><path class="cls-3" d="M23.12,0H23a6.16,6.16,0,0,1,1.11.52c.76.43,1.51.81,2.22,1.14v0A22.49,22.49,0,0,1,24.17.49,6.63,6.63,0,0,0,23.12,0Z"/><path class="cls-3" d="M23.6,0h-.07a9.09,9.09,0,0,1,.83.41c.69.41,1.36.76,2,1.07h0c-.62-.3-1.29-.66-2-1.08A6.18,6.18,0,0,0,23.6,0Z"/><path class="cls-3" d="M18.28,0a12.23,12.23,0,0,0-1.67.77,41.76,41.76,0,0,0-8,6.49A66.05,66.05,0,0,1,0,14.82v0l.31-.2A72.09,72.09,0,0,0,8.64,7.29C12,4.07,15.18,1.15,18.33,0Z"/><path class="cls-3" d="M18.12,0a13.32,13.32,0,0,0-1.28.61,40.45,40.45,0,0,0-8,6.46C6,9.87,3,12.86,0,14.78v0l.53-.36A73.17,73.17,0,0,0,8.88,7.09C12.07,4,15.15,1.22,18.16,0Z"/><path class="cls-3" d="M24,0H24c.2.09.4.2.6.31.61.37,1.22.7,1.8,1h0c-.56-.29-1.16-.62-1.79-1C24.4.18,24.22.09,24,0Z"/><path class="cls-3" d="M24.45,0h-.07l.39.22c.55.32,1.08.62,1.6.89h0c-.5-.27-1-.57-1.58-.91Z"/><path class="cls-3" d="M18,0q-.45.2-.93.45a40,40,0,0,0-8,6.42c-3,2.87-6,5.94-9.1,7.86v0c.25-.16.5-.32.75-.5A72.63,72.63,0,0,0,9.11,6.89C12.17,4,15.13,1.27,18,0Z"/><path class="cls-3" d="M17.88,0l-.59.3c-2.62,1.38-5.33,3.86-8,6.37-3.07,2.94-6.2,6.09-9.33,8v0c.32-.19.65-.4,1-.63A74.66,74.66,0,0,0,9.35,6.69C12.28,3.87,15.13,1.3,17.92,0Z"/><path class="cls-3" d="M24.83,0h-.06L25,.12c.48.29.94.56,1.39.8v0C25.93.66,25.47.39,25,.09Z"/><path class="cls-3" d="M17.8,0l-.29.14A39.23,39.23,0,0,0,9.57,6.47c-3.15,3-6.36,6.24-9.57,8.15v0q.59-.35,1.2-.78A74.73,74.73,0,0,0,9.58,6.49C12.4,3.79,15.15,1.32,17.83,0Z"/><path class="cls-3" d="M25.2,0h-.06l.05,0c.4.25.8.48,1.18.7v0C26,.49,25.61.26,25.21,0Z"/><path class="cls-3" d="M17.71,0A38.68,38.68,0,0,0,9.8,6.27C6.58,9.34,3.29,12.66,0,14.56v0c.46-.27.94-.57,1.43-.91a76.92,76.92,0,0,0,8.38-7.4A38.31,38.31,0,0,1,17.75,0Z"/><path class="cls-3" d="M25.5,0l.87.54v0L25.55,0Z"/><path class="cls-3" d="M17.66,0A39.4,39.4,0,0,0,10,6.08C6.74,9.21,3.37,12.61,0,14.5v0c.53-.3,1.08-.65,1.65-1a80.4,80.4,0,0,0,8.4-7.4A38.68,38.68,0,0,1,17.69,0Z"/><path class="cls-3" d="M17.6,0a40.62,40.62,0,0,0-7.33,5.88C6.89,9.07,3.45,12.56,0,14.43v0A20.14,20.14,0,0,0,1.87,13.3a79.46,79.46,0,0,0,8.41-7.4A39.94,39.94,0,0,1,17.64,0Z"/><path class="cls-3" d="M17.56,0a41.42,41.42,0,0,0-7,5.68C7.05,8.94,3.53,12.52,0,14.36v0a23,23,0,0,0,2.1-1.29A81.86,81.86,0,0,0,10.52,5.7,41,41,0,0,1,17.59,0Z"/><path class="cls-3" d="M17.52,0a43,43,0,0,0-6.78,5.49C7.21,8.8,3.61,12.46,0,14.28v0a19.48,19.48,0,0,0,2.32-1.41,80.91,80.91,0,0,0,8.43-7.4A42.23,42.23,0,0,1,17.56,0Z"/><path class="cls-3" d="M17.49,0A42.87,42.87,0,0,0,11,5.3c-3.6,3.37-7.29,7.11-11,8.91v0a19.83,19.83,0,0,0,2.55-1.52A84.5,84.5,0,0,0,11,5.32,41.56,41.56,0,0,1,17.53,0Z"/><path class="cls-3" d="M17.47,0a44.09,44.09,0,0,0-6.26,5.1C7.53,8.53,3.76,12.36,0,14.12v0c3.77-1.76,7.54-5.59,11.22-9A43.17,43.17,0,0,1,17.51,0Z"/><path class="cls-3" d="M17.45,0a45.66,45.66,0,0,0-6,4.91C7.69,8.4,3.84,12.31,0,14v0c3.85-1.72,7.69-5.64,11.45-9.13a44.72,44.72,0,0,1,6-4.93Z"/><path class="cls-3" d="M17.44,0a45.43,45.43,0,0,0-5.76,4.72C7.84,8.26,3.92,12.27,0,13.94v0c3.93-1.68,7.85-5.69,11.69-9.23A45.27,45.27,0,0,1,17.48,0Z"/><path class="cls-3" d="M17.43,0a46.18,46.18,0,0,0-5.52,4.53C8,8.13,4,12.21,0,13.84v0c4-1.63,8-5.72,11.92-9.32A45.94,45.94,0,0,1,17.46,0Z"/><path class="cls-3" d="M17.42,0a49.4,49.4,0,0,0-5.28,4.34C8.16,8,4.08,12.17,0,13.74v0C4.09,12.19,8.17,8,12.16,4.36A46.13,46.13,0,0,1,17.46,0Z"/><path class="cls-3" d="M17.42,0a47.89,47.89,0,0,0-5,4.15c-4.06,3.7-8.22,8-12.38,9.48v0c4.17-1.52,8.33-5.78,12.39-9.49A48.85,48.85,0,0,1,17.46,0Z"/><path class="cls-3" d="M17.42,0a50.14,50.14,0,0,0-4.81,4C8.48,7.72,4.24,12.06,0,13.52v0C4.25,12.09,8.49,7.74,12.62,4a48.56,48.56,0,0,1,4.84-4Z"/><path class="cls-3" d="M17.43,0a50.41,50.41,0,0,0-4.58,3.78C8.64,7.58,4.32,12,0,13.41v0C4.33,12,8.65,7.6,12.86,3.8A48.36,48.36,0,0,1,17.47,0Z"/><path class="cls-3" d="M17.44,0a50.88,50.88,0,0,0-4.36,3.59C8.8,7.44,4.4,12,0,13.28v0C4.41,12,8.81,7.47,13.09,3.61A50,50,0,0,1,17.48,0Z"/><path class="cls-3" d="M17.45,0a51.55,51.55,0,0,0-4.13,3.41C9,7.31,4.48,11.91,0,13.16v0c4.49-1.25,9-5.86,13.33-9.76A47.35,47.35,0,0,1,17.49,0Z"/><path class="cls-3" d="M17.46,0c-1.28.93-2.58,2-3.91,3.22C9.12,7.17,4.56,11.86,0,13v0c4.57-1.18,9.12-5.87,13.56-9.82C14.89,2.05,16.21.94,17.5,0Z"/><path class="cls-3" d="M17.48,0C16.27.89,15,1.93,13.78,3,9.28,7,4.64,11.81,0,12.89v0c4.65-1.09,9.28-5.87,13.79-9.86C15.05,1.94,16.29.9,17.52,0Z"/><path class="cls-3" d="M17.5,0C16.36.84,15.2,1.82,14,2.86c-4.58,4-9.3,8.9-14,9.89v0c4.73-1,9.44-5.86,14-9.9,1.18-1,2.35-2,3.5-2.88Z"/><path class="cls-3" d="M17.52,0c-1.07.8-2.16,1.71-3.27,2.68C9.59,6.76,4.81,11.7,0,12.61v0c4.81-.9,9.6-5.85,14.26-9.93,1.11-1,2.21-1.89,3.29-2.7Z"/><path class="cls-3" d="M17.54,0c-1,.75-2,1.6-3,2.5C9.75,6.62,4.89,11.66,0,12.46v0c4.89-.8,9.76-5.84,14.5-10,1-.9,2.06-1.76,3.07-2.52Z"/><path class="cls-3" d="M17.56,0c-.93.71-1.87,1.49-2.84,2.33C9.91,6.48,5,11.6,0,12.3v0c5-.71,9.92-5.83,14.73-10C15.7,1.51,16.65.71,17.6,0Z"/><path class="cls-3" d="M17.59,0C16.72.66,15.85,1.38,15,2.15c-4.89,4.19-9.91,9.4-15,10v0c5.05-.6,10.08-5.81,15-10,.9-.77,1.78-1.5,2.66-2.17Z"/><path class="cls-3" d="M17.61,0c-.79.61-1.6,1.27-2.42,2C10.23,6.2,5.13,11.5,0,12v0c5.14-.48,10.24-5.78,15.2-10,.82-.7,1.64-1.37,2.45-2Z"/><path class="cls-3" d="M17.64,0c-.73.56-1.47,1.17-2.22,1.8-5,4.26-10.21,9.64-15.42,10v0c5.22-.36,10.4-5.75,15.43-10,.76-.64,1.5-1.25,2.24-1.82Z"/><path class="cls-3" d="M17.67,0c-.66.51-1.33,1.06-2,1.63C10.55,5.92,5.3,11.39,0,11.62v0c5.3-.23,10.56-5.71,15.67-10C16.35,1.07,17,.52,17.7,0Z"/><path class="cls-3" d="M17.7,0c-.6.46-1.2,1-1.81,1.46C10.72,5.78,5.38,11.34,0,11.44v0c5.38-.11,10.72-5.67,15.9-10C16.51,1,17.12.47,17.73,0Z"/><path class="cls-3" d="M17.73,0c-.53.41-1.06.84-1.6,1.29-5.25,4.35-10.67,10-16.13,10v0c5.47,0,10.88-5.62,16.14-10C16.68.85,17.22.42,17.76,0Z"/><path class="cls-3" d="M17.76,0c-.46.36-.93.73-1.4,1.12C11,5.5,5.54,11.24,0,11.07v0c5.55.16,11-5.58,16.37-10L17.79,0Z"/></g></g></g></g></svg>