<?xml version="1.0" encoding="utf-8"?>
<svg xmlns="http://www.w3.org/2000/svg" viewBox="0 0 26.68 17.51">
  <defs>
    <style>.cls-1{fill:none;}.cls-2{isolation:isolate;}.cls-3{clip-path:url(#clip-path);}.cls-4{opacity:0.5;}.cls-5{fill:#0b90b7;opacity:0.2;mix-blend-mode:multiply;}</style>
    <clipPath id="clip-path" transform="translate(0.77 -7.25)">
      <rect class="cls-1" width="25" height="25"/>
    </clipPath>
  </defs>
  <g class="cls-2" style="" transform="matrix(1.078003, 0, 0, 1.031404, -0.977694, -1.103416)">
    <g id="Layer_2" data-name="Layer 2">
      <g id="Layer_1-2" data-name="Layer 1">
        <g class="cls-3">
          <g class="cls-4">
            <path class="cls-5" d="M25.59,11.85c0-.07-.51-1.95-2.87-.91-2.13.87-5,3.43-8.65,6.58a7.16,7.16,0,0,1-5.29,2c-3.1-.19-6.25-2.49-9.5-5.36l-.05,0v-.07l.07.06c5.1,4.51,10,7.57,14.73,3.36,3.62-3.17,6.56-5.74,8.72-6.62,2.39-1,2.9.84,2.9.91Z" transform="translate(0.77 -7.25)"/>
            <path class="cls-5" d="M25.65,11.76l0,0h0s-.07,0-.15-.13c-.31-.47-1.13-1.49-3.35-.41s-4.9,3.37-8.25,6.27a7.06,7.06,0,0,1-5.31,1.95c-3-.21-6.13-2.46-9.32-5.28v-.07c5,4.47,9.85,7.48,14.6,3.35,3.37-2.9,6.17-5.29,8.3-6.29s3.08-.07,3.39.4c.05.07.09.13.11.13v0Z" transform="translate(0.77 -7.25)"/>
            <path class="cls-5" d="M25.59,11.79c-.07.06-.14,0-.3-.14-.45-.45-1.38-1.23-3.59-.13s-4.81,3.27-8,6a7,7,0,0,1-5.32,1.9c-3-.25-6-2.43-9.1-5.17v-.07c5,4.4,9.7,7.3,14.39,3.29,3.25-2.77,6-5,8.1-6.06s3.18-.34,3.63.11c.1.1.21.2.26.15h0Z" transform="translate(0.77 -7.25)"/>
            <path class="cls-5" d="M25.56,11.79c-.11.1-.24,0-.45-.13-.55-.39-1.57-1-3.77.08s-4.75,3.18-7.9,5.83a7,7,0,0,1-5.33,1.85C5.2,19.15,2.26,17-.77,14.37V14.3c4.89,4.32,9.55,7.13,14.18,3.22,3.16-2.65,5.84-4.83,8-5.85s3.25-.49,3.8-.09c.18.12.33.21.42.13a.07.07,0,0,0,0,0h0A.62.62,0,0,1,25.56,11.79Z" transform="translate(0.77 -7.25)"/>
            <path class="cls-5" d="M25.53,11.8c-.17.14-.34.06-.61-.08-.65-.36-1.73-.87-3.93.22a46.5,46.5,0,0,0-7.76,5.64,6.92,6.92,0,0,1-5.34,1.79C5.05,19.08,2.18,17-.77,14.45v-.07c4.81,4.24,9.41,7,14,3.16A45.48,45.48,0,0,1,21,11.88c2.22-1.11,3.31-.61,4-.25.24.13.43.22.57.1a.86.86,0,0,0,.07-.1h0A.83.83,0,0,1,25.53,11.8Z" transform="translate(0.77 -7.25)"/>
            <path class="cls-5" d="M25.48,11.82c-.21.18-.43.11-.76,0a4,4,0,0,0-3.44.07c-2.17.87-5,3-8.25,5.73a6.94,6.94,0,0,1-5.37,1.74C4.9,19,2.1,17.05-.77,14.53v-.07C4,18.62,8.49,21.24,13,17.54c3.32-2.7,6.12-4.87,8.31-5.75a4,4,0,0,1,3.47-.08c.32.12.54.2.72,0a.59.59,0,0,0,.13-.17h0A1.25,1.25,0,0,1,25.48,11.82Z" transform="translate(0.77 -7.25)"/>
            <path class="cls-5" d="M25.43,11.84c-.25.24-.53.17-.91.05A4.49,4.49,0,0,0,21,12c-2.17.87-4.92,2.94-8.15,5.55a6.88,6.88,0,0,1-5.38,1.69C4.75,18.94,2,17.05-.77,14.61v-.07c4.66,4.08,9.12,6.61,13.55,3C16,14.93,18.8,12.85,21,12a4.59,4.59,0,0,1,3.58-.17c.37.12.64.19.87,0a1.08,1.08,0,0,0,.18-.25h0A1.07,1.07,0,0,1,25.43,11.84Z" transform="translate(0.77 -7.25)"/>
            <path class="cls-5" d="M25.38,11.88c-.31.28-.62.22-1.06.11-1.5-.66-4.35-.56-11.71,5.61a6.84,6.84,0,0,1-5.39,1.63c-2.62-.35-5.27-2.18-8-4.55v-.06c4.58,4,9,6.43,13.35,2.93,3.19-2.53,5.93-4.55,8.11-5.4a5.12,5.12,0,0,1,3.68-.24c.41.1.74.16,1-.09a1.57,1.57,0,0,0,.24-.33h0A1.57,1.57,0,0,1,25.38,11.88Z" transform="translate(0.77 -7.25)"/>
            <path class="cls-5" d="M25.31,11.92c-.34.33-.7.28-1.19.18a5.61,5.61,0,0,0-3.74.28c-2.16.83-4.85,2.76-8,5.22A6.79,6.79,0,0,1,7,19.18a8.77,8.77,0,0,1-2-.57A21.37,21.37,0,0,1-.77,14.76V14.7c4.5,3.91,8.83,6.25,13.14,2.86,7.28-6,10.23-6.11,11.79-5.54.47.09.84.14,1.16-.16a1.47,1.47,0,0,0,.3-.42h0A1.64,1.64,0,0,1,25.31,11.92Z" transform="translate(0.77 -7.25)"/>
            <path class="cls-5" d="M23.91,12.22a6.23,6.23,0,0,0-3.81.31c-2.16.81-4.82,2.68-7.91,5.07A6.73,6.73,0,0,1,6.8,19.12a8.89,8.89,0,0,1-2-.58,21.54,21.54,0,0,1-5.53-3.7v-.07c4.43,3.83,8.68,6.08,12.93,2.78,3.1-2.39,5.78-4.27,8-5.09A6.31,6.31,0,0,1,24,12.14a1.29,1.29,0,0,0,1.67-.74h0A1.36,1.36,0,0,1,23.91,12.22Z" transform="translate(0.77 -7.25)"/>
            <path class="cls-5" d="M23.7,12.35C22,11.88,19,12,12,17.6a6.77,6.77,0,0,1-5.41,1.47,9.11,9.11,0,0,1-2-.61A20.94,20.94,0,0,1-.77,14.91v-.06c4.35,3.74,8.54,5.91,12.72,2.7,7.06-5.62,10-5.75,11.8-5.28a1.51,1.51,0,0,0,1.88-.91h0A1.6,1.6,0,0,1,23.7,12.35Z" transform="translate(0.77 -7.25)"/>
            <path class="cls-5" d="M23.49,12.47a7.46,7.46,0,0,0-3.94.34,32.19,32.19,0,0,0-7.77,4.78A6.74,6.74,0,0,1,6.35,19a9,9,0,0,1-2-.62A21.21,21.21,0,0,1-.77,15v-.07c4.27,3.65,8.39,5.74,12.51,2.62a32.94,32.94,0,0,1,7.82-4.79,7.56,7.56,0,0,1,4-.36,1.71,1.71,0,0,0,2.09-1.08h0A1.8,1.8,0,0,1,23.49,12.47Z" transform="translate(0.77 -7.25)"/>
            <path class="cls-5" d="M23.28,12.6a7.79,7.79,0,0,0-4,.35,31.26,31.26,0,0,0-7.71,4.63A6.7,6.7,0,0,1,6.13,19a9.11,9.11,0,0,1-2-.64A21,21,0,0,1-.77,15.06V15c4.2,3.56,8.25,5.55,12.31,2.53a31.54,31.54,0,0,1,7.76-4.65,8,8,0,0,1,4-.36,1.94,1.94,0,0,0,2.3-1.26h0C24.9,12.68,24.22,12.69,23.28,12.6Z" transform="translate(0.77 -7.25)"/>
            <path class="cls-5" d="M23.07,12.73c-2-.36-5-.3-11.71,4.84a6.7,6.7,0,0,1-5.45,1.32,9.77,9.77,0,0,1-2-.66,20.67,20.67,0,0,1-4.65-3.1v-.06c4.12,3.47,8.11,5.38,12.1,2.45A30.44,30.44,0,0,1,19,13a8.48,8.48,0,0,1,4.09-.35c1,.07,1.7,0,2.52-1.44h0C24.82,12.79,24.09,12.82,23.07,12.73Z" transform="translate(0.77 -7.25)"/>
            <path class="cls-5" d="M22.86,12.87c-2-.34-5-.32-11.71,4.69a6.72,6.72,0,0,1-5.51,1.25,9.84,9.84,0,0,1-2-.67A20.12,20.12,0,0,1-.77,15.2v-.06c4.05,3.38,8,5.21,11.89,2.37,6.71-5,9.77-5.05,11.78-4.72,1.07.07,1.84,0,2.74-1.62h0C24.74,12.9,24,12.94,22.86,12.87Z" transform="translate(0.77 -7.25)"/>
            <path class="cls-5" d="M22.65,13c-2-.32-5.11-.33-11.7,4.54a6.71,6.71,0,0,1-5.53,1.2,9.9,9.9,0,0,1-2-.68A19.91,19.91,0,0,1-.77,15.27v-.06c4,3.29,7.82,5,11.68,2.28,6.64-4.88,9.74-4.88,11.78-4.57,1.14.07,2,0,2.95-1.79h0C24.65,13,23.77,13.07,22.65,13Z" transform="translate(0.77 -7.25)"/>
            <path class="cls-5" d="M22.44,13.13c-2.18-.32-5.17-.37-11.7,4.39A6.67,6.67,0,0,1,5.2,18.67a10,10,0,0,1-2-.7,19.71,19.71,0,0,1-4-2.63v-.07c3.9,3.2,7.68,4.87,11.48,2.21a27.78,27.78,0,0,1,7.55-4.13,10.28,10.28,0,0,1,4.22-.29c1.21.06,2.09,0,3.17-2h0C24.57,13.13,23.62,13.2,22.44,13.13Z" transform="translate(0.77 -7.25)"/>
            <path class="cls-5" d="M22.23,13.26C20,13,17,12.86,10.53,17.5A6.66,6.66,0,0,1,5,18.6a9.53,9.53,0,0,1-2-.72A18.93,18.93,0,0,1-.77,15.4v-.06C3.05,18.45,6.77,20,10.5,17.46a26.85,26.85,0,0,1,7.51-4,10.75,10.75,0,0,1,4.26-.27c1.28.07,2.21,0,3.38-2.15h0C24.48,13.25,23.48,13.33,22.23,13.26Z" transform="translate(0.77 -7.25)"/>
            <path class="cls-5" d="M22,13.39c-2.22-.3-5.28-.43-11.69,4.09a6.64,6.64,0,0,1-5.57,1,9.52,9.52,0,0,1-2-.73A19.1,19.1,0,0,1-.77,15.46V15.4c3.75,3,7.4,4.53,11.06,2,6.45-4.53,9.52-4.41,11.76-4.11,1.36.07,2.34,0,3.6-2.33h0C24.39,13.37,23.34,13.47,22,13.39Z" transform="translate(0.77 -7.25)"/>
            <path class="cls-5" d="M21.8,13.52c-2.25-.29-5.33-.47-11.68,3.94a6.68,6.68,0,0,1-5.59,1,9.71,9.71,0,0,1-2-.75A19.06,19.06,0,0,1-.77,15.52v0c3.68,2.92,7.25,4.36,10.86,1.94,6.38-4.43,9.49-4.25,11.75-4,1.37.07,2.46,0,3.81-2.5h0C24.3,13.5,23.19,13.6,21.8,13.52Z" transform="translate(0.77 -7.25)"/>
            <path class="cls-5" d="M21.59,13.65c-2.27-.29-5.38-.52-11.68,3.78a6.65,6.65,0,0,1-5.6.94,10.4,10.4,0,0,1-2-.76,19.78,19.78,0,0,1-3.1-2v-.06c3.6,2.83,7.11,4.2,10.65,1.86,6.33-4.31,9.46-4.09,11.75-3.8,1.44.08,2.58,0,4-2.68h0C24.2,13.63,23.05,13.73,21.59,13.65Z" transform="translate(0.77 -7.25)"/>
            <path class="cls-5" d="M21.38,13.78C19.09,13.48,16,13.2,9.7,17.4a6.65,6.65,0,0,1-5.61.89,9.89,9.89,0,0,1-2-.78A19,19,0,0,1-.77,15.64v-.06c3.53,2.74,7,4,10.44,1.77A24,24,0,0,1,17,13.82a12.8,12.8,0,0,1,4.4-.12c1.5.09,2.69,0,4.24-2.84h0C24.11,13.75,22.9,13.87,21.38,13.78Z" transform="translate(0.77 -7.25)"/>
            <path class="cls-5" d="M21.17,13.9c-2.31-.3-5.48-.63-11.67,3.47a6.65,6.65,0,0,1-5.63.84,10,10,0,0,1-2-.8A17.84,17.84,0,0,1-.77,15.69v0c3.45,2.64,6.83,3.86,10.23,1.68a23.08,23.08,0,0,1,7.32-3.41,13,13,0,0,1,4.42-.08c1.57.1,2.82,0,4.46-3h0C24,13.88,22.75,14,21.17,13.9Z" transform="translate(0.77 -7.25)"/>
            <path class="cls-5" d="M21,14c-2.45-.33-5.51-.71-11.66,3.31a6.62,6.62,0,0,1-5.64.79,10.67,10.67,0,0,1-2-.8A18.3,18.3,0,0,1-.77,15.74v-.05c3.38,2.55,6.69,3.71,10,1.6A22.55,22.55,0,0,1,16.54,14,13.81,13.81,0,0,1,21,14c1.63.11,2.93,0,4.68-3.18h0C23.92,14,22.61,14.14,21,14Z" transform="translate(0.77 -7.25)"/>
            <path class="cls-5" d="M20.74,14.14c-2.47-.34-5.55-.77-11.66,3.16A6.65,6.65,0,0,1,3.42,18a11,11,0,0,1-2-.82A18.8,18.8,0,0,1-.77,15.79v0c3.31,2.45,6.55,3.54,9.82,1.51a22.09,22.09,0,0,1,7.25-3.2,14.38,14.38,0,0,1,4.48,0c1.7.13,3,0,4.89-3.35h0C23.82,14.15,22.46,14.27,20.74,14.14Z" transform="translate(0.77 -7.25)"/>
            <path class="cls-5" d="M23.74,13.38a3.78,3.78,0,0,1-3.21.88c-2.49-.36-5.59-.84-11.66,3-2.28,1.4-4.78,1.4-7.64-.15a17.93,17.93,0,0,1-2-1.27v-.06c3.24,2.37,6.41,3.39,9.61,1.43,6.1-3.85,9.22-3.37,11.73-3,1.76.14,3.16,0,5.1-3.51h0A9.87,9.87,0,0,1,23.74,13.38Z" transform="translate(0.77 -7.25)"/>
            <path class="cls-5" d="M23.63,13.47a3.87,3.87,0,0,1-3.31.91c-2.51-.38-5.63-.91-11.65,2.84C6.38,18.6,3.87,18.58,1,17A16.94,16.94,0,0,1-.77,15.88v-.05c3.16,2.27,6.27,3.23,9.41,1.34,6.06-3.76,9.19-3.23,11.72-2.86,1.82.16,3.27,0,5.31-3.68h0A10.14,10.14,0,0,1,23.63,13.47Z" transform="translate(0.77 -7.25)"/>
            <path class="cls-5" d="M23.51,13.58a3.93,3.93,0,0,1-3.4.91c-2.53-.39-5.66-1-11.65,2.69-2.29,1.36-4.8,1.31-7.67-.27a16.85,16.85,0,0,1-1.56-1v-.05c3.09,2.18,6.13,3.08,9.2,1.26,6-3.67,9.18-3.09,11.71-2.7,1.89.17,3.39.06,5.54-3.84h0A10.63,10.63,0,0,1,23.51,13.58Z" transform="translate(0.77 -7.25)"/>
            <path class="cls-5" d="M23.39,13.69a4,4,0,0,1-3.49.91c-2.54-.41-5.7-1-11.65,2.53C6,18.47,3.44,18.41.57,16.8c-.44-.25-.89-.53-1.34-.84v-.05c3,2.09,6,2.93,9,1.17,6-3.58,9.16-2.95,11.71-2.54,1.95.19,3.5.09,5.75-4h0A11,11,0,0,1,23.39,13.69Z" transform="translate(0.77 -7.25)"/>
            <path class="cls-5" d="M23.27,13.8a4.11,4.11,0,0,1-3.58.91c-2.56-.43-5.73-1.12-11.64,2.38-2.3,1.32-4.82,1.23-7.7-.4C0,16.48-.39,16.25-.77,16v-.06c3,2,5.85,2.79,8.79,1.1,5.94-3.51,9.13-2.82,11.7-2.39,1.93.21,3.61.13,6-4.15h0A11.47,11.47,0,0,1,23.27,13.8Z" transform="translate(0.77 -7.25)"/>
            <path class="cls-5" d="M23.16,13.92a4.23,4.23,0,0,1-3.69.9c-2.56-.46-5.75-1.2-11.63,2.22C5.54,18.34,3,18.23.13,16.58c-.3-.17-.6-.35-.9-.55V16c2.88,1.91,5.71,2.63,8.58,1a18.6,18.6,0,0,1,7.08-2.59,16.9,16.9,0,0,1,4.62.36c2,.23,3.71.16,6.18-4.31h0A12.07,12.07,0,0,1,23.16,13.92Z" transform="translate(0.77 -7.25)"/>
            <path class="cls-5" d="M23,14a4.26,4.26,0,0,1-3.77.89c-2.58-.48-5.78-1.27-11.63,2.07-2.31,1.28-4.83,1.15-7.72-.52l-.68-.42v0c2.8,1.81,5.57,2.49,8.38.93a18,18,0,0,1,7.05-2.49,17.31,17.31,0,0,1,4.64.41c2,.26,3.82.21,6.39-4.45h0A12.37,12.37,0,0,1,23,14Z" transform="translate(0.77 -7.25)"/>
            <path class="cls-5" d="M22.91,14.14a4.31,4.31,0,0,1-3.86.88c-2.72-.54-5.81-1.37-11.62,1.92-2.32,1.26-4.85,1.11-7.74-.58l-.46-.28v0c2.73,1.73,5.43,2.35,8.17.86a17.43,17.43,0,0,1,7-2.4,18.13,18.13,0,0,1,4.66.47c2.1.29,3.93.25,6.6-4.6h0A12.63,12.63,0,0,1,22.91,14.14Z" transform="translate(0.77 -7.25)"/>
            <path class="cls-5" d="M22.79,14.25a4.41,4.41,0,0,1-3.95.87C16.1,14.55,13,13.66,7.22,16.88,4.9,18.13,2.37,18-.53,16.24l-.24-.14v-.05c2.66,1.65,5.3,2.22,8,.78a17.19,17.19,0,0,1,7-2.3,18.57,18.57,0,0,1,4.68.53c2.16.32,4,.3,6.81-4.74h0A13,13,0,0,1,22.79,14.25Z" transform="translate(0.77 -7.25)"/>
            <path class="cls-5" d="M22.67,14.37a4.49,4.49,0,0,1-4,.85c-2.75-.6-5.86-1.54-11.61,1.61-2.33,1.23-4.87,1-7.77-.7h0v-.05c2.59,1.56,5.16,2.08,7.76.71a16.74,16.74,0,0,1,7-2.22,19.4,19.4,0,0,1,4.69.6c2.21.35,4.14.35,7-4.89h0A13.44,13.44,0,0,1,22.67,14.37Z" transform="translate(0.77 -7.25)"/>
            <path class="cls-5" d="M22.54,14.48a4.54,4.54,0,0,1-4.12.83c-2.76-.62-5.89-1.62-11.61,1.46-2.28,1.18-4.76,1-7.58-.64v0c2.52,1.47,5,1.95,7.55.63a16.44,16.44,0,0,1,7-2.13,19.37,19.37,0,0,1,4.71.66c2.27.38,4.24.41,7.24-5h0A13.66,13.66,0,0,1,22.54,14.48Z" transform="translate(0.77 -7.25)"/>
            <path class="cls-5" d="M22.42,14.59a4.59,4.59,0,0,1-4.21.81c-2.77-.65-5.91-1.7-11.61,1.31-2.22,1.13-4.63,1-7.37-.57v0c2.45,1.39,4.88,1.82,7.35.56,5.72-3,8.88-2,11.67-1.32,2.33.42,4.35.47,7.45-5.16h0A14.07,14.07,0,0,1,22.42,14.59Z" transform="translate(0.77 -7.25)"/>
            <path class="cls-5" d="M22.29,14.7a4.66,4.66,0,0,1-4.29.79c-2.78-.68-5.93-1.79-11.6,1.15-2.17,1.1-4.52,1-7.17-.49v0c2.38,1.3,4.74,1.69,7.14.48,5.7-2.95,8.86-1.84,11.67-1.16,2.38.45,4.45.53,7.67-5.29h0A14.16,14.16,0,0,1,22.29,14.7Z" transform="translate(0.77 -7.25)"/>
            <path class="cls-5" d="M22.17,14.81a6.4,6.4,0,0,1-.75.49,5,5,0,0,1-3.63.28c-2.79-.72-5.95-1.88-11.6,1-2.11,1.05-4.39.92-7-.43v-.07c2.31,1.23,4.63,1.6,6.93.45,5.68-2.89,8.85-1.73,11.67-1,2.44.48,4.55.59,7.88-5.43h0A14.89,14.89,0,0,1,22.17,14.81Z" transform="translate(0.77 -7.25)"/>
            <path class="cls-5" d="M22.05,14.92a5.31,5.31,0,0,1-.76.48,4.94,4.94,0,0,1-3.7.26c-2.81-.75-6-2-11.6.85a7.23,7.23,0,0,1-6.76-.36v-.07A7.16,7.16,0,0,0,6,16.46c5.65-2.82,8.83-1.61,11.66-.86,2.49.52,4.66.66,8.09-5.55h0A15.26,15.26,0,0,1,22.05,14.92Z" transform="translate(0.77 -7.25)"/>
            <path class="cls-5" d="M21.92,15a5.24,5.24,0,0,1-.75.48,5,5,0,0,1-3.79.23c-2.82-.78-6-2.05-11.6.71a7.17,7.17,0,0,1-6.55-.31v-.06a7.14,7.14,0,0,0,6.52.32c5.63-2.76,8.83-1.5,11.66-.71,2.55.55,4.76.72,8.3-5.69h0A15.47,15.47,0,0,1,21.92,15Z" transform="translate(0.77 -7.25)"/>
            <path class="cls-5" d="M21.8,15.14a7.14,7.14,0,0,1-.76.47,5.08,5.08,0,0,1-3.87.21c-2.83-.82-6-2.14-11.6.56a7.12,7.12,0,0,1-6.34-.25v-.06a7.08,7.08,0,0,0,6.32.26c5.6-2.71,8.81-1.38,11.65-.57a5,5,0,0,0,3.85-.21c1.51-.78,3-2.54,4.67-5.59h0A15.89,15.89,0,0,1,21.8,15.14Z" transform="translate(0.77 -7.25)"/>
            <path class="cls-5" d="M21.67,15.25a6.26,6.26,0,0,1-.76.47,5.09,5.09,0,0,1-3.95.17c-2.84-.85-6-2.22-11.59.42a7.07,7.07,0,0,1-6.14-.19v-.07a7,7,0,0,0,6.11.2c5.58-2.64,8.8-1.26,11.65-.41a5.13,5.13,0,0,0,3.93-.18c1.55-.8,3.08-2.6,4.8-5.75h0A16.11,16.11,0,0,1,21.67,15.25Z" transform="translate(0.77 -7.25)"/>
            <path class="cls-5" d="M21.54,15.35a4.74,4.74,0,0,1-.76.47,5.19,5.19,0,0,1-4,.15c-2.85-.89-6.06-2.32-11.59.26A7,7,0,0,1-.77,16.1V16a6.93,6.93,0,0,0,5.9.14A14,14,0,0,1,12,14.73a22.53,22.53,0,0,1,4.82,1.18,5.14,5.14,0,0,0,4-.15C22.38,15,24,13.11,25.72,9.87h0A16.26,16.26,0,0,1,21.54,15.35Z" transform="translate(0.77 -7.25)"/>
            <path class="cls-5" d="M21.42,15.46a5,5,0,0,1-4.88.58c-2.85-.92-6.08-2.41-11.58.12a7,7,0,0,1-5.73-.08V16a6.88,6.88,0,0,0,5.7.1,13.41,13.41,0,0,1,6.8-1.37A22.63,22.63,0,0,1,16.57,16a5.23,5.23,0,0,0,4.1-.11c1.62-.83,3.23-2.71,5-6h0C24.2,12.67,22.8,14.47,21.42,15.46Z" transform="translate(0.77 -7.25)"/>
            <path class="cls-5" d="M21.28,15.57a5.1,5.1,0,0,1-4.94.53c-2.87-1-6.1-2.49-11.59,0a6.92,6.92,0,0,1-5.52,0V16a6.81,6.81,0,0,0,5.49,0,13.35,13.35,0,0,1,6.79-1.29,22.9,22.9,0,0,1,4.86,1.31A5.27,5.27,0,0,0,20.54,16c1.66-.84,3.31-2.76,5.19-6.19h0C24,12.94,22.59,14.65,21.28,15.57Z" transform="translate(0.77 -7.25)"/>
            <path class="cls-5" d="M21.15,15.68a5.17,5.17,0,0,1-5,.49c-3-1.06-6.12-2.6-11.58-.17A6.85,6.85,0,0,1-.77,16V16a6.79,6.79,0,0,0,5.29,0,13.24,13.24,0,0,1,6.77-1.22,23.71,23.71,0,0,1,4.87,1.38,5.29,5.29,0,0,0,4.25,0c1.7-.84,3.39-2.81,5.32-6.34h0C24,13,22.49,14.74,21.15,15.68Z" transform="translate(0.77 -7.25)"/>
            <path class="cls-5" d="M21,15.78a5.18,5.18,0,0,1-5.1.45c-3-1.09-6.13-2.69-11.58-.31A6.82,6.82,0,0,1-.77,16v-.06a6.76,6.76,0,0,0,5.08-.05,12.88,12.88,0,0,1,6.76-1.14A24.39,24.39,0,0,1,16,16.18a5.35,5.35,0,0,0,4.33,0c1.74-.85,3.47-2.86,5.45-6.48h0C23.93,13.06,22.4,14.84,21,15.78Z" transform="translate(0.77 -7.25)"/>
            <path class="cls-5" d="M20.89,15.89c-1.92,1.29-3.53,1-5.18.4-3-1.13-6.15-2.78-11.57-.45a6.79,6.79,0,0,1-4.91.1v-.06a6.69,6.69,0,0,0,4.88-.09,12.7,12.7,0,0,1,6.74-1.07,24.44,24.44,0,0,1,4.89,1.52c2.85.87,5.55,1.43,10-6.6h0C23.88,13.11,22.3,14.93,20.89,15.89Z" transform="translate(0.77 -7.25)"/>
            <path class="cls-5" d="M20.76,16c-2,1.29-3.58.94-5.25.34-3-1.17-6.17-2.86-11.58-.58a6.76,6.76,0,0,1-4.7.13v-.05a6.71,6.71,0,0,0,4.67-.13,12.48,12.48,0,0,1,6.73-1,24.38,24.38,0,0,1,4.91,1.59c2.89.92,5.63,1.53,10.2-6.7h0C23.82,13.17,22.2,15,20.76,16Z" transform="translate(0.77 -7.25)"/>
            <path class="cls-5" d="M20.63,16.1c-2,1.29-3.63.92-5.33.3-3.05-1.21-6.18-3-11.58-.73a6.69,6.69,0,0,1-4.49.17v-.05a6.67,6.67,0,0,0,4.47-.17,12.31,12.31,0,0,1,6.71-.92,25.8,25.8,0,0,1,4.92,1.65c2.94,1,5.73,1.64,10.41-6.8h0C23.77,13.23,22.11,15.12,20.63,16.1Z" transform="translate(0.77 -7.25)"/>
            <path class="cls-5" d="M20.5,16.2c-2,1.3-3.69.9-5.41.25-3.05-1.25-6.2-3-11.57-.86a6.73,6.73,0,0,1-4.29.2v-.06a6.63,6.63,0,0,0,4.26-.19,12,12,0,0,1,6.71-.86,26,26,0,0,1,4.92,1.72c3,1,5.83,1.74,10.62-6.89h0C23.71,13.29,22,15.22,20.5,16.2Z" transform="translate(0.77 -7.25)"/>
            <path class="cls-5" d="M20.37,16.31c-2.05,1.29-3.74.87-5.48.19-3.07-1.29-6.22-3.14-11.58-1a6.73,6.73,0,0,1-4.08.23v-.05a6.65,6.65,0,0,0,4.06-.23A11.89,11.89,0,0,1,10,14.67a26.52,26.52,0,0,1,4.94,1.78c3,1.07,5.92,1.85,10.83-7h0C23.66,13.35,21.92,15.32,20.37,16.31Z" transform="translate(0.77 -7.25)"/>
            <path class="cls-5" d="M20.24,16.41c-2.08,1.3-3.8.85-5.56.14-3.07-1.33-6.23-3.23-11.57-1.14a6.63,6.63,0,0,1-3.88.25v-.05a6.6,6.6,0,0,0,3.85-.25c5.37-2.1,8.54-.19,11.63,1.14,3.09,1.12,6,2,11-7.08h0C23.6,13.41,21.82,15.41,20.24,16.41Z" transform="translate(0.77 -7.25)"/>
            <path class="cls-5" d="M20.11,16.51c-2.11,1.3-3.85.83-5.64.08-3.08-1.37-6.24-3.32-11.57-1.27a6.69,6.69,0,0,1-3.67.27v-.05a6.62,6.62,0,0,0,3.65-.27c5.35-2,8.53-.1,11.62,1.27,3.14,1.18,6.11,2.08,11.25-7.17h0C23.55,13.48,21.72,15.51,20.11,16.51Z" transform="translate(0.77 -7.25)"/>
            <path class="cls-5" d="M20,16.6a5.56,5.56,0,0,1-.76.4c-1.82.78-3.35.33-5-.37C11.18,15.22,8,13.22,2.7,15.22a6.57,6.57,0,0,1-3.47.3v0a6.44,6.44,0,0,0,3.44-.3c5.34-2,8.53,0,11.63,1.41,3.18,1.23,6.19,2.2,11.46-7.25h0C23.67,13.21,21.81,15.48,20,16.6Z" transform="translate(0.77 -7.25)"/>
            <path class="cls-5" d="M19.86,16.7a6.84,6.84,0,0,1-.76.39c-1.85.78-3.4.3-5-.42C11,15.22,7.79,13.17,2.49,15.13a6.64,6.64,0,0,1-3.26.31v-.06a6.43,6.43,0,0,0,3.24-.3c5.32-2,8.51.09,11.62,1.54,3.23,1.28,6.29,2.32,11.67-7.34h0C23.62,13.26,21.72,15.58,19.86,16.7Z" transform="translate(0.77 -7.25)"/>
            <path class="cls-5" d="M19.73,16.8a6,6,0,0,1-.76.38c-1.89.79-3.46.28-5.11-.47C10.76,15.22,7.57,13.12,2.29,15a6.59,6.59,0,0,1-3.06.32v0a6.44,6.44,0,0,0,3-.32c5.31-1.91,8.51.19,11.63,1.68,1.65.75,3.21,1.25,5.09.47,2.12-.9,4.27-3.31,6.78-7.89h0C23.57,13.31,21.62,15.67,19.73,16.8Z" transform="translate(0.77 -7.25)"/>
            <path class="cls-5" d="M19.6,16.9a5.87,5.87,0,0,1-.76.37c-1.92.79-3.51.25-5.19-.53-3.11-1.53-6.3-3.67-11.57-1.81a6.51,6.51,0,0,1-2.85.33v0a6.71,6.71,0,0,0,2.83-.32c5.29-1.88,8.5.27,11.62,1.81,1.67.77,3.26,1.3,5.17.52,2.16-.9,4.35-3.35,6.91-8h0C23.52,13.36,21.53,15.76,19.6,16.9Z" transform="translate(0.77 -7.25)"/>
            <path class="cls-5" d="M19.47,17a5.87,5.87,0,0,1-.76.37c-1.95.79-3.64.2-5.26-.59C10.33,15.2,7.13,13,1.88,14.84a6.58,6.58,0,0,1-2.65.32v0a6.73,6.73,0,0,0,2.62-.33c5.28-1.84,8.5.36,11.62,1.94,1.7.81,3.31,1.36,5.25.58,2.2-.9,4.43-3.38,7.05-8.16h0C23.47,13.41,21.44,15.85,19.47,17Z" transform="translate(0.77 -7.25)"/>
            <path class="cls-5" d="M19.3,17.1a4.76,4.76,0,0,1-.72.35c-2,.79-3.69.17-5.34-.65C10.12,15.19,6.91,13,1.67,14.74a6.49,6.49,0,0,1-2.44.32V15a6.52,6.52,0,0,0,2.42-.32c5.26-1.8,8.48.45,11.62,2.07,1.64.81,3.34,1.43,5.32.64,2.2-.89,4.55-3.48,7.18-8.3h0C23.44,13.43,21.31,16,19.3,17.1Z" transform="translate(0.77 -7.25)"/>
            <path class="cls-5" d="M19.17,17.2a5.85,5.85,0,0,1-.72.34c-2,.79-3.75.13-5.41-.71-3.13-1.65-6.35-3.94-11.57-2.2A6.55,6.55,0,0,1-.77,15V14.9a6.24,6.24,0,0,0,2.21-.32c5.25-1.75,8.48.55,11.62,2.21,1.67.84,3.39,1.48,5.4.7,2.23-.89,4.63-3.52,7.31-8.43h0C23.39,13.48,21.22,16.06,19.17,17.2Z" transform="translate(0.77 -7.25)"/>
            <path class="cls-5" d="M19,17.29a5.85,5.85,0,0,1-.72.34c-2.05.78-3.8.1-5.49-.78-3.13-1.69-6.36-4-11.56-2.32a6.74,6.74,0,0,1-2,.32v0a6.4,6.4,0,0,0,2-.32c5.24-1.71,8.47.63,11.62,2.33,1.68.87,3.43,1.55,5.46.77C20.6,16.69,23,14,25.78,9h0C23.34,13.53,21.13,16.15,19,17.29Z" transform="translate(0.77 -7.25)"/>
            <path class="cls-5" d="M18.91,17.38a8,8,0,0,1-.73.34c-2.08.78-3.85.06-5.55-.84-3.14-1.74-6.37-4.13-11.57-2.45a7.07,7.07,0,0,1-1.83.3v-.06A6.27,6.27,0,0,0,1,14.38a10.44,10.44,0,0,1,6.58-.07,31.72,31.72,0,0,1,5.05,2.52c1.7.91,3.46,1.61,5.53.84,2.32-.89,4.8-3.59,7.59-8.7h0C23.29,13.58,21,16.23,18.91,17.38Z" transform="translate(0.77 -7.25)"/>
            <path class="cls-5" d="M18.78,17.47a6.62,6.62,0,0,1-.73.33c-2.11.78-3.9,0-5.63-.9C9.28,15.12,6,12.69.86,14.32a6.4,6.4,0,0,1-1.63.28v0a6.34,6.34,0,0,0,1.6-.29,10.39,10.39,0,0,1,6.57,0,32.8,32.8,0,0,1,5,2.59c1.72.94,3.51,1.67,5.61.9a5.67,5.67,0,0,0,.72-.32c2.15-1.14,4.44-3.82,7-8.51h0C23.24,13.63,20.94,16.32,18.78,17.47Z" transform="translate(0.77 -7.25)"/>
            <path class="cls-5" d="M18.65,17.56a5.07,5.07,0,0,1-.73.32c-2.14.78-4,0-5.7-1-3.15-1.82-6.4-4.3-11.57-2.7a6.85,6.85,0,0,1-1.42.27v-.05a6.89,6.89,0,0,0,1.4-.26,10.18,10.18,0,0,1,6.55.05,31.53,31.53,0,0,1,5.07,2.65c1.74,1,3.54,1.74,5.68,1,2.39-.88,4.95-3.65,7.85-8.95h0C23.19,13.68,20.84,16.42,18.65,17.56Z" transform="translate(0.77 -7.25)"/>
            <path class="cls-5" d="M18.51,17.65a5.67,5.67,0,0,1-.72.32c-2.18.77-4,0-5.77-1C8.86,15.07,5.61,12.54.45,14.11a7.29,7.29,0,0,1-1.22.23v-.05a7,7,0,0,0,1.19-.23A10.17,10.17,0,0,1,7,14.17,31.77,31.77,0,0,1,12,16.89c1.76,1,3.59,1.79,5.76,1,2.42-.88,5-3.68,8-9.09h0C23.14,13.74,20.75,16.51,18.51,17.65Z" transform="translate(0.77 -7.25)"/>
            <path class="cls-5" d="M18.38,17.74a5.58,5.58,0,0,1-.72.31c-2.21.76-4.06-.07-5.85-1.11C8.65,15,5.39,12.47.24,14a6.94,6.94,0,0,1-1,.2v0a7,7,0,0,0,1-.2,10.07,10.07,0,0,1,6.54.16,33.43,33.43,0,0,1,5.08,2.79c1.78,1,3.63,1.86,5.82,1.1,2.47-.87,5.12-3.71,8.13-9.21h0C23.09,13.79,20.65,16.59,18.38,17.74Z" transform="translate(0.77 -7.25)"/>
            <path class="cls-5" d="M18.25,17.83a6.94,6.94,0,0,1-.72.3c-2.24.76-4.12-.11-5.92-1.18C8.44,15,5.18,12.39,0,13.89a7.78,7.78,0,0,1-.81.17V14c.26,0,.52-.1.78-.17a10,10,0,0,1,6.53.22,33.29,33.29,0,0,1,5.09,2.85c1.8,1.06,3.67,1.93,5.9,1.17,2.5-.86,5.2-3.73,8.26-9.34h0C23,13.84,20.56,16.68,18.25,17.83Z" transform="translate(0.77 -7.25)"/>
            <path class="cls-5" d="M18.12,17.91a6.26,6.26,0,0,1-.73.3c-2.27.75-4.16-.15-6-1.25C8.08,14.87,5,12.29-.17,13.77c-.2.06-.4.1-.6.14v-.05l.58-.13A9.94,9.94,0,0,1,6.33,14a33.32,33.32,0,0,1,5.1,2.92c1.82,1.09,3.71,2,6,1.25,2.54-.87,5.28-3.77,8.39-9.47h0C23,13.9,20.46,16.77,18.12,17.91Z" transform="translate(0.77 -7.25)"/>
            <path class="cls-5" d="M18,18a5.42,5.42,0,0,1-.72.29C15,19,13,18.1,11.2,17c-3.33-2.13-6.45-4.75-11.57-3.3-.13,0-.26.06-.4.09V13.7c.13,0,.25,0,.37-.09a9.94,9.94,0,0,1,6.52.33,34.73,34.73,0,0,1,5.11,3c1.84,1.12,3.75,2.06,6,1.31,2.57-.85,5.36-3.79,8.53-9.59h0C22.94,14,20.37,16.86,18,18Z" transform="translate(0.77 -7.25)"/>
            <path class="cls-5" d="M17.87,18.07c-2.69,1.24-4.8.19-6.87-1.1C7.66,14.79,4.53,12.13-.58,13.55l-.19,0v-.05l.17,0a9.79,9.79,0,0,1,6.51.38,34.5,34.5,0,0,1,5.11,3c1.86,1.16,3.79,2.13,6.12,1.39,2.61-.85,5.44-3.81,8.66-9.71h0C22.6,14.52,20.05,17,17.87,18.07Z" transform="translate(0.77 -7.25)"/>
            <path class="cls-5" d="M17.73,18.16C15,19.38,12.88,18.3,10.8,17,7.46,14.75,4.32,12.05-.77,13.43v-.06a9.74,9.74,0,0,1,6.47.45,35.42,35.42,0,0,1,5.12,3.11c1.88,1.2,3.83,2.2,6.18,1.47,2.65-.84,5.52-3.84,8.8-9.84h0C22.54,14.59,20,17.12,17.73,18.16Z" transform="translate(0.77 -7.25)"/>
            <path class="cls-5" d="M17.6,18.24c-2.75,1.22-4.9.09-7-1.27C7.29,14.74,4.19,12-.77,13.26v0a9.59,9.59,0,0,1,6.26.55,35.5,35.5,0,0,1,5.13,3.17c3.82,2.19,7.76,4.8,15.19-8.41h0C22.48,14.65,19.84,17.21,17.6,18.24Z" transform="translate(0.77 -7.25)"/>
            <path class="cls-5" d="M17.47,18.32c-2.78,1.21-4.95.05-7.08-1.36C7.13,14.73,4.07,12-.77,13.1v0a9.51,9.51,0,0,1,6.05.64,36,36,0,0,1,5.14,3.24c3.86,2.25,7.84,5,15.39-8.46h0C22.42,14.72,19.74,17.3,17.47,18.32Z" transform="translate(0.77 -7.25)"/>
            <path class="cls-5" d="M17.34,18.41c-2.81,1.19-5,0-7.15-1.45C7,14.71,3.94,12-.77,12.94v0a9.3,9.3,0,0,1,5.83.73,34.6,34.6,0,0,1,5.15,3.3c3.91,2.32,7.93,5.14,15.6-8.49h0C22.36,14.79,19.64,17.38,17.34,18.41Z" transform="translate(0.77 -7.25)"/>
            <path class="cls-5" d="M17.2,18.49c-2.83,1.18-5-.06-7.22-1.54C6.81,14.7,3.82,12-.77,12.78v0a9.27,9.27,0,0,1,5.62.82A34.87,34.87,0,0,1,10,16.92c4,2.37,8,5.3,15.81-8.54h0C22.3,14.85,19.54,17.47,17.2,18.49Z" transform="translate(0.77 -7.25)"/>
            <path class="cls-5" d="M17.07,18.57c-2.87,1.16-5.1-.11-7.29-1.63C6.65,14.68,3.69,12-.77,12.64v-.05a9.18,9.18,0,0,1,5.41.89,35.92,35.92,0,0,1,5.17,3.43c4,2.44,8.09,5.48,16-8.57h0C22.25,14.92,19.44,17.55,17.07,18.57Z" transform="translate(0.77 -7.25)"/>
            <path class="cls-5" d="M16.94,18.65c-2.9,1.15-5.16-.16-7.36-1.72C6.49,14.67,3.57,12-.77,12.49v0a9.15,9.15,0,0,1,5.2,1A36.44,36.44,0,0,1,9.61,16.9c4,2.5,8.17,5.65,16.21-8.61h0C22.19,15,19.34,17.64,16.94,18.65Z" transform="translate(0.77 -7.25)"/>
            <path class="cls-5" d="M16.79,18.72a5.07,5.07,0,0,1-.72.24l-.23.05c2.63-.56,5.78-3.31,10-10.76h0C22.48,14.43,19.51,17.63,16.79,18.72Z" transform="translate(0.77 -7.25)"/>
            <path class="cls-5" d="M9.38,16.92C6.33,14.65,3.46,12-.77,12.36v0a9.2,9.2,0,0,1,5,1A36.88,36.88,0,0,1,9.4,16.88c2,1.25,4,2.65,6.44,2.13C13.35,19.54,11.33,18.32,9.38,16.92Z" transform="translate(0.77 -7.25)"/>
            <path class="cls-5" d="M9.18,16.9c-3-2.26-5.84-4.91-9.95-4.67v-.05A9.21,9.21,0,0,1,4,13.25,36.66,36.66,0,0,1,9.2,16.87c2,1.25,3.94,2.67,6.37,2.23C13.12,19.56,11.11,18.32,9.18,16.9Z" transform="translate(0.77 -7.25)"/>
            <path class="cls-5" d="M16.65,18.8l-.13,0C19,17.93,22,15,25.83,8.2h0C22.43,14.49,19.42,17.71,16.65,18.8Z" transform="translate(0.77 -7.25)"/>
            <path class="cls-5" d="M16.52,18.87a6.67,6.67,0,0,1-.72.23c-2.65.64-4.78-.69-6.82-2.22C6,14.62,3.22,12-.77,12.1v0C3.23,12,6,14.58,9,16.85c2,1.52,4.17,2.84,6.81,2.2a5.23,5.23,0,0,0,.71-.22c2.79-1.07,5.84-4.31,9.31-10.67h0C22.38,14.54,19.32,17.79,16.52,18.87Z" transform="translate(0.77 -7.25)"/>
            <path class="cls-5" d="M16.39,18.94a5,5,0,0,1-.72.22c-2.68.63-4.83-.74-6.9-2.3C5.87,14.6,3.11,12-.77,12v0c3.89,0,6.65,2.63,9.57,4.89,2.06,1.56,4.2,2.92,6.87,2.29,3-.74,6.33-4,10.16-11h0C22.32,14.6,19.22,17.88,16.39,18.94Z" transform="translate(0.77 -7.25)"/>
            <path class="cls-5" d="M16.25,19l-.71.21c-2.72.61-4.88-.79-7-2.39C5.71,14.59,3,12-.77,11.87v0c3.78.13,6.5,2.72,9.37,5,2.08,1.59,4.24,3,6.94,2.38,3.05-.73,6.41-4,10.3-11.12h0C22.27,14.65,19.13,18,16.25,19Z" transform="translate(0.77 -7.25)"/>
            <path class="cls-5" d="M16.12,19.09q-.36.12-.72.21c-2.74.6-4.93-.85-7-2.48C5.56,14.57,2.89,12-.77,11.77v0C2.9,12,5.58,14.54,8.4,16.79c2.09,1.62,4.27,3.06,7,2.46,3.09-.71,6.49-4,10.43-11.23h0C22.22,14.71,19,18,16.12,19.09Z" transform="translate(0.77 -7.25)"/>
            <path class="cls-5" d="M16,19.16a6.44,6.44,0,0,1-.72.2c-2.78.58-5-.9-7.1-2.57C5.41,14.56,2.78,12-.77,11.67v-.05c3.56.35,6.19,2.9,9,5.14,2.12,1.67,4.32,3.14,7.08,2.56a6.44,6.44,0,0,0,.72-.2c2.94-1,6.16-4.38,9.85-11.15h0C22.17,14.76,18.94,18.12,16,19.16Z" transform="translate(0.77 -7.25)"/>
            <path class="cls-5" d="M15.86,19.23a7.16,7.16,0,0,1-.73.19c-2.8.57-5-.94-7.16-2.66C5.25,14.54,2.67,12-.77,11.58v-.05c3.45.45,6,3,8.76,5.2,2.14,1.71,4.35,3.22,7.15,2.65,3.16-.69,6.65-4,10.7-11.45h0C22.11,14.82,18.84,18.2,15.86,19.23Z" transform="translate(0.77 -7.25)"/>
            <path class="cls-5" d="M15.72,19.29a4.79,4.79,0,0,1-.72.19c-2.84.56-5.08-1-7.23-2.75C5.11,14.52,2.57,12-.77,11.49v0c3.35.54,5.89,3,8.56,5.25C9.94,18.45,12.18,20,15,19.44c3.2-.67,6.73-4,10.84-11.55h0C22.06,14.87,18.74,18.28,15.72,19.29Z" transform="translate(0.77 -7.25)"/>
            <path class="cls-5" d="M15.59,19.36a6.38,6.38,0,0,1-.72.19c-2.87.54-5.13-1.06-7.3-2.85C5,14.51,2.47,12-.77,11.41v0c3.25.63,5.74,3.1,8.36,5.3C9.76,18.45,12,20,14.87,19.5c3.24-.65,6.82-4,11-11.66h0C22,14.93,18.65,18.36,15.59,19.36Z" transform="translate(0.77 -7.25)"/>
            <path class="cls-5" d="M15.46,19.43l-.73.18c-2.9.52-5.17-1.12-7.36-2.94-2.56-2.18-5-4.62-8.14-5.33v0c3.15.71,5.59,3.16,8.16,5.34,2.19,1.82,4.46,3.45,7.35,2.93,3.27-.64,6.89-4.06,11.11-11.78h0C22,15,18.55,18.44,15.46,19.43Z" transform="translate(0.77 -7.25)"/>
            <path class="cls-5" d="M15.32,19.49a6.31,6.31,0,0,1-.72.18c-2.93.5-5.22-1.17-7.43-3-2.51-2.17-4.9-4.57-7.94-5.36v0c3,.79,5.45,3.2,8,5.37,2.21,1.85,4.49,3.52,7.41,3,3.32-.63,7-4.06,11.25-11.88h0C21.91,15,18.46,18.52,15.32,19.49Z" transform="translate(0.77 -7.25)"/>
            <path class="cls-5" d="M15.19,19.56c-.24.07-.48.12-.72.17-3,.48-5.28-1.23-7.5-3.13-2.46-2.14-4.8-4.52-7.74-5.38v0c3,.86,5.3,3.25,7.76,5.39,2.22,1.89,4.53,3.6,7.48,3.11,3.35-.6,7.06-4,11.39-12h0C21.85,15.09,18.36,18.6,15.19,19.56Z" transform="translate(0.77 -7.25)"/>
            <path class="cls-5" d="M15.06,19.62a6.86,6.86,0,0,1-.73.16c-3,.48-5.32-1.28-7.56-3.22-2.4-2.12-4.7-4.46-7.54-5.39v0c2.85.93,5.15,3.28,7.56,5.4,2.24,1.93,4.56,3.68,7.55,3.21,3.38-.59,7.13-4,11.52-12.08h0C21.8,15.15,18.26,18.67,15.06,19.62Z" transform="translate(0.77 -7.25)"/>
            <path class="cls-5" d="M14.92,19.68a6.2,6.2,0,0,1-.72.16c-3,.45-5.37-1.34-7.63-3.32S2,12.12-.77,11.13v0c2.76,1,5,3.3,7.36,5.4s4.6,3.76,7.61,3.31c3.43-.57,7.22-4.06,11.66-12.19h0C21.75,15.21,18.17,18.75,14.92,19.68Z" transform="translate(0.77 -7.25)"/>
            <path class="cls-5" d="M14.79,19.74a4.73,4.73,0,0,1-.73.15c-3.05.44-5.42-1.4-7.69-3.41S1.88,12.14-.77,11.09v0c2.66,1.06,4.86,3.33,7.16,5.4s4.63,3.84,7.68,3.4a4.61,4.61,0,0,0,.72-.15c3.27-.91,6.89-4.46,11.08-12.13h0C21.7,15.26,18.07,18.82,14.79,19.74Z" transform="translate(0.77 -7.25)"/>
            <path class="cls-5" d="M14.66,19.8l-.73.15c-3.09.41-5.47-1.46-7.76-3.52S1.79,12.17-.77,11.07v0c2.57,1.1,4.72,3.33,7,5.38s4.67,3.91,7.74,3.5c3.5-.53,7.38-4.05,11.94-12.39h0C21.64,15.32,18,18.9,14.66,19.8Z" transform="translate(0.77 -7.25)"/>
            <path class="cls-5" d="M14.52,19.86a6.1,6.1,0,0,1-.72.14c-3.12.4-5.52-1.52-7.83-3.61S1.7,12.19-.77,11v0a10,10,0,0,1,1.45.81A42.5,42.5,0,0,1,6,16.36c2.31,2.08,4.7,4,7.81,3.6,3.53-.51,7.46-4,12.07-12.48h0C21.59,15.37,17.88,19,14.52,19.86Z" transform="translate(0.77 -7.25)"/>
            <path class="cls-5" d="M14.39,19.91a4.7,4.7,0,0,1-.73.14c-3.15.38-5.56-1.58-7.89-3.71-2.12-2-4.16-4.12-6.54-5.31v0a13.35,13.35,0,0,1,1.25.72,45.57,45.57,0,0,1,5.31,4.61c2.33,2.13,4.74,4.08,7.88,3.7a6,6,0,0,0,.72-.13C17.77,19,21.52,15.4,25.87,7.44h0C21.54,15.43,17.78,19.05,14.39,19.91Z" transform="translate(0.77 -7.25)"/>
            <path class="cls-5" d="M14.26,20a6.6,6.6,0,0,1-.73.13c-3.18.36-5.62-1.64-8-3.81-2.06-1.94-4-4-6.34-5.26v0a11.38,11.38,0,0,1,1,.62,44.48,44.48,0,0,1,5.32,4.66c2.34,2.17,4.77,4.16,7.94,3.81a6.68,6.68,0,0,0,.73-.14c3.41-.84,7.21-4.47,11.62-12.54h0C21.49,15.49,17.68,19.12,14.26,20Z" transform="translate(0.77 -7.25)"/>
            <path class="cls-5" d="M14.13,20c-.25,0-.49.1-.74.13-3.21.33-5.66-1.71-8-3.92-2-1.91-3.93-4-6.14-5.21v0c.28.16.56.33.83.51a45.21,45.21,0,0,1,5.33,4.72c2.36,2.2,4.81,4.24,8,3.91a6.6,6.6,0,0,0,.73-.13c3.45-.83,7.29-4.47,11.75-12.65h0C21.43,15.54,17.59,19.2,14.13,20Z" transform="translate(0.77 -7.25)"/>
            <path class="cls-5" d="M14,20.08a4.63,4.63,0,0,1-.73.12c-3.24.32-5.71-1.77-8.09-4A36.22,36.22,0,0,0-.77,11v0a7.33,7.33,0,0,1,.63.4,43.19,43.19,0,0,1,5.33,4.77c2.38,2.24,4.84,4.32,8.07,4,.24,0,.49-.07.73-.12,3.49-.82,7.37-4.48,11.89-12.75h0C21.38,15.6,17.49,19.27,14,20.08Z" transform="translate(0.77 -7.25)"/>
            <path class="cls-5" d="M13.86,20.14a6.45,6.45,0,0,1-.73.11c-3.28.3-5.76-1.83-8.16-4.12A39,39,0,0,0-.77,11.05V11l.42.28A44.65,44.65,0,0,1,5,16.11c2.4,2.28,4.88,4.4,8.14,4.11l.73-.12c3.52-.79,7.45-4.47,12-12.85h0C21.33,15.66,17.39,19.34,13.86,20.14Z" transform="translate(0.77 -7.25)"/>
            <path class="cls-5" d="M14,20.13a6.6,6.6,0,0,1-.73.13c-3.24.31-5.71-1.77-8.09-4A36.22,36.22,0,0,0-.77,11.09V11l.63.4a45.57,45.57,0,0,1,5.33,4.77c2.38,2.24,4.84,4.32,8.07,4,3.68-.43,7.78-4,12.62-12.87h0C21.38,15.65,17.49,19.32,14,20.13Z" transform="translate(0.77 -7.25)"/>
            <path class="cls-5" d="M18.84,17.34a10.59,10.59,0,0,1-4.7,2.79,6.54,6.54,0,0,1-.75.13c-3.21.34-5.66-1.71-8-3.92-2-1.9-3.93-3.95-6.14-5.2v-.05a9.29,9.29,0,0,1,.83.51,44.22,44.22,0,0,1,5.33,4.72c2.36,2.2,4.8,4.24,8,3.9,3.63-.45,7.7-4,12.48-12.77h0A39.32,39.32,0,0,1,18.84,17.34Z" transform="translate(0.77 -7.25)"/>
            <path class="cls-5" d="M18.92,17.34a10.57,10.57,0,0,1-4.65,2.78,4.94,4.94,0,0,1-.75.14c-3.18.36-5.61-1.65-8-3.82-2-1.94-4-4-6.33-5.26v0a9.49,9.49,0,0,1,1,.62,43.5,43.5,0,0,1,5.32,4.66c2.34,2.16,4.77,4.16,7.94,3.8,3.6-.47,7.62-4,12.34-12.68h0A39.73,39.73,0,0,1,18.92,17.34Z" transform="translate(0.77 -7.25)"/>
            <path class="cls-5" d="M19,17.34a10.72,10.72,0,0,1-4.59,2.78,7,7,0,0,1-.75.14c-3.15.38-5.57-1.58-7.9-3.71-2.11-2-4.15-4.11-6.53-5.31v0a10.37,10.37,0,0,1,1.24.71,43.12,43.12,0,0,1,5.31,4.61c2.33,2.13,4.74,4.08,7.88,3.7,3.56-.49,7.54-4,12.21-12.58h0A39.55,39.55,0,0,1,19,17.34Z" transform="translate(0.77 -7.25)"/>
            <path class="cls-5" d="M19.07,17.34a10.51,10.51,0,0,1-4.53,2.77,5,5,0,0,1-.75.15c-3.12.4-5.52-1.52-7.83-3.61S1.7,12.46-.77,11.31v-.05a12.48,12.48,0,0,1,1.45.81A43.16,43.16,0,0,1,6,16.62c2.31,2.09,4.7,4,7.81,3.6a6.68,6.68,0,0,0,.73-.14c3.34-.88,7.05-4.47,11.34-12.34h0A39.18,39.18,0,0,1,19.07,17.34Z" transform="translate(0.77 -7.25)"/>
            <path class="cls-5" d="M19.15,17.33a10.68,10.68,0,0,1-4.48,2.78q-.37.09-.75.15c-3.09.42-5.47-1.46-7.76-3.52S1.79,12.49-.77,11.38v0c2.57,1.11,4.71,3.34,7,5.38s4.67,3.92,7.74,3.5c3.5-.53,7.38-4,11.94-12.38h0A38.88,38.88,0,0,1,19.15,17.33Z" transform="translate(0.77 -7.25)"/>
            <path class="cls-5" d="M19.22,17.33A10.57,10.57,0,0,1,14.8,20.1a6.69,6.69,0,0,1-.75.16c-3.05.43-5.42-1.41-7.7-3.42S1.88,12.51-.77,11.46v0c2.66,1.06,4.86,3.33,7.15,5.39s4.63,3.84,7.68,3.41q.36-.06.72-.15c3.27-.92,6.89-4.47,11.07-12.14h0A38.47,38.47,0,0,1,19.22,17.33Z" transform="translate(0.77 -7.25)"/>
            <path class="cls-5" d="M19.3,17.33a10.61,10.61,0,0,1-4.37,2.76,7,7,0,0,1-.74.16c-3,.46-5.38-1.34-7.64-3.31S2,12.54-.77,11.55v0c2.75,1,5,3.3,7.35,5.4s4.59,3.76,7.61,3.31c3.42-.58,7.22-4.06,11.66-12.19h0A38.67,38.67,0,0,1,19.3,17.33Z" transform="translate(0.77 -7.25)"/>
            <path class="cls-5" d="M19.38,17.33a10.77,10.77,0,0,1-4.32,2.75,7.12,7.12,0,0,1-.74.17C11.32,20.72,9,19,6.75,17c-2.39-2.12-4.69-4.45-7.52-5.39v0c2.84.94,5.14,3.28,7.54,5.4,2.24,1.93,4.57,3.68,7.55,3.21a6.2,6.2,0,0,0,.72-.16c3.2-.95,6.73-4.46,10.81-11.92h0A38.88,38.88,0,0,1,19.38,17.33Z" transform="translate(0.77 -7.25)"/>
            <path class="cls-5" d="M19.45,17.33a10.61,10.61,0,0,1-4.26,2.74,6.11,6.11,0,0,1-.74.17c-3,.49-5.27-1.22-7.5-3.12C4.5,15,2.16,12.61-.77,11.74v0C2.17,12.57,4.52,15,7,17.09c2.22,1.89,4.53,3.6,7.48,3.12a6.25,6.25,0,0,0,.72-.17c3.16-1,6.65-4.45,10.67-11.82h0A38.45,38.45,0,0,1,19.45,17.33Z" transform="translate(0.77 -7.25)"/>
            <path class="cls-5" d="M19.53,17.32a10.75,10.75,0,0,1-4.2,2.74q-.37.11-.75.18c-2.93.5-5.22-1.17-7.43-3-2.5-2.16-4.89-4.56-7.92-5.36v0c3,.8,5.43,3.21,7.94,5.37,2.21,1.85,4.49,3.52,7.42,3,3.31-.62,7-4.06,11.25-11.88h0A38,38,0,0,1,19.53,17.32Z" transform="translate(0.77 -7.25)"/>
            <path class="cls-5" d="M19.6,17.32A10.56,10.56,0,0,1,15.46,20a6.87,6.87,0,0,1-.75.19c-2.9.52-5.17-1.12-7.36-2.94-2.56-2.17-5-4.61-8.12-5.32v0c3.13.72,5.58,3.16,8.14,5.34,2.19,1.81,4.46,3.44,7.35,2.92,3.27-.64,6.89-4.05,11.11-11.77h0A37.89,37.89,0,0,1,19.6,17.32Z" transform="translate(0.77 -7.25)"/>
            <path class="cls-5" d="M19.68,17.32A10.73,10.73,0,0,1,15.59,20a7.33,7.33,0,0,1-.74.19c-2.87.54-5.13-1.06-7.3-2.84-2.61-2.19-5.09-4.66-8.32-5.29v0c3.23.64,5.73,3.11,8.34,5.3,2.17,1.78,4.42,3.37,7.28,2.84.24-.05.48-.12.72-.19,3.05-1,6.4-4.42,10.26-11.48h0A37.62,37.62,0,0,1,19.68,17.32Z" transform="translate(0.77 -7.25)"/>
            <path class="cls-5" d="M19.75,17.31a10.58,10.58,0,0,1-4,2.7,7.44,7.44,0,0,1-.74.2c-2.84.56-5.08-1-7.23-2.75-2.66-2.21-5.19-4.7-8.52-5.24v0c3.34.55,5.87,3,8.54,5.25,2.15,1.75,4.38,3.3,7.21,2.75,3.21-.68,6.74-4.05,10.84-11.57h0A37.41,37.41,0,0,1,19.75,17.31Z" transform="translate(0.77 -7.25)"/>
            <path class="cls-5" d="M19.83,17.31a10.6,10.6,0,0,1-4,2.68,5.13,5.13,0,0,1-.74.21c-2.81.57-5-.95-7.17-2.66-2.7-2.22-5.28-4.73-8.71-5.18v0c3.44.45,6,3,8.74,5.19,2.13,1.71,4.35,3.22,7.14,2.65a6.38,6.38,0,0,0,.72-.19c3-1,6.24-4.4,10-11.26h0A37.37,37.37,0,0,1,19.83,17.31Z" transform="translate(0.77 -7.25)"/>
            <path class="cls-5" d="M19.91,17.31A10.72,10.72,0,0,1,16,20a4.79,4.79,0,0,1-.74.21c-2.77.58-5-.9-7.1-2.57C5.39,15.39,2.77,12.85-.77,12.5v0c3.55.36,6.17,2.9,8.94,5.13,2.11,1.67,4.31,3.14,7.08,2.56A6.93,6.93,0,0,0,16,20c2.94-1,6.16-4.38,9.85-11.14h0A37.73,37.73,0,0,1,19.91,17.31Z" transform="translate(0.77 -7.25)"/>
            <path class="cls-5" d="M20,17.3A10.64,10.64,0,0,1,16.11,20a6.29,6.29,0,0,1-.74.22c-2.74.59-4.92-.85-7-2.48-2.8-2.24-5.47-4.8-9.11-5v0c3.65.25,6.32,2.82,9.13,5.06,2.1,1.63,4.28,3.07,7,2.47,3.09-.72,6.49-4,10.43-11.24h0A36.59,36.59,0,0,1,20,17.3Z" transform="translate(0.77 -7.25)"/>
            <path class="cls-5" d="M20.06,17.3a10.73,10.73,0,0,1-3.81,2.64,5.31,5.31,0,0,1-.75.22c-2.71.61-4.87-.79-7-2.39C5.69,15.53,3,12.94-.77,12.8v0c3.76.14,6.47,2.73,9.33,5,2.09,1.59,4.25,3,7,2.38a6.43,6.43,0,0,0,.71-.22c2.87-1.05,6-4.35,9.59-10.91h0A37,37,0,0,1,20.06,17.3Z" transform="translate(0.77 -7.25)"/>
            <path class="cls-5" d="M20.13,17.29a10.58,10.58,0,0,1-3.75,2.63c-.25.09-.5.17-.74.23-2.69.62-4.83-.74-6.9-2.3C5.84,15.6,3.09,13-.77,13v0c3.87,0,6.63,2.64,9.53,4.89,2.07,1.56,4.21,2.92,6.88,2.29,3-.74,6.33-4,10.16-11h0A36.81,36.81,0,0,1,20.13,17.29Z" transform="translate(0.77 -7.25)"/>
            <path class="cls-5" d="M20.21,17.29a10.75,10.75,0,0,1-3.7,2.61c-.25.09-.5.17-.74.23-2.65.64-4.78-.69-6.83-2.21C6,15.66,3.21,13-.77,13.14v0a9.14,9.14,0,0,1,1.57.11,9.68,9.68,0,0,1,3,1A37.64,37.64,0,0,1,9,17.89c2,1.52,4.17,2.84,6.81,2.21,3-.76,6.25-4,10-10.91h0A36.66,36.66,0,0,1,20.21,17.29Z" transform="translate(0.77 -7.25)"/>
            <path class="cls-5" d="M20.28,17.28a10.59,10.59,0,0,1-3.64,2.6c-.25.09-.49.17-.74.24-2.62.65-4.73-.64-6.76-2.13-3-2.26-5.82-4.89-9.91-4.68v0A8.69,8.69,0,0,1,1,13.37a9.56,9.56,0,0,1,3,1A37.08,37.08,0,0,1,9.16,18c2,1.48,4.13,2.77,6.74,2.12,3-.77,6.17-4,9.89-10.79h0A36.14,36.14,0,0,1,20.28,17.28Z" transform="translate(0.77 -7.25)"/>
            <path class="cls-5" d="M9.34,18.06c-3-2.26-5.91-4.91-10.11-4.57v0a9.31,9.31,0,0,1,2,.06,9.86,9.86,0,0,1,3,1A37.38,37.38,0,0,1,9.36,18c1.81,1.13,3.63,2.41,5.82,2.22C13,20.47,11.13,19.35,9.34,18.06Z" transform="translate(0.77 -7.25)"/>
            <path class="cls-5" d="M16,20.1a7.16,7.16,0,0,0,.74-.25,3.68,3.68,0,0,0,.35-.15,5.89,5.89,0,0,1-1.94.55A6.6,6.6,0,0,0,16,20.1Z" transform="translate(0.77 -7.25)"/>
            <path class="cls-5" d="M20.36,17.27a11.4,11.4,0,0,1-3.24,2.43c2.36-1.12,5.14-4.06,8.67-10.31h0A36.13,36.13,0,0,1,20.36,17.27Z" transform="translate(0.77 -7.25)"/>
            <path class="cls-5" d="M16.16,20.08l.37-.11a4.39,4.39,0,0,1-.83.21A4.24,4.24,0,0,0,16.16,20.08Z" transform="translate(0.77 -7.25)"/>
            <path class="cls-5" d="M20.43,17.27a11.08,11.08,0,0,1-3.24,2.43c2.34-1.1,5.1-4,8.59-10.21h0A36.11,36.11,0,0,1,20.43,17.27Z" transform="translate(0.77 -7.25)"/>
            <path class="cls-5" d="M9.54,18.12c-3.08-2.25-6-4.91-10.31-4.44v0a10,10,0,0,1,2.19,0,9.67,9.67,0,0,1,3,.94A34.23,34.23,0,0,1,9.56,18.1c1.81,1.12,3.64,2.37,5.84,2.12C13.19,20.5,11.33,19.39,9.54,18.12Z" transform="translate(0.77 -7.25)"/>
            <path class="cls-5" d="M17,19.81c-2.87,1.17-5.1-.11-7.29-1.62C6.62,15.93,3.67,13.26-.77,13.87v0a9.11,9.11,0,0,1,2.39,0,9.89,9.89,0,0,1,3,.9,35.28,35.28,0,0,1,5.16,3.43c4,2.44,8.1,5.48,16-8.58h0C22.2,16.16,19.4,18.79,17,19.81Z" transform="translate(0.77 -7.25)"/>
            <path class="cls-5" d="M17.16,19.78l-.18.07c2.37-.94,5.18-3.75,8.8-10.17h0C22.26,16.15,19.5,18.76,17.16,19.78Z" transform="translate(0.77 -7.25)"/>
            <path class="cls-5" d="M9.94,18.25C6.78,16,3.79,13.32-.77,14.07v0a9.47,9.47,0,0,1,2.6,0,9.57,9.57,0,0,1,3,.88A35.24,35.24,0,0,1,10,18.22c1.84,1.1,3.7,2.33,5.94,1.94C13.65,20.57,11.78,19.5,9.94,18.25Z" transform="translate(0.77 -7.25)"/>
            <path class="cls-5" d="M17.29,19.75l-.22.09c2.34-.93,5.13-3.71,8.7-10.06h0C22.32,16.14,19.6,18.73,17.29,19.75Z" transform="translate(0.77 -7.25)"/>
            <path class="cls-5" d="M10.15,18.31c-3.21-2.24-6.23-4.93-10.92-4v0A9.22,9.22,0,0,1,2,14.13,9.49,9.49,0,0,1,5,15a35.66,35.66,0,0,1,5.15,3.3c1.91,1.13,3.85,2.38,6.23,1.77C14,20.68,12.06,19.59,10.15,18.31Z" transform="translate(0.77 -7.25)"/>
            <path class="cls-5" d="M17.42,19.72a6.37,6.37,0,0,1-.69.25c2.42-.74,5.29-3.43,9-10.1h0C22.37,16.12,19.7,18.69,17.42,19.72Z" transform="translate(0.77 -7.25)"/>
            <path class="cls-5" d="M10.35,18.36C7.1,16.13,4,13.44-.77,14.48v0a10,10,0,0,1,3-.17,9.8,9.8,0,0,1,3,.83,36,36,0,0,1,5.14,3.23c1.91,1.12,3.85,2.35,6.24,1.68C14.22,20.69,12.26,19.63,10.35,18.36Z" transform="translate(0.77 -7.25)"/>
            <path class="cls-5" d="M17.55,19.69c-2.74,1.21-4.9.09-7-1.27C7.26,16.2,4.17,13.51-.77,14.7v0a9.9,9.9,0,0,1,3.22-.24,9.71,9.71,0,0,1,3,.8,35.5,35.5,0,0,1,5.13,3.17c1.89,1.23,3.86,2.27,6.25,1.55a7.12,7.12,0,0,0,.72-.28C20,18.54,22.72,15.54,25.76,10h0C22.43,16.1,19.8,18.66,17.55,19.69Z" transform="translate(0.77 -7.25)"/>
            <path class="cls-5" d="M17.68,19.66c-2.71,1.22-4.84.14-6.93-1.19-3.33-2.21-6.46-4.9-11.52-3.56v0a10.18,10.18,0,0,1,3.43-.3,9.62,9.62,0,0,1,3,.76,35.42,35.42,0,0,1,5.12,3.11c1.88,1.2,3.82,2.2,6.18,1.47a5.27,5.27,0,0,0,.72-.27c2.45-1.14,5.1-4.1,8.09-9.57h0C22.49,16.09,19.89,18.62,17.68,19.66Z" transform="translate(0.77 -7.25)"/>
            <path class="cls-5" d="M21,17.22a10.54,10.54,0,0,1-3.13,2.41,5.66,5.66,0,0,1-.74.29c-2.34.74-4.27-.23-6.13-1.4C7.61,16.34,4.48,13.68-.63,15.1l-.14,0v0l.12,0a10.29,10.29,0,0,1,3.52-.35,9.57,9.57,0,0,1,3,.74,34.11,34.11,0,0,1,5.11,3c1.86,1.17,3.79,2.13,6.11,1.4,2.62-.86,5.45-3.82,8.67-9.73h0A34.37,34.37,0,0,1,21,17.22Z" transform="translate(0.77 -7.25)"/>
            <path class="cls-5" d="M21,17.21A10.77,10.77,0,0,1,18,19.6c-.25.11-.49.21-.74.3-2.3.74-4.22-.2-6.06-1.33-3.33-2.13-6.46-4.75-11.58-3.3l-.34.07v0l.32-.07a10.39,10.39,0,0,1,3.53-.38,9.79,9.79,0,0,1,3,.71,34.07,34.07,0,0,1,5.1,3c1.84,1.13,3.75,2.06,6,1.32,2.58-.86,5.37-3.79,8.54-9.6h0A33.59,33.59,0,0,1,21,17.21Z" transform="translate(0.77 -7.25)"/>
            <path class="cls-5" d="M21.1,17.2a10.67,10.67,0,0,1-3,2.36,6.81,6.81,0,0,1-.74.31c-2.27.75-4.16-.15-6-1.26C8,16.52,4.91,14-.23,15.43l-.54.13v0l.53-.13A10.66,10.66,0,0,1,3.29,15a9.73,9.73,0,0,1,3,.68,33.69,33.69,0,0,1,5.09,2.92c1.82,1.09,3.71,2,6,1.24,2.55-.86,5.29-3.76,8.4-9.47h0A33.62,33.62,0,0,1,21.1,17.2Z" transform="translate(0.77 -7.25)"/>
            <path class="cls-5" d="M21.17,17.19a10.43,10.43,0,0,1-3,2.34,5.82,5.82,0,0,1-.74.31c-2.24.76-4.11-.11-5.92-1.18C8.38,16.72,5.12,14.1,0,15.59c-.25.07-.5.12-.75.17v0A5.93,5.93,0,0,0,0,15.56a10.77,10.77,0,0,1,3.53-.43,9.67,9.67,0,0,1,3,.65,32.82,32.82,0,0,1,5.08,2.85c1.81,1.06,3.67,1.93,5.9,1.17,2.51-.86,5.21-3.74,8.27-9.34h0A32.59,32.59,0,0,1,21.17,17.19Z" transform="translate(0.77 -7.25)"/>
            <path class="cls-5" d="M21.25,17.18a10.31,10.31,0,0,1-2.91,2.31,5.33,5.33,0,0,1-.74.32c-2.21.76-4.06-.07-5.84-1.11C8.59,16.8,5.33,14.23.18,15.76a7.63,7.63,0,0,1-.95.2v0a7.72,7.72,0,0,0,.93-.2,10.6,10.6,0,0,1,3.54-.45,9.34,9.34,0,0,1,3,.62,32.54,32.54,0,0,1,5.08,2.78c1.78,1,3.63,1.87,5.82,1.1a5.5,5.5,0,0,0,.72-.3c2.27-1.15,4.7-3.94,7.42-8.92h0A32.88,32.88,0,0,1,21.25,17.18Z" transform="translate(0.77 -7.25)"/>
            <path class="cls-5" d="M21.32,17.17a10.6,10.6,0,0,1-2.85,2.29,6.88,6.88,0,0,1-.74.32c-2.17.77-4,0-5.77-1C8.8,16.88,5.55,14.35.38,15.92a7.55,7.55,0,0,1-1.15.23v0a5.76,5.76,0,0,0,1.14-.23,10.89,10.89,0,0,1,3.54-.48,9.57,9.57,0,0,1,3,.59A32.21,32.21,0,0,1,12,18.71c1.76,1,3.59,1.8,5.76,1,2.43-.89,5-3.69,8-9.1h0A32.13,32.13,0,0,1,21.32,17.17Z" transform="translate(0.77 -7.25)"/>
            <path class="cls-5" d="M21.39,17.16a10.58,10.58,0,0,1-2.78,2.26,6.12,6.12,0,0,1-.75.33c-2.14.77-3.95,0-5.7-1C9,17,5.76,14.48.59,16.08a6.38,6.38,0,0,1-1.36.25v0A6.34,6.34,0,0,0,.57,16a11.33,11.33,0,0,1,3.55-.51,9.81,9.81,0,0,1,3,.56,31.46,31.46,0,0,1,5.06,2.66c1.74,1,3.55,1.73,5.69,1,2.39-.88,5-3.65,7.86-9h0A31.88,31.88,0,0,1,21.39,17.16Z" transform="translate(0.77 -7.25)"/>
            <path class="cls-5" d="M21.47,17.15a10.31,10.31,0,0,1-2.73,2.23c-.25.13-.5.24-.75.34-2.11.77-3.9,0-5.63-.91C9.21,17,6,14.6.79,16.24a7,7,0,0,1-1.56.28v0A6.32,6.32,0,0,0,.77,16.2a11.46,11.46,0,0,1,3.56-.54,10.08,10.08,0,0,1,3,.53,31.51,31.51,0,0,1,5.05,2.59c1.72.94,3.51,1.68,5.62.9,2.35-.89,4.87-3.62,7.72-8.84h0A31.81,31.81,0,0,1,21.47,17.15Z" transform="translate(0.77 -7.25)"/>
            <path class="cls-5" d="M21.54,17.15a10.52,10.52,0,0,1-2.67,2.19,6.21,6.21,0,0,1-.75.34c-2.08.78-3.85.07-5.55-.84C9.42,17.11,6.19,14.72,1,16.39a6.63,6.63,0,0,1-1.76.3v0A6.22,6.22,0,0,0,1,16.36a11.59,11.59,0,0,1,3.57-.57,10,10,0,0,1,3,.5,31.72,31.72,0,0,1,5.05,2.52c1.7.91,3.46,1.61,5.54.84,2.31-.89,4.79-3.59,7.59-8.71h0A31.87,31.87,0,0,1,21.54,17.15Z" transform="translate(0.77 -7.25)"/>
            <path class="cls-5" d="M21.61,17.13A10.44,10.44,0,0,1,19,19.3a6.3,6.3,0,0,1-.75.35c-2.05.78-3.8.1-5.48-.78-3.14-1.69-6.36-4-11.58-2.32a6.54,6.54,0,0,1-2,.32v0a6.62,6.62,0,0,0,2-.31,11.33,11.33,0,0,1,3.57-.6,9.64,9.64,0,0,1,3,.47,30.6,30.6,0,0,1,5,2.45c1.68.87,3.43,1.55,5.46.77,2.28-.88,4.72-3.55,7.46-8.57h0A30.81,30.81,0,0,1,21.61,17.13Z" transform="translate(0.77 -7.25)"/>
            <path class="cls-5" d="M21.69,17.12a10.55,10.55,0,0,1-2.56,2.14,6.3,6.3,0,0,1-.75.35c-2,.79-3.74.13-5.41-.71C9.84,17.25,6.63,15,1.4,16.71A6.68,6.68,0,0,1-.77,17v0a6.41,6.41,0,0,0,2.15-.32A12.12,12.12,0,0,1,5,16a10,10,0,0,1,3,.44,30.24,30.24,0,0,1,5,2.39c1.66.84,3.39,1.49,5.39.71,2.25-.89,4.64-3.52,7.33-8.45h0A31.06,31.06,0,0,1,21.69,17.12Z" transform="translate(0.77 -7.25)"/>
            <path class="cls-5" d="M21.76,17.11a10.17,10.17,0,0,1-2.5,2.1,5.12,5.12,0,0,1-.75.36c-2,.79-3.69.17-5.34-.64-3.12-1.62-6.33-3.86-11.57-2.07a6.61,6.61,0,0,1-2.37.33v0a6.55,6.55,0,0,0,2.35-.32c5.26-1.8,8.48.45,11.61,2.07,1.65.81,3.35,1.42,5.32.64,2.21-.89,4.56-3.49,7.19-8.31h0A30.65,30.65,0,0,1,21.76,17.11Z" transform="translate(0.77 -7.25)"/>
            <path class="cls-5" d="M21.83,17.1a10.26,10.26,0,0,1-2.44,2.07,6.5,6.5,0,0,1-.75.37c-1.95.78-3.56.22-5.26-.59C10.26,17.38,7.06,15.18,1.8,17a6.8,6.8,0,0,1-2.57.34v0A6.48,6.48,0,0,0,1.79,17c5.27-1.84,8.48.36,11.61,1.94,1.69.81,3.3,1.36,5.24.58,2.21-.9,4.44-3.39,7.06-8.17h0A29.86,29.86,0,0,1,21.83,17.1Z" transform="translate(0.77 -7.25)"/>
            <path class="cls-5" d="M21.9,17.09a10.17,10.17,0,0,1-2.38,2,6.5,6.5,0,0,1-.75.37c-1.92.78-3.51.25-5.19-.53C10.47,17.43,7.27,15.29,2,17.16a6.56,6.56,0,0,1-2.78.33v0A6.56,6.56,0,0,0,2,17.13c5.28-1.87,8.49.27,11.61,1.81,1.67.78,3.26,1.31,5.17.53,2.17-.91,4.36-3.36,6.93-8h0A29.66,29.66,0,0,1,21.9,17.09Z" transform="translate(0.77 -7.25)"/>
            <path class="cls-5" d="M22,17.08a10.21,10.21,0,0,1-2.33,2,5.29,5.29,0,0,1-.75.38c-1.89.78-3.46.28-5.11-.47-3.11-1.5-6.3-3.59-11.58-1.68a6.55,6.55,0,0,1-3,.33v0a6.4,6.4,0,0,0,3-.32c5.3-1.92,8.5.18,11.61,1.68,1.66.74,3.22,1.25,5.1.47,2.12-.91,4.28-3.32,6.79-7.91h0A29.63,29.63,0,0,1,22,17.08Z" transform="translate(0.77 -7.25)"/>
            <path class="cls-5" d="M22.05,17.07a10,10,0,0,1-2.27,2,6.72,6.72,0,0,1-.75.39c-1.86.78-3.41.3-5-.42-3.1-1.45-6.28-3.5-11.58-1.54a6.59,6.59,0,0,1-3.18.32v0a6.35,6.35,0,0,0,3.16-.32c5.32-2,8.51.1,11.62,1.55,1.63.72,3.18,1.2,5,.42,2.09-.91,4.2-3.28,6.66-7.77h0A29,29,0,0,1,22.05,17.07Z" transform="translate(0.77 -7.25)"/>
            <path class="cls-5" d="M22.12,17.06A10.43,10.43,0,0,1,19.91,19a6.06,6.06,0,0,1-.76.39c-1.82.78-3.35.33-5-.37C11.1,17.6,7.93,15.6,2.62,17.6a6.61,6.61,0,0,1-3.39.31v0a6.61,6.61,0,0,0,3.37-.31c5.33-2,8.51,0,11.61,1.41,3.19,1.23,6.2,2.2,11.47-7.26h0A28.64,28.64,0,0,1,22.12,17.06Z" transform="translate(0.77 -7.25)"/>
            <path class="cls-5" d="M22.19,17.05A10,10,0,0,1,20,18.94a8,8,0,0,1-.76.4A5.74,5.74,0,0,1,14.4,19c-3.08-1.37-6.25-3.31-11.58-1.27a6.63,6.63,0,0,1-3.59.3v0a6.62,6.62,0,0,0,3.57-.29c5.35-2,8.53-.1,11.62,1.27,3.14,1.18,6.11,2.09,11.26-7.18h0A28.46,28.46,0,0,1,22.19,17.05Z" transform="translate(0.77 -7.25)"/>
            <path class="cls-5" d="M20.16,18.9c-2.08,1.29-3.79.84-5.56.13C11.53,17.7,8.37,15.8,3,17.89a6.68,6.68,0,0,1-3.79.28v0A6.58,6.58,0,0,0,3,17.86a11.79,11.79,0,0,1,6.68-.71A26.55,26.55,0,0,1,14.62,19c3.09,1.12,6,2,11.05-7.09h0C23.51,15.9,21.73,17.9,20.16,18.9Z" transform="translate(0.77 -7.25)"/>
            <path class="cls-5" d="M20.29,18.84c-2.05,1.3-3.74.88-5.48.2-3.07-1.29-6.22-3.14-11.59-1a6.6,6.6,0,0,1-4,.26v0a6.55,6.55,0,0,0,4-.25,11.94,11.94,0,0,1,6.68-.78A25.83,25.83,0,0,1,14.83,19c3,1.07,5.92,1.85,10.84-7h0C23.57,15.89,21.83,17.85,20.29,18.84Z" transform="translate(0.77 -7.25)"/>
            <path class="cls-5" d="M20.42,18.79c-2,1.3-3.69.9-5.41.25-3.06-1.25-6.2-3-11.58-.87a6.6,6.6,0,0,1-4,.28l-.19-.05v0a6.59,6.59,0,0,0,4.18-.22,12.09,12.09,0,0,1,6.7-.85A25.36,25.36,0,0,1,15,19c3,1,5.83,1.75,10.63-6.91h0C23.62,15.88,21.92,17.81,20.42,18.79Z" transform="translate(0.77 -7.25)"/>
            <path class="cls-5" d="M20.55,18.74c-2,1.29-3.64.92-5.33.3-3.05-1.21-6.19-3-11.59-.73a6.5,6.5,0,0,1-4,.3l-.4-.1v0a6.63,6.63,0,0,0,4.39-.19,12.2,12.2,0,0,1,6.71-.92A25.94,25.94,0,0,1,15.24,19c2.94,1,5.73,1.64,10.42-6.81h0C23.67,15.88,22,17.77,20.55,18.74Z" transform="translate(0.77 -7.25)"/>
            <path class="cls-5" d="M20.67,18.69c-2,1.29-3.58.94-5.25.35-3-1.18-6.17-2.87-11.58-.59a6.58,6.58,0,0,1-4,.32l-.61-.15v0a6.66,6.66,0,0,0,4.59-.16,12.45,12.45,0,0,1,6.72-1A24.93,24.93,0,0,1,15.44,19a5.48,5.48,0,0,0,4.49.07c1.82-.87,3.64-3,5.73-6.78h0C23.73,15.87,22.11,17.72,20.67,18.69Z" transform="translate(0.77 -7.25)"/>
            <path class="cls-5" d="M20.8,18.63c-1.92,1.29-3.52,1-5.17.4-3-1.13-6.16-2.78-11.59-.44a6.62,6.62,0,0,1-4,.35c-.27-.06-.54-.14-.82-.22v0A6.65,6.65,0,0,0,4,18.55a12.7,12.7,0,0,1,6.74-1.07A25.54,25.54,0,0,1,15.65,19a5.41,5.41,0,0,0,4.41,0c1.78-.87,3.56-2.92,5.59-6.64h0C23.78,15.86,22.21,17.68,20.8,18.63Z" transform="translate(0.77 -7.25)"/>
            <path class="cls-5" d="M20.94,18.58a6.72,6.72,0,0,1-.76.44,5.36,5.36,0,0,1-4.35,0c-3-1.09-6.14-2.68-11.59-.3a6.59,6.59,0,0,1-4,.38,8.41,8.41,0,0,1-1-.29v0a6.7,6.7,0,0,0,5-.08A12.85,12.85,0,0,1,11,17.54,24.48,24.48,0,0,1,15.85,19a5.39,5.39,0,0,0,4.33,0c1.75-.86,3.48-2.87,5.47-6.5h0C24,15.61,22.44,17.54,20.94,18.58Z" transform="translate(0.77 -7.25)"/>
            <path class="cls-5" d="M21.06,18.52a4.59,4.59,0,0,1-.76.45A5.35,5.35,0,0,1,16,19c-3-1.06-6.12-2.6-11.59-.17a6.52,6.52,0,0,1-4,.4A8.94,8.94,0,0,1-.77,18.9v0a6.79,6.79,0,0,0,5.2,0A13,13,0,0,1,11.2,17.6,23.79,23.79,0,0,1,16.06,19a5.29,5.29,0,0,0,4.25,0c1.71-.84,3.4-2.82,5.33-6.35h0C24,15.62,22.53,17.5,21.06,18.52Z" transform="translate(0.77 -7.25)"/>
            <path class="cls-5" d="M21.19,18.47a5,5,0,0,1-.76.45,5.21,5.21,0,0,1-4.18.08c-2.87-1-6.11-2.49-11.6,0a6.49,6.49,0,0,1-4,.43A8.67,8.67,0,0,1-.77,19v0a6.85,6.85,0,0,0,5.4,0,13.3,13.3,0,0,1,6.78-1.29A22.64,22.64,0,0,1,16.26,19a5.29,5.29,0,0,0,4.18-.08c1.67-.83,3.32-2.77,5.2-6.2h0C24.05,15.63,22.62,17.46,21.19,18.47Z" transform="translate(0.77 -7.25)"/>
            <path class="cls-5" d="M21.32,18.41a7,7,0,0,1-.76.46,5.21,5.21,0,0,1-4.11.12c-2.86-.92-6.08-2.41-11.6.12a6.52,6.52,0,0,1-3.95.46,8.54,8.54,0,0,1-1.67-.5v0a6.9,6.9,0,0,0,5.61,0,13.48,13.48,0,0,1,6.79-1.37A23.24,23.24,0,0,1,16.47,19a5.2,5.2,0,0,0,4.09-.11c1.64-.83,3.25-2.71,5.07-6.06h0C24.1,15.63,22.7,17.42,21.32,18.41Z" transform="translate(0.77 -7.25)"/>
            <path class="cls-5" d="M21.44,18.36a5.49,5.49,0,0,1-.76.46,5.17,5.17,0,0,1-4,.15c-2.85-.89-6.07-2.32-11.6.26a6.46,6.46,0,0,1-3.95.49,9.11,9.11,0,0,1-1.88-.57v0A6.9,6.9,0,0,0,5,19.21a13.71,13.71,0,0,1,6.81-1.45,22,22,0,0,1,4.83,1.18,5.19,5.19,0,0,0,4-.15c1.59-.81,3.16-2.66,4.94-5.91h0A16.24,16.24,0,0,1,21.44,18.36Z" transform="translate(0.77 -7.25)"/>
            <path class="cls-5" d="M21.57,18.3a6.26,6.26,0,0,1-.76.47,5.13,5.13,0,0,1-3.95.18c-2.84-.85-6-2.23-11.6.41a6.51,6.51,0,0,1-3.94.52,9,9,0,0,1-2.09-.66v0a7,7,0,0,0,6,.15,14.07,14.07,0,0,1,6.83-1.53,21.67,21.67,0,0,1,4.81,1.12,5.11,5.11,0,0,0,3.94-.19c1.55-.8,3.08-2.6,4.81-5.75h0A16,16,0,0,1,21.57,18.3Z" transform="translate(0.77 -7.25)"/>
            <path class="cls-5" d="M21.69,18.24a5.24,5.24,0,0,1-.75.48,5.12,5.12,0,0,1-3.87.21c-2.83-.82-6-2.14-11.61.55A6.42,6.42,0,0,1,1.53,20a9.29,9.29,0,0,1-2.3-.74v-.05a7,7,0,0,0,6.22.21,14.52,14.52,0,0,1,6.84-1.61,21.71,21.71,0,0,1,4.8,1.05,5,5,0,0,0,3.85-.21c1.52-.79,3-2.54,4.68-5.6h0A15.64,15.64,0,0,1,21.69,18.24Z" transform="translate(0.77 -7.25)"/>
            <path class="cls-5" d="M21.82,18.19a5.58,5.58,0,0,1-.76.47,5,5,0,0,1-3.78.24c-2.82-.79-6-2-11.61.7a6.43,6.43,0,0,1-3.93.58,9.34,9.34,0,0,1-2.51-.83v0a7.1,7.1,0,0,0,6.42.27c5.62-2.76,8.82-1.5,11.65-.71a5,5,0,0,0,3.77-.24c1.48-.78,2.92-2.49,4.55-5.46h0A15.54,15.54,0,0,1,21.82,18.19Z" transform="translate(0.77 -7.25)"/>
            <path class="cls-5" d="M21.94,18.13a5.24,5.24,0,0,1-.75.48,4.94,4.94,0,0,1-3.7.26c-2.82-.75-6-2-11.62.85a6.41,6.41,0,0,1-3.92.6,9,9,0,0,1-2.72-.91v0a7.15,7.15,0,0,0,6.63.33c5.64-2.83,8.82-1.61,11.64-.86a5,5,0,0,0,3.69-.26c1.44-.76,2.85-2.43,4.42-5.31h0A15.32,15.32,0,0,1,21.94,18.13Z" transform="translate(0.77 -7.25)"/>
            <path class="cls-5" d="M22.07,18.07a5.75,5.75,0,0,1-.76.49,4.93,4.93,0,0,1-3.62.28c-2.8-.72-6-1.88-11.61,1a6.48,6.48,0,0,1-3.91.63,9.49,9.49,0,0,1-2.94-1v0c2.28,1.18,4.56,1.52,6.83.38,5.67-2.88,8.84-1.72,11.65-1a4.91,4.91,0,0,0,3.61-.29c1.4-.75,2.76-2.37,4.29-5.15h0A15,15,0,0,1,22.07,18.07Z" transform="translate(0.77 -7.25)"/>
            <path class="cls-5" d="M22.19,18a5.33,5.33,0,0,1-.75.49,4.87,4.87,0,0,1-3.54.3C15.11,18.12,12,17,6.28,20a6.45,6.45,0,0,1-3.9.66,9.59,9.59,0,0,1-3.15-1.1v0c2.35,1.25,4.7,1.64,7,.45C12,17,15.12,18.09,17.92,18.77c2.39.45,4.46.53,7.68-5.31h0A14.58,14.58,0,0,1,22.19,18Z" transform="translate(0.77 -7.25)"/>
            <path class="cls-5" d="M22.31,18a4.64,4.64,0,0,1-4.2.81c-2.78-.66-5.92-1.71-11.63,1.3a6.44,6.44,0,0,1-3.89.69A9.53,9.53,0,0,1-.77,19.57v0C1.64,20.89,4,21.29,6.47,20a16.12,16.12,0,0,1,6.94-2,19.44,19.44,0,0,1,4.72.72c2.33.42,4.36.47,7.47-5.17h0A14.08,14.08,0,0,1,22.31,18Z" transform="translate(0.77 -7.25)"/>
            <path class="cls-5" d="M22.43,17.89a4.51,4.51,0,0,1-4.11.84c-2.77-.63-5.9-1.62-11.63,1.45a6.45,6.45,0,0,1-3.89.72A9.58,9.58,0,0,1-.77,19.61v0c2.48,1.43,4.95,1.87,7.44.57a16.4,16.4,0,0,1,7-2.13,19.37,19.37,0,0,1,4.71.66c2.27.38,4.25.41,7.25-5h0A13.65,13.65,0,0,1,22.43,17.89Z" transform="translate(0.77 -7.25)"/>
            <path class="cls-5" d="M22.55,17.83a4.45,4.45,0,0,1-4,.85c-2.76-.59-5.88-1.53-11.64,1.61A6.43,6.43,0,0,1,3,21,9.7,9.7,0,0,1-.77,19.65h0c2.55,1.5,5.08,2,7.65.63a16.71,16.71,0,0,1,7-2.21,18.87,18.87,0,0,1,4.68.59c2.22.35,4.15.36,7.05-4.9h0A13.46,13.46,0,0,1,22.55,17.83Z" transform="translate(0.77 -7.25)"/>
            <path class="cls-5" d="M22.67,17.77a4.38,4.38,0,0,1-3.94.87C16,18.07,12.89,17.18,7.1,20.4a6.43,6.43,0,0,1-3.87.78A9.68,9.68,0,0,1-.65,19.77a1.25,1.25,0,0,0-.12-.08v0c2.62,1.59,5.22,2.12,7.85.71a17.18,17.18,0,0,1,7-2.31,18.39,18.39,0,0,1,4.67.54c2.17.32,4.05.3,6.84-4.76h0A12.89,12.89,0,0,1,22.67,17.77Z" transform="translate(0.77 -7.25)"/>
            <path class="cls-5" d="M22.79,17.71a4.37,4.37,0,0,1-3.85.89c-2.73-.55-5.82-1.38-11.64,1.91a6.5,6.5,0,0,1-3.86.81A9.74,9.74,0,0,1-.43,19.93l-.34-.21h0c2.69,1.67,5.36,2.25,8.06.77a17.56,17.56,0,0,1,7-2.39,18,18,0,0,1,4.65.47c2.11.29,3.94.26,6.62-4.61h0A12.57,12.57,0,0,1,22.79,17.71Z" transform="translate(0.77 -7.25)"/>
            <path class="cls-5" d="M22.91,17.65a4.25,4.25,0,0,1-3.76.89c-2.58-.47-5.79-1.27-11.64,2.07a6.45,6.45,0,0,1-3.86.84A9.36,9.36,0,0,1-.21,20.09l-.56-.33v0c2.76,1.75,5.5,2.39,8.26.85a18,18,0,0,1,7-2.49,17.6,17.6,0,0,1,4.63.41,4.51,4.51,0,0,0,3-.38c1.13-.64,2.21-1.93,3.39-4.08h0A12.22,12.22,0,0,1,22.91,17.65Z" transform="translate(0.77 -7.25)"/>
            <path class="cls-5" d="M23,17.59a3.72,3.72,0,0,1-.73.51,4.4,4.4,0,0,1-2.94.39c-2.57-.45-5.76-1.2-11.65,2.23a6.49,6.49,0,0,1-3.85.86A9.31,9.31,0,0,1,0,20.26l-.78-.48v0c2.84,1.85,5.63,2.53,8.47.93a18.67,18.67,0,0,1,7.07-2.59,17.23,17.23,0,0,1,4.61.36,4.44,4.44,0,0,0,2.93-.39,9.55,9.55,0,0,0,3.26-3.93h0A11.63,11.63,0,0,1,23,17.59Z" transform="translate(0.77 -7.25)"/>
            <path class="cls-5" d="M23.15,17.53a3.72,3.72,0,0,1-.73.51,4.34,4.34,0,0,1-2.85.4C17,18,13.84,17.32,7.92,20.82a6.58,6.58,0,0,1-3.84.9,9.4,9.4,0,0,1-3.85-1.3c-.33-.19-.66-.39-1-.61v0c2.91,1.94,5.77,2.68,8.67,1A18.9,18.9,0,0,1,15,18.11a16.56,16.56,0,0,1,4.59.29A4.36,4.36,0,0,0,22.43,18a9.18,9.18,0,0,0,3.14-3.77h0A11.36,11.36,0,0,1,23.15,17.53Z" transform="translate(0.77 -7.25)"/>
            <path class="cls-5" d="M23.27,17.48a4.13,4.13,0,0,1-.73.5,4.26,4.26,0,0,1-2.76.4c-2.54-.41-5.7-1.05-11.66,2.53a6.51,6.51,0,0,1-3.83.94A9.27,9.27,0,0,1,.45,20.58c-.41-.23-.81-.48-1.22-.76v0c3,2,5.91,2.82,8.88,1.09,6-3.59,9.14-2.95,11.69-2.54a4.23,4.23,0,0,0,2.75-.4,8.72,8.72,0,0,0,3-3.61h0A11.36,11.36,0,0,1,23.27,17.48Z" transform="translate(0.77 -7.25)"/>
            <path class="cls-5" d="M23.38,17.42a4.75,4.75,0,0,1-.72.51,4.24,4.24,0,0,1-2.67.39c-2.53-.39-5.67-1-11.66,2.69A6.46,6.46,0,0,1,4.5,22,9,9,0,0,1,.67,20.74a14.18,14.18,0,0,1-1.44-.9v0c3.05,2.12,6.05,3,9.08,1.17,6-3.67,9.16-3.09,11.7-2.7a4.15,4.15,0,0,0,2.66-.4,8.36,8.36,0,0,0,2.89-3.45h0A10.92,10.92,0,0,1,23.38,17.42Z" transform="translate(0.77 -7.25)"/>
            <path class="cls-5" d="M23.5,17.36a4.55,4.55,0,0,1-.72.51,4.09,4.09,0,0,1-2.58.39c-2.51-.38-5.64-.91-11.67,2.84a6.52,6.52,0,0,1-3.82,1A9,9,0,0,1,.88,20.89a15.39,15.39,0,0,1-1.65-1v0C2.35,22,5.42,23,8.52,21.08c6-3.75,9.18-3.23,11.7-2.86a4.07,4.07,0,0,0,2.57-.39,8,8,0,0,0,2.76-3.3h0A10.4,10.4,0,0,1,23.5,17.36Z" transform="translate(0.77 -7.25)"/>
            <path class="cls-5" d="M23.61,17.3a3.61,3.61,0,0,1-.71.51,4,4,0,0,1-2.49.38c-2.5-.36-5.6-.83-11.67,3a6.61,6.61,0,0,1-3.82,1A8.88,8.88,0,0,1,1.1,21.05,17,17,0,0,1-.77,19.87v0c3.19,2.29,6.33,3.26,9.49,1.32a21.11,21.11,0,0,1,7.21-3.08,14.63,14.63,0,0,1,4.5.07c1.76.14,3.17,0,5.12-3.53h0A9.85,9.85,0,0,1,23.61,17.3Z" transform="translate(0.77 -7.25)"/>
            <path class="cls-5" d="M23,17.75a3.92,3.92,0,0,1-2.4.38c-2.48-.35-5.56-.77-11.68,3.16a6.61,6.61,0,0,1-3.8,1.06A8,8,0,0,1,3.32,22a10.71,10.71,0,0,1-2-.84A16.89,16.89,0,0,1-.77,19.87v0c3.26,2.39,6.46,3.42,9.7,1.41a21.71,21.71,0,0,1,7.24-3.19,14.33,14.33,0,0,1,4.47,0c1.7.13,3.05,0,4.9-3.36h0A7.2,7.2,0,0,1,23,17.75Z" transform="translate(0.77 -7.25)"/>
            <path class="cls-5" d="M20.83,18.06c-2.46-.34-5.52-.71-11.68,3.31a6.65,6.65,0,0,1-3.8,1.1,7.36,7.36,0,0,1-1.81-.3,10.49,10.49,0,0,1-2-.81A19,19,0,0,1-.77,19.88v0c3.34,2.48,6.6,3.57,9.9,1.49a22.34,22.34,0,0,1,7.27-3.3,13.81,13.81,0,0,1,4.45,0c1.64.12,2.94,0,4.69-3.2h0C23.79,18.05,22.48,18.17,20.83,18.06Z" transform="translate(0.77 -7.25)"/>
            <path class="cls-5" d="M21,18c-2.31-.29-5.48-.62-11.69,3.48a6.55,6.55,0,0,1-3.79,1.12,7.27,7.27,0,0,1-1.8-.27,11.12,11.12,0,0,1-2-.8A17.66,17.66,0,0,1-.77,19.88v0C2.64,22.43,6,23.6,9.34,21.44A23.29,23.29,0,0,1,16.64,18,13.23,13.23,0,0,1,21.06,18c1.57.1,2.82,0,4.48-3h0C23.88,18,22.62,18.09,21,18Z" transform="translate(0.77 -7.25)"/>
            <path class="cls-5" d="M21.25,17.91c-2.29-.29-5.44-.57-11.69,3.63A6.59,6.59,0,0,1,5.78,22.7,7.12,7.12,0,0,1,4,22.44a9.75,9.75,0,0,1-2-.79A17.43,17.43,0,0,1-.77,19.88v0c3.48,2.66,6.88,3.89,10.31,1.66A23.64,23.64,0,0,1,16.88,18a12.74,12.74,0,0,1,4.39-.12c1.51.09,2.7,0,4.26-2.86h0C24,17.89,22.77,18,21.25,17.91Z" transform="translate(0.77 -7.25)"/>
            <path class="cls-5" d="M21.46,17.84c-2.27-.29-5.39-.52-11.7,3.78A6.59,6.59,0,0,1,6,22.81a7.13,7.13,0,0,1-1.8-.24,10.39,10.39,0,0,1-2-.77,18.61,18.61,0,0,1-3-1.92v0c3.55,2.75,7,4.05,10.52,1.74A24.67,24.67,0,0,1,17.12,18a12.49,12.49,0,0,1,4.36-.16c1.44.09,2.58,0,4.05-2.69h0C24.07,17.81,22.91,17.92,21.46,17.84Z" transform="translate(0.77 -7.25)"/>
            <path class="cls-5" d="M21.67,17.76c-2.25-.29-5.34-.47-11.7,3.94A6.72,6.72,0,0,1,6.2,22.93a7.09,7.09,0,0,1-1.79-.23,10,10,0,0,1-2-.75A19.37,19.37,0,0,1-.77,19.88v0C2.86,22.7,6.39,24.07,10,21.68c6.38-4.42,9.48-4.24,11.74-3.95,1.37.08,2.47,0,3.83-2.52h0C24.16,17.74,23.06,17.84,21.67,17.76Z" transform="translate(0.77 -7.25)"/>
            <path class="cls-5" d="M21.88,17.69c-2.23-.3-5.29-.44-11.71,4.09A6.7,6.7,0,0,1,6.41,23a7,7,0,0,1-1.78-.21,10,10,0,0,1-2-.74A18.33,18.33,0,0,1-.77,19.87v0c3.7,2.93,7.3,4.38,10.93,1.91a26.09,26.09,0,0,1,7.45-3.88,11.32,11.32,0,0,1,4.29-.23,3.24,3.24,0,0,0,1.83-.28,4.75,4.75,0,0,0,1.79-2.06h0C24.25,17.66,23.2,17.76,21.88,17.69Z" transform="translate(0.77 -7.25)"/>
            <path class="cls-5" d="M23.84,17.35a3.13,3.13,0,0,1-1.75.26c-1.79-.25-4.12-.36-8.39,2.09a18.6,18.6,0,0,1,4.16-1.86,10.88,10.88,0,0,1,4.25-.27c1.29.07,2.23,0,3.4-2.17h0A4.42,4.42,0,0,1,23.84,17.35Z" transform="translate(0.77 -7.25)"/>
            <path class="cls-5" d="M6.63,23.15A6.78,6.78,0,0,1,4.86,23a8.88,8.88,0,0,1-2-.72A19.31,19.31,0,0,1-.77,19.86v0c3.77,3,7.44,4.55,11.13,2,.78-.53,1.53-1,2.25-1.48-.7.44-1.44.94-2.23,1.5A6.83,6.83,0,0,1,6.63,23.15Z" transform="translate(0.77 -7.25)"/>
            <path class="cls-5" d="M24,17.3a3,3,0,0,1-1.65.23c-2.05-.3-5.18-.35-11.72,4.4a6.72,6.72,0,0,1-3.74,1.32,7.14,7.14,0,0,1-1.76-.17,9.91,9.91,0,0,1-2-.71A19,19,0,0,1-.77,19.85v0C3.08,23,6.82,24.54,10.57,21.91a27.89,27.89,0,0,1,7.54-4.13,10.23,10.23,0,0,1,4.21-.29c1.22.07,2.1,0,3.19-2h0A4,4,0,0,1,24,17.3Z" transform="translate(0.77 -7.25)"/>
            <path class="cls-5" d="M22.51,17.44c-2-.31-5.11-.32-11.72,4.56a6.79,6.79,0,0,1-3.74,1.35A6.58,6.58,0,0,1,5.3,23.2a9.79,9.79,0,0,1-2-.69A19.79,19.79,0,0,1-.77,19.84v0C3.15,23,7,24.7,10.77,22a28.69,28.69,0,0,1,7.59-4.25,9.68,9.68,0,0,1,4.17-.32c1.14.07,2,0,3-1.81h0C24.5,17.46,23.67,17.52,22.51,17.44Z" transform="translate(0.77 -7.25)"/>
            <path class="cls-5" d="M22.72,17.36c-2-.33-5-.3-11.72,4.7a6.94,6.94,0,0,1-3.73,1.4,7,7,0,0,1-1.75-.14,9.12,9.12,0,0,1-2-.67A20,20,0,0,1-.77,19.83v0C3.23,23.1,7.1,24.85,11,22c6.7-5,9.75-5.05,11.76-4.71,1.07.07,1.85,0,2.76-1.64h0C24.59,17.39,23.8,17.44,22.72,17.36Z" transform="translate(0.77 -7.25)"/>
            <path class="cls-5" d="M22.93,17.28a8.48,8.48,0,0,0-4.06.35,30.26,30.26,0,0,0-7.67,4.5,6.92,6.92,0,0,1-3.72,1.43,6.88,6.88,0,0,1-1.74-.13,8.52,8.52,0,0,1-2-.65,20.17,20.17,0,0,1-4.5-3v0c4.07,3.4,8,5.23,12,2.33a50.11,50.11,0,0,1,4.42-3,16.71,16.71,0,0,1,3.27-1.55A8.4,8.4,0,0,1,23,17.25c1,.08,1.72.05,2.55-1.46h0C24.67,17.33,23.94,17.37,22.93,17.28Z" transform="translate(0.77 -7.25)"/>
            <path class="cls-5" d="M23.14,17.2a8,8,0,0,0-4,.35,31.51,31.51,0,0,0-7.72,4.64,7,7,0,0,1-3.72,1.46A6.79,6.79,0,0,1,6,23.55a9,9,0,0,1-2-.64A20.08,20.08,0,0,1-.77,19.8v0c4.15,3.48,8.15,5.39,12.16,2.4C13,21,14.5,19.94,15.86,19.12a18.14,18.14,0,0,1,3.28-1.6,7.86,7.86,0,0,1,4-.35,2,2,0,0,0,2.33-1.28h0A2,2,0,0,1,23.14,17.2Z" transform="translate(0.77 -7.25)"/>
            <path class="cls-5" d="M23.35,17.13a7.39,7.39,0,0,0-4,.34c-2.19.77-4.74,2.48-7.79,4.78a7,7,0,0,1-3.71,1.5,6.28,6.28,0,0,1-1.72-.09,8.81,8.81,0,0,1-2-.61A21,21,0,0,1-.77,19.78v0c4.22,3.57,8.29,5.56,12.37,2.48,1.62-1.22,3.14-2.3,4.51-3.14a18.69,18.69,0,0,1,3.29-1.65,7.5,7.5,0,0,1,4-.35A1.74,1.74,0,0,0,25.49,16h0A1.79,1.79,0,0,1,23.35,17.13Z" transform="translate(0.77 -7.25)"/>
            <path class="cls-5" d="M23.56,17.05c-1.75-.47-4.72-.34-11.74,5.26a7,7,0,0,1-3.7,1.53,6.25,6.25,0,0,1-1.72-.07,8.72,8.72,0,0,1-2-.59A21,21,0,0,1-.77,19.76v0c4.3,3.66,8.44,5.73,12.57,2.56,7.05-5.62,10-5.74,11.78-5.28a1.51,1.51,0,0,0,1.9-.93h0A1.55,1.55,0,0,1,23.56,17.05Z" transform="translate(0.77 -7.25)"/>
            <path class="cls-5" d="M23.76,17a6.19,6.19,0,0,0-3.82.31C17.78,18.1,15.11,20,12,22.37a7.19,7.19,0,0,1-3.69,1.57,7.07,7.07,0,0,1-1.71-.06,8.81,8.81,0,0,1-2-.58A21.11,21.11,0,0,1-.77,19.74v0C3.6,23.45,7.81,25.61,12,22.35c1.67-1.29,3.22-2.44,4.62-3.34A18.6,18.6,0,0,1,20,17.26a6.32,6.32,0,0,1,3.83-.32,1.31,1.31,0,0,0,1.7-.76h0A1.36,1.36,0,0,1,23.76,17Z" transform="translate(0.77 -7.25)"/>
            <path class="cls-5" d="M25.18,16.71l0,0c-.35.32-.7.27-1.19.17a5.61,5.61,0,0,0-3.74.28c-2.17.83-4.87,2.77-8,5.23A7.17,7.17,0,0,1,8.55,24a7,7,0,0,1-1.71,0,9.24,9.24,0,0,1-2-.56,21,21,0,0,1-5.6-3.72v0c4.45,3.83,8.72,6.07,13,2.71,1.69-1.33,3.26-2.51,4.68-3.44a17.94,17.94,0,0,1,3.33-1.8A5.67,5.67,0,0,1,24,16.88c.47.09.84.14,1.17-.17a1.7,1.7,0,0,0,.31-.43h0A1.91,1.91,0,0,1,25.18,16.71Z" transform="translate(0.77 -7.25)"/>
            <path class="cls-5" d="M25.24,16.72l0,0c-.3.28-.61.22-1,.11a5.11,5.11,0,0,0-3.66.23c-2.17.85-4.89,2.86-8.07,5.39a7.32,7.32,0,0,1-3.68,1.64,6.47,6.47,0,0,1-1.7,0,8.62,8.62,0,0,1-2-.54A21.34,21.34,0,0,1-.77,19.69v0c4.52,3.91,8.87,6.25,13.19,2.79,1.72-1.37,3.32-2.59,4.75-3.55a18.62,18.62,0,0,1,3.35-1.85,5.21,5.21,0,0,1,3.67-.24c.43.11.75.17,1-.09a1.26,1.26,0,0,0,.25-.35h0A1.58,1.58,0,0,1,25.24,16.72Z" transform="translate(0.77 -7.25)"/>
            <path class="cls-5" d="M25.27,16.76c-.25.23-.52.16-.9,0a4.48,4.48,0,0,0-3.56.16c-2.17.86-4.93,2.94-8.17,5.56A7.23,7.23,0,0,1,9,24.19a6.37,6.37,0,0,1-1.69,0,8.53,8.53,0,0,1-2-.52,21.69,21.69,0,0,1-6-4v0c4.6,4,9,6.42,13.4,2.86,1.75-1.42,3.38-2.68,4.82-3.67a18.39,18.39,0,0,1,3.37-1.9,4.56,4.56,0,0,1,3.57-.17c.38.12.65.19.88,0a1.17,1.17,0,0,0,.2-.26h0A1,1,0,0,1,25.27,16.76Z" transform="translate(0.77 -7.25)"/>
            <path class="cls-5" d="M25.32,16.78c-.2.18-.43.1-.75,0a3.93,3.93,0,0,0-3.45.07c-2.17.87-5,3-8.27,5.73a7.31,7.31,0,0,1-3.66,1.71,6.36,6.36,0,0,1-1.69,0,8.44,8.44,0,0,1-2-.5A21.76,21.76,0,0,1-.77,19.64v0c4.68,4.08,9.15,6.6,13.61,2.94,1.79-1.47,3.44-2.78,4.9-3.81a18.4,18.4,0,0,1,3.39-1.94,4,4,0,0,1,3.46-.08c.32.13.55.21.73,0a.54.54,0,0,0,.14-.18h0A.72.72,0,0,1,25.32,16.78Z" transform="translate(0.77 -7.25)"/>
            <path class="cls-5" d="M25.36,16.81c-.15.14-.33.06-.59-.08-.65-.36-1.73-.86-3.94.23a46.25,46.25,0,0,0-7.77,5.65A7.37,7.37,0,0,1,9.4,24.35a6.27,6.27,0,0,1-1.68,0,8.85,8.85,0,0,1-2-.48A22.15,22.15,0,0,1-.77,19.62v0c4.75,4.15,9.3,6.76,13.81,3a45.32,45.32,0,0,1,7.8-5.65c2.21-1.11,3.3-.6,3.95-.24.25.13.44.21.58.09a.73.73,0,0,0,.09-.13,0,0,0,0,1,0,0A.4.4,0,0,1,25.36,16.81Z" transform="translate(0.77 -7.25)"/>
            <path class="cls-5" d="M25.4,16.86c-.11.09-.24,0-.45-.13-.54-.4-1.57-1-3.78.08S16.41,20,13.26,22.65a7.47,7.47,0,0,1-3.65,1.78,6.18,6.18,0,0,1-1.67.05,7.83,7.83,0,0,1-2-.46,22.36,22.36,0,0,1-6.7-4.43v0c4.83,4.24,9.44,6.94,14,3.07,3.15-2.65,5.83-4.83,7.93-5.85s3.25-.48,3.8-.08c.19.13.33.21.42.13a.18.18,0,0,0,.05-.07h0A.43.43,0,0,1,25.4,16.86Z" transform="translate(0.77 -7.25)"/>
            <path class="cls-5" d="M25.42,16.91c-.06.06-.15,0-.29-.15-.44-.44-1.38-1.22-3.59-.12s-4.83,3.28-8.07,6.05a7.61,7.61,0,0,1-3.64,1.82,7.12,7.12,0,0,1-1.67.07,8.23,8.23,0,0,1-2-.45A22.41,22.41,0,0,1-.77,19.56v0c4.91,4.31,9.59,7.1,14.23,3.13,3.24-2.77,6-5,8.09-6.06s3.16-.33,3.61.12c.12.12.22.2.27.15s0,0,0,0h0A.1.1,0,0,1,25.42,16.91Z" transform="translate(0.77 -7.25)"/>
            <path class="cls-5" d="M25.46,17l0,0s-.06,0-.14-.13c-.3-.47-1.12-1.49-3.36-.4s-4.9,3.37-8.26,6.27A7.69,7.69,0,0,1,10,24.58a6.54,6.54,0,0,1-1.66.09,8.15,8.15,0,0,1-2-.43,22.62,22.62,0,0,1-7.14-4.7v0c5,4.39,9.73,7.27,14.43,3.19C17,19.8,19.82,17.42,22,16.42s3.07-.07,3.37.4c.06.08.11.14.13.13h0Z" transform="translate(0.77 -7.25)"/>
            <path class="cls-5" d="M25.43,17.07a1.7,1.7,0,0,0-.54-.87c-.38-.33-1.1-.55-2.34,0a16.17,16.17,0,0,0-3.4,2.15c-1.54,1.19-3.32,2.74-5.27,4.44a7.63,7.63,0,0,1-3.62,1.9,7,7,0,0,1-1.65.11,8.53,8.53,0,0,1-2-.41c-2.42-.79-4.83-2.62-7.36-4.84v0c5.06,4.46,9.88,7.45,14.64,3.26,2-1.71,3.73-3.26,5.28-4.45a16.05,16.05,0,0,1,3.41-2.16c1.25-.52,2-.3,2.36,0a1.75,1.75,0,0,1,.54.88Z" transform="translate(0.77 -7.25)"/>
          </g>
        </g>
      </g>
    </g>
  </g>
</svg>